NotoSansLao-Regular.ufo
<glyph name="exclam" format="1">
  <advance width="551"/>
  <unicode hex="0021"/>
  <outline>
    <contour>
      <point x="336" y="414" type="line"/>
      <point x="215" y="414" type="line"/>
      <point x="164" y="1462" type="line"/>
      <point x="387" y="1462" type="line"/>
    </contour>
    <contour>
      <point x="147" y="111" type="qcurve" smooth="yes"/>
      <point x="147" y="149"/>
      <point x="167" y="202"/>
      <point x="201" y="235"/>
      <point x="247" y="250"/>
      <point x="274" y="250" type="qcurve" smooth="yes"/>
      <point x="300" y="250"/>
      <point x="347" y="235"/>
      <point x="381" y="202"/>
      <point x="401" y="149"/>
      <point x="401" y="111" type="qcurve" smooth="yes"/>
      <point x="401" y="74"/>
      <point x="381" y="21"/>
      <point x="347" y="-13"/>
      <point x="300" y="-29"/>
      <point x="274" y="-29" type="qcurve" smooth="yes"/>
      <point x="247" y="-29"/>
      <point x="201" y="-13"/>
      <point x="167" y="21"/>
      <point x="147" y="74"/>
    </contour>
  </outline>
</glyph>
<glyph name="quotedbl" format="1">
  <advance width="823"/>
  <unicode hex="0022"/>
  <outline>
    <contour>
      <point x="330" y="1462" type="line"/>
      <point x="289" y="934" type="line"/>
      <point x="174" y="934" type="line"/>
      <point x="133" y="1462" type="line"/>
    </contour>
    <contour>
      <point x="690" y="1462" type="line"/>
      <point x="649" y="934" type="line"/>
      <point x="535" y="934" type="line"/>
      <point x="494" y="1462" type="line"/>
    </contour>
  </outline>
</glyph>
<glyph name="numbersign" format="1">
  <advance width="1323"/>
  <unicode hex="0023"/>
  <outline>
    <contour>
      <point x="983" y="893" type="line"/>
      <point x="920" y="565" type="line"/>
      <point x="1200" y="565" type="line"/>
      <point x="1200" y="428" type="line"/>
      <point x="893" y="428" type="line"/>
      <point x="811" y="0" type="line"/>
      <point x="664" y="0" type="line"/>
      <point x="748" y="428" type="line"/>
      <point x="457" y="428" type="line"/>
      <point x="375" y="0" type="line"/>
      <point x="231" y="0" type="line"/>
      <point x="309" y="428" type="line"/>
      <point x="51" y="428" type="line"/>
      <point x="51" y="565" type="line"/>
      <point x="336" y="565" type="line"/>
      <point x="401" y="893" type="line"/>
      <point x="127" y="893" type="line"/>
      <point x="127" y="1030" type="line"/>
      <point x="426" y="1030" type="line"/>
      <point x="508" y="1462" type="line"/>
      <point x="655" y="1462" type="line"/>
      <point x="573" y="1030" type="line"/>
      <point x="866" y="1030" type="line"/>
      <point x="950" y="1462" type="line"/>
      <point x="1094" y="1462" type="line"/>
      <point x="1010" y="1030" type="line"/>
      <point x="1272" y="1030" type="line"/>
      <point x="1272" y="893" type="line"/>
    </contour>
    <contour>
      <point x="483" y="565" type="line"/>
      <point x="774" y="565" type="line"/>
      <point x="838" y="893" type="line"/>
      <point x="547" y="893" type="line"/>
    </contour>
  </outline>
</glyph>
<glyph name="percent" format="1">
  <advance width="1690"/>
  <unicode hex="0025"/>
  <outline>
    <contour>
      <point x="250" y="1026" type="qcurve" smooth="yes"/>
      <point x="250" y="861"/>
      <point x="321" y="696"/>
      <point x="401" y="696" type="qcurve" smooth="yes"/>
      <point x="557" y="696"/>
      <point x="557" y="1026" type="qcurve" smooth="yes"/>
      <point x="557" y="1354"/>
      <point x="401" y="1354" type="qcurve" smooth="yes"/>
      <point x="321" y="1354"/>
      <point x="250" y="1191"/>
    </contour>
    <contour>
      <point x="705" y="1026" type="qcurve" smooth="yes"/>
      <point x="705" y="918"/>
      <point x="669" y="746"/>
      <point x="595" y="628"/>
      <point x="480" y="565"/>
      <point x="401" y="565" type="qcurve" smooth="yes"/>
      <point x="328" y="565"/>
      <point x="216" y="628"/>
      <point x="140" y="746"/>
      <point x="102" y="918"/>
      <point x="102" y="1026" type="qcurve" smooth="yes"/>
      <point x="102" y="1134"/>
      <point x="137" y="1304"/>
      <point x="210" y="1421"/>
      <point x="323" y="1483"/>
      <point x="401" y="1483" type="qcurve" smooth="yes"/>
      <point x="476" y="1483"/>
      <point x="589" y="1421"/>
      <point x="666" y="1304"/>
      <point x="705" y="1134"/>
    </contour>
    <contour>
      <point x="1133" y="440" type="qcurve" smooth="yes"/>
      <point x="1133" y="275"/>
      <point x="1204" y="111"/>
      <point x="1284" y="111" type="qcurve" smooth="yes"/>
      <point x="1440" y="111"/>
      <point x="1440" y="440" type="qcurve" smooth="yes"/>
      <point x="1440" y="768"/>
      <point x="1284" y="768" type="qcurve" smooth="yes"/>
      <point x="1204" y="768"/>
      <point x="1133" y="605"/>
    </contour>
    <contour>
      <point x="1587" y="440" type="qcurve" smooth="yes"/>
      <point x="1587" y="332"/>
      <point x="1552" y="161"/>
      <point x="1478" y="43"/>
      <point x="1363" y="-20"/>
      <point x="1284" y="-20" type="qcurve" smooth="yes"/>
      <point x="1210" y="-20"/>
      <point x="1098" y="43"/>
      <point x="1023" y="161"/>
      <point x="985" y="332"/>
      <point x="985" y="440" type="qcurve" smooth="yes"/>
      <point x="985" y="548"/>
      <point x="1020" y="718"/>
      <point x="1093" y="835"/>
      <point x="1206" y="897"/>
      <point x="1284" y="897" type="qcurve" smooth="yes"/>
      <point x="1359" y="897"/>
      <point x="1472" y="835"/>
      <point x="1548" y="718"/>
      <point x="1587" y="548"/>
    </contour>
    <contour>
      <point x="1331" y="1462" type="line"/>
      <point x="520" y="0" type="line"/>
      <point x="362" y="0" type="line"/>
      <point x="1174" y="1462" type="line"/>
    </contour>
  </outline>
</glyph>
<glyph name="ampersand" format="1">
  <advance width="1438"/>
  <unicode hex="0026"/>
  <outline>
    <contour>
      <point x="422" y="1165" type="qcurve" smooth="yes"/>
      <point x="422" y="1131"/>
      <point x="438" y="1066"/>
      <point x="471" y="1001"/>
      <point x="523" y="934"/>
      <point x="559" y="897" type="qcurve"/>
      <point x="618" y="932"/>
      <point x="704" y="994"/>
      <point x="760" y="1058"/>
      <point x="788" y="1128"/>
      <point x="788" y="1169" type="qcurve" smooth="yes"/>
      <point x="788" y="1205"/>
      <point x="763" y="1266"/>
      <point x="716" y="1310"/>
      <point x="650" y="1335"/>
      <point x="608" y="1335" type="qcurve" smooth="yes"/>
      <point x="522" y="1335"/>
      <point x="422" y="1246"/>
    </contour>
    <contour>
      <point x="557" y="141" type="qcurve" smooth="yes"/>
      <point x="615" y="141"/>
      <point x="713" y="164"/>
      <point x="797" y="204"/>
      <point x="869" y="258"/>
      <point x="901" y="289" type="qcurve"/>
      <point x="514" y="696" type="line"/>
      <point x="462" y="663"/>
      <point x="382" y="600"/>
      <point x="327" y="528"/>
      <point x="299" y="443"/>
      <point x="299" y="387" type="qcurve" smooth="yes"/>
      <point x="299" y="333"/>
      <point x="334" y="242"/>
      <point x="400" y="177"/>
      <point x="496" y="141"/>
    </contour>
    <contour>
      <point x="109" y="381" type="qcurve" smooth="yes"/>
      <point x="109" y="459"/>
      <point x="149" y="581"/>
      <point x="226" y="681"/>
      <point x="337" y="767"/>
      <point x="408" y="809" type="qcurve"/>
      <point x="377" y="845"/>
      <point x="317" y="922"/>
      <point x="272" y="1009"/>
      <point x="244" y="1108"/>
      <point x="244" y="1165" type="qcurve" smooth="yes"/>
      <point x="244" y="1240"/>
      <point x="294" y="1359"/>
      <point x="388" y="1442"/>
      <point x="526" y="1485"/>
      <point x="614" y="1485" type="qcurve" smooth="yes"/>
      <point x="697" y="1485"/>
      <point x="828" y="1442"/>
      <point x="919" y="1359"/>
      <point x="967" y="1240"/>
      <point x="967" y="1165" type="qcurve" smooth="yes"/>
      <point x="967" y="1101"/>
      <point x="917" y="992"/>
      <point x="833" y="899"/>
      <point x="724" y="820"/>
      <point x="664" y="784" type="qcurve"/>
      <point x="1016" y="412" type="line"/>
      <point x="1043" y="441"/>
      <point x="1086" y="501"/>
      <point x="1120" y="569"/>
      <point x="1147" y="647"/>
      <point x="1157" y="694" type="qcurve"/>
      <point x="1341" y="694" type="line"/>
      <point x="1326" y="628"/>
      <point x="1285" y="517"/>
      <point x="1232" y="419"/>
      <point x="1167" y="334"/>
      <point x="1128" y="293" type="qcurve"/>
      <point x="1405" y="0" type="line"/>
      <point x="1180" y="0" type="line"/>
      <point x="1012" y="172" type="line"/>
      <point x="963" y="127"/>
      <point x="867" y="56"/>
      <point x="759" y="7"/>
      <point x="635" y="-20"/>
      <point x="557" y="-20" type="qcurve" smooth="yes"/>
      <point x="452" y="-20"/>
      <point x="285" y="33"/>
      <point x="170" y="136"/>
      <point x="109" y="285"/>
    </contour>
  </outline>
</glyph>
<glyph name="quotesingle" format="1">
  <advance width="463"/>
  <unicode hex="0027"/>
  <outline>
    <contour>
      <point x="330" y="1462" type="line"/>
      <point x="289" y="934" type="line"/>
      <point x="174" y="934" type="line"/>
      <point x="133" y="1462" type="line"/>
    </contour>
  </outline>
</glyph>
<glyph name="period" format="1">
  <advance width="549"/>
  <unicode hex="002E"/>
  <outline>
    <contour>
      <point x="147" y="111" type="qcurve" smooth="yes"/>
      <point x="147" y="149"/>
      <point x="167" y="202"/>
      <point x="201" y="235"/>
      <point x="247" y="250"/>
      <point x="274" y="250" type="qcurve" smooth="yes"/>
      <point x="300" y="250"/>
      <point x="347" y="235"/>
      <point x="381" y="202"/>
      <point x="401" y="149"/>
      <point x="401" y="111" type="qcurve" smooth="yes"/>
      <point x="401" y="74"/>
      <point x="381" y="21"/>
      <point x="347" y="-13"/>
      <point x="300" y="-29"/>
      <point x="274" y="-29" type="qcurve" smooth="yes"/>
      <point x="247" y="-29"/>
      <point x="201" y="-13"/>
      <point x="167" y="21"/>
      <point x="147" y="74"/>
    </contour>
  </outline>
</glyph>
<glyph name="one" format="1">
  <advance width="1128"/>
  <unicode hex="0031"/>
  <outline>
    <contour>
      <point x="711" y="0" type="line"/>
      <point x="535" y="0" type="line"/>
      <point x="535" y="913" type="line" smooth="yes"/>
      <point x="535" y="956"/>
      <point x="536" y="1054"/>
      <point x="539" y="1151"/>
      <point x="542" y="1240"/>
      <point x="543" y="1274" type="qcurve"/>
      <point x="526" y="1256"/>
      <point x="500" y="1230"/>
      <point x="473" y="1206"/>
      <point x="443" y="1179"/>
      <point x="422" y="1161" type="qcurve" smooth="yes"/>
      <point x="274" y="1040" type="line"/>
      <point x="178" y="1163" type="line"/>
      <point x="561" y="1462" type="line"/>
      <point x="711" y="1462" type="line"/>
    </contour>
  </outline>
</glyph>
<glyph name="four" format="1">
  <advance width="1128"/>
  <unicode hex="0034"/>
  <outline>
    <contour>
      <point x="1087" y="328" type="line"/>
      <point x="874" y="328" type="line"/>
      <point x="874" y="0" type="line"/>
      <point x="698" y="0" type="line"/>
      <point x="698" y="328" type="line"/>
      <point x="23" y="328" type="line"/>
      <point x="23" y="487" type="line"/>
      <point x="686" y="1470" type="line"/>
      <point x="874" y="1470" type="line"/>
      <point x="874" y="494" type="line"/>
      <point x="1087" y="494" type="line"/>
    </contour>
    <contour>
      <point x="698" y="494" type="line"/>
      <point x="698" y="850" type="line" smooth="yes"/>
      <point x="698" y="906"/>
      <point x="701" y="1029"/>
      <point x="705" y="1146"/>
      <point x="710" y="1248"/>
      <point x="711" y="1282" type="qcurve"/>
      <point x="702" y="1282" type="line"/>
      <point x="695" y="1262"/>
      <point x="674" y="1213"/>
      <point x="649" y="1164"/>
      <point x="623" y="1118"/>
      <point x="612" y="1102" type="qcurve" smooth="yes"/>
      <point x="201" y="494" type="line"/>
    </contour>
  </outline>
</glyph>
<glyph name="seven" format="1">
  <advance width="1128"/>
  <unicode hex="0037"/>
  <outline>
    <contour>
      <point x="281" y="0" type="line"/>
      <point x="844" y="1296" type="line"/>
      <point x="90" y="1296" type="line"/>
      <point x="90" y="1462" type="line"/>
      <point x="1030" y="1462" type="line"/>
      <point x="1030" y="1317" type="line"/>
      <point x="475" y="0" type="line"/>
    </contour>
  </outline>
</glyph>
<glyph name="nine" format="1">
  <advance width="1128"/>
  <unicode hex="0039"/>
  <outline>
    <contour>
      <point x="1028" y="838" type="qcurve" smooth="yes"/>
      <point x="1028" y="733"/>
      <point x="1007" y="524"/>
      <point x="954" y="334"/>
      <point x="862" y="169"/>
      <point x="720" y="49"/>
      <point x="522" y="-20"/>
      <point x="389" y="-20" type="qcurve" smooth="yes"/>
      <point x="370" y="-20"/>
      <point x="324" y="-18"/>
      <point x="278" y="-13"/>
      <point x="234" y="-7"/>
      <point x="217" y="-2" type="qcurve"/>
      <point x="217" y="154" type="line"/>
      <point x="252" y="141"/>
      <point x="340" y="129"/>
      <point x="383" y="129" type="qcurve" smooth="yes"/>
      <point x="518" y="129"/>
      <point x="692" y="223"/>
      <point x="794" y="384"/>
      <point x="837" y="598"/>
      <point x="842" y="717" type="qcurve"/>
      <point x="829" y="717" type="line"/>
      <point x="809" y="681"/>
      <point x="753" y="619"/>
      <point x="677" y="573"/>
      <point x="581" y="547"/>
      <point x="522" y="547" type="qcurve" smooth="yes"/>
      <point x="427" y="547"/>
      <point x="273" y="606"/>
      <point x="165" y="720"/>
      <point x="106" y="885"/>
      <point x="106" y="991" type="qcurve" smooth="yes"/>
      <point x="106" y="1105"/>
      <point x="169" y="1288"/>
      <point x="284" y="1415"/>
      <point x="449" y="1483"/>
      <point x="551" y="1483" type="qcurve" smooth="yes"/>
      <point x="652" y="1483"/>
      <point x="826" y="1405"/>
      <point x="954" y="1245"/>
      <point x="1028" y="1002"/>
    </contour>
    <contour>
      <point x="553" y="1329" type="qcurve" smooth="yes"/>
      <point x="493" y="1329"/>
      <point x="394" y="1289"/>
      <point x="322" y="1205"/>
      <point x="283" y="1078"/>
      <point x="283" y="991" type="qcurve" smooth="yes"/>
      <point x="283" y="921"/>
      <point x="316" y="810"/>
      <point x="382" y="732"/>
      <point x="481" y="690"/>
      <point x="547" y="690" type="qcurve" smooth="yes"/>
      <point x="615" y="690"/>
      <point x="725" y="737"/>
      <point x="803" y="812"/>
      <point x="846" y="908"/>
      <point x="846" y="956" type="qcurve" smooth="yes"/>
      <point x="846" y="1023"/>
      <point x="809" y="1156"/>
      <point x="736" y="1263"/>
      <point x="626" y="1329"/>
    </contour>
  </outline>
</glyph>
<glyph name="semicolon" format="1">
  <advance width="549"/>
  <unicode hex="003B"/>
  <unicode hex="037E"/>
  <outline>
    <contour>
      <point x="362" y="238" type="line"/>
      <point x="377" y="215" type="line"/>
      <point x="363" y="161"/>
      <point x="324" y="39"/>
      <point x="277" y="-85"/>
      <point x="226" y="-208"/>
      <point x="201" y="-264" type="qcurve"/>
      <point x="63" y="-264" type="line"/>
      <point x="78" y="-203"/>
      <point x="107" y="-71"/>
      <point x="134" y="60"/>
      <point x="156" y="185"/>
      <point x="164" y="238" type="qcurve"/>
    </contour>
    <contour>
      <point x="147" y="987" type="qcurve" smooth="yes"/>
      <point x="147" y="1026"/>
      <point x="167" y="1079"/>
      <point x="201" y="1112"/>
      <point x="247" y="1126"/>
      <point x="274" y="1126" type="qcurve" smooth="yes"/>
      <point x="300" y="1126"/>
      <point x="347" y="1112"/>
      <point x="381" y="1079"/>
      <point x="401" y="1026"/>
      <point x="401" y="987" type="qcurve" smooth="yes"/>
      <point x="401" y="950"/>
      <point x="381" y="898"/>
      <point x="347" y="864"/>
      <point x="300" y="848"/>
      <point x="274" y="848" type="qcurve" smooth="yes"/>
      <point x="247" y="848"/>
      <point x="201" y="864"/>
      <point x="167" y="898"/>
      <point x="147" y="950"/>
    </contour>
  </outline>
</glyph>
<glyph name="equal" format="1">
  <advance width="1128"/>
  <unicode hex="003D"/>
  <outline>
    <contour>
      <point x="102" y="852" type="line"/>
      <point x="102" y="1001" type="line"/>
      <point x="1026" y="1001" type="line"/>
      <point x="1026" y="852" type="line"/>
    </contour>
    <contour>
      <point x="102" y="442" type="line"/>
      <point x="102" y="592" type="line"/>
      <point x="1026" y="592" type="line"/>
      <point x="1026" y="442" type="line"/>
    </contour>
  </outline>
</glyph>
<glyph name="question" format="1">
  <advance width="872"/>
  <unicode hex="003F"/>
  <outline>
    <contour>
      <point x="281" y="414" type="line"/>
      <point x="281" y="451" type="line" smooth="yes"/>
      <point x="281" y="508"/>
      <point x="296" y="600"/>
      <point x="335" y="680"/>
      <point x="401" y="757"/>
      <point x="451" y="799" type="qcurve" smooth="yes"/>
      <point x="499" y="840"/>
      <point x="567" y="907"/>
      <point x="610" y="976"/>
      <point x="631" y="1055"/>
      <point x="631" y="1108" type="qcurve" smooth="yes"/>
      <point x="631" y="1156"/>
      <point x="601" y="1235"/>
      <point x="544" y="1292"/>
      <point x="459" y="1323"/>
      <point x="403" y="1323" type="qcurve" smooth="yes"/>
      <point x="320" y="1323"/>
      <point x="170" y="1271"/>
      <point x="100" y="1237" type="qcurve"/>
      <point x="37" y="1382" type="line"/>
      <point x="118" y="1424"/>
      <point x="306" y="1483"/>
      <point x="403" y="1483" type="qcurve" smooth="yes"/>
      <point x="496" y="1483"/>
      <point x="645" y="1432"/>
      <point x="749" y="1336"/>
      <point x="805" y="1197"/>
      <point x="805" y="1110" type="qcurve" smooth="yes"/>
      <point x="805" y="1043"/>
      <point x="778" y="938"/>
      <point x="724" y="848"/>
      <point x="644" y="764"/>
      <point x="590" y="717" type="qcurve" smooth="yes"/>
      <point x="538" y="672"/>
      <point x="472" y="605"/>
      <point x="434" y="542"/>
      <point x="420" y="476"/>
      <point x="420" y="432" type="qcurve" smooth="yes"/>
      <point x="420" y="414" type="line"/>
    </contour>
    <contour>
      <point x="233" y="111" type="qcurve" smooth="yes"/>
      <point x="233" y="149"/>
      <point x="253" y="202"/>
      <point x="287" y="235"/>
      <point x="333" y="250"/>
      <point x="360" y="250" type="qcurve" smooth="yes"/>
      <point x="386" y="250"/>
      <point x="433" y="235"/>
      <point x="467" y="202"/>
      <point x="487" y="149"/>
      <point x="487" y="111" type="qcurve" smooth="yes"/>
      <point x="487" y="74"/>
      <point x="467" y="21"/>
      <point x="433" y="-13"/>
      <point x="386" y="-29"/>
      <point x="360" y="-29" type="qcurve" smooth="yes"/>
      <point x="333" y="-29"/>
      <point x="287" y="-13"/>
      <point x="253" y="21"/>
      <point x="233" y="74"/>
    </contour>
  </outline>
</glyph>
<glyph name="at" format="1">
  <advance width="1774"/>
  <unicode hex="0040"/>
  <outline>
    <contour>
      <point x="1665" y="731" type="qcurve" smooth="yes"/>
      <point x="1665" y="669"/>
      <point x="1646" y="544"/>
      <point x="1609" y="431"/>
      <point x="1552" y="334"/>
      <point x="1476" y="262"/>
      <point x="1379" y="221"/>
      <point x="1321" y="221" type="qcurve" smooth="yes"/>
      <point x="1276" y="221"/>
      <point x="1203" y="251"/>
      <point x="1151" y="301"/>
      <point x="1118" y="366"/>
      <point x="1112" y="401" type="qcurve"/>
      <point x="1108" y="401" type="line"/>
      <point x="1090" y="364"/>
      <point x="1036" y="298"/>
      <point x="965" y="249"/>
      <point x="876" y="221"/>
      <point x="823" y="221" type="qcurve" smooth="yes"/>
      <point x="746" y="221"/>
      <point x="627" y="277"/>
      <point x="545" y="378"/>
      <point x="502" y="520"/>
      <point x="502" y="606" type="qcurve" smooth="yes"/>
      <point x="502" y="707"/>
      <point x="561" y="875"/>
      <point x="672" y="997"/>
      <point x="830" y="1065"/>
      <point x="928" y="1065" type="qcurve" smooth="yes"/>
      <point x="973" y="1065"/>
      <point x="1063" y="1057"/>
      <point x="1145" y="1043"/>
      <point x="1214" y="1026"/>
      <point x="1237" y="1018" type="qcurve"/>
      <point x="1214" y="602" type="line" smooth="yes"/>
      <point x="1213" y="580"/>
      <point x="1212" y="553"/>
      <point x="1212" y="545" type="qcurve" smooth="yes"/>
      <point x="1212" y="526" type="line" smooth="yes"/>
      <point x="1212" y="473"/>
      <point x="1233" y="405"/>
      <point x="1267" y="365"/>
      <point x="1310" y="350"/>
      <point x="1333" y="350" type="qcurve" smooth="yes"/>
      <point x="1379" y="350"/>
      <point x="1449" y="411"/>
      <point x="1496" y="515"/>
      <point x="1520" y="655"/>
      <point x="1520" y="733" type="qcurve" smooth="yes"/>
      <point x="1520" y="875"/>
      <point x="1434" y="1096"/>
      <point x="1282" y="1248"/>
      <point x="1073" y="1327"/>
      <point x="950" y="1327" type="qcurve" smooth="yes"/>
      <point x="781" y="1327"/>
      <point x="523" y="1216"/>
      <point x="348" y="1017"/>
      <point x="258" y="744"/>
      <point x="258" y="582" type="qcurve" smooth="yes"/>
      <point x="258" y="431"/>
      <point x="337" y="197"/>
      <point x="490" y="37"/>
      <point x="717" y="-45"/>
      <point x="864" y="-45" type="qcurve" smooth="yes"/>
      <point x="925" y="-45"/>
      <point x="1044" y="-31"/>
      <point x="1155" y="-7"/>
      <point x="1255" y="24"/>
      <point x="1298" y="41" type="qcurve"/>
      <point x="1298" y="-100" type="line"/>
      <point x="1212" y="-138"/>
      <point x="996" y="-182"/>
      <point x="866" y="-182" type="qcurve" smooth="yes"/>
      <point x="687" y="-182"/>
      <point x="406" y="-80"/>
      <point x="211" y="115"/>
      <point x="109" y="396"/>
      <point x="109" y="575" type="qcurve" smooth="yes"/>
      <point x="109" y="763"/>
      <point x="227" y="1088"/>
      <point x="446" y="1326"/>
      <point x="757" y="1462"/>
      <point x="950" y="1462" type="qcurve" smooth="yes"/>
      <point x="1106" y="1462"/>
      <point x="1368" y="1361"/>
      <point x="1559" y="1172"/>
      <point x="1665" y="901"/>
    </contour>
    <contour>
      <point x="662" y="602" type="qcurve" smooth="yes"/>
      <point x="662" y="469"/>
      <point x="763" y="350"/>
      <point x="848" y="350" type="qcurve" smooth="yes"/>
      <point x="903" y="350"/>
      <point x="981" y="395"/>
      <point x="1031" y="478"/>
      <point x="1057" y="593"/>
      <point x="1061" y="662" type="qcurve" smooth="yes"/>
      <point x="1075" y="915" type="line"/>
      <point x="1047" y="923"/>
      <point x="970" y="936"/>
      <point x="928" y="936" type="qcurve" smooth="yes"/>
      <point x="854" y="936"/>
      <point x="753" y="878"/>
      <point x="690" y="784"/>
      <point x="662" y="664"/>
    </contour>
  </outline>
</glyph>
<glyph name="uni0E81" format="1">
  <advance width="1397"/>
  <unicode hex="0E81"/>
  <outline>
    <contour>
      <point x="378" y="155" type="qcurve" smooth="yes"/>
      <point x="378" y="215"/>
      <point x="314" y="215" type="qcurve" smooth="yes"/>
      <point x="250" y="215"/>
      <point x="250" y="155" type="qcurve" smooth="yes"/>
      <point x="250" y="94"/>
      <point x="314" y="94" type="qcurve" smooth="yes"/>
      <point x="378" y="94"/>
    </contour>
    <contour>
      <point x="309" y="1044" type="qcurve"/>
      <point x="249" y="1044"/>
      <point x="249" y="1001" type="qcurve" smooth="yes"/>
      <point x="249" y="956"/>
      <point x="290" y="950" type="qcurve" smooth="yes"/>
      <point x="297" y="949"/>
      <point x="305" y="949" type="qcurve" smooth="yes"/>
      <point x="339" y="949"/>
      <point x="378" y="974" type="qcurve"/>
      <point x="370" y="1038"/>
    </contour>
    <contour>
      <point x="513" y="171" type="line"/>
      <point x="506" y="13"/>
      <point x="321" y="0" type="qcurve"/>
      <point x="156" y="3"/>
      <point x="147" y="161" type="qcurve"/>
      <point x="163" y="291"/>
      <point x="276" y="317" type="qcurve" smooth="yes"/>
      <point x="297" y="320"/>
      <point x="314" y="320" type="qcurve" smooth="yes"/>
      <point x="355" y="320"/>
      <point x="378" y="304" type="qcurve"/>
      <point x="378" y="843" type="line"/>
      <point x="346" y="839"/>
      <point x="316" y="835" type="qcurve"/>
      <point x="147" y="849"/>
      <point x="147" y="993" type="qcurve" smooth="yes"/>
      <point x="147" y="1135"/>
      <point x="303" y="1140" type="qcurve"/>
      <point x="442" y="1140"/>
      <point x="513" y="1032" type="qcurve"/>
      <point x="677" y="1135"/>
      <point x="841" y="1140" type="qcurve"/>
      <point x="1201" y="1131"/>
      <point x="1229" y="867" type="qcurve"/>
      <point x="1229" y="35" type="line" smooth="yes"/>
      <point x="1229" y="0"/>
      <point x="1162" y="0" type="qcurve" smooth="yes"/>
      <point x="1094" y="0"/>
      <point x="1094" y="42" type="qcurve" smooth="yes"/>
      <point x="1094" y="864" type="line" smooth="yes"/>
      <point x="1093" y="998"/>
      <point x="841" y="1015" type="qcurve"/>
      <point x="670" y="993"/>
      <point x="533" y="913"/>
      <point x="513" y="892" type="qcurve"/>
    </contour>
  </outline>
</glyph>
<glyph name="uni0E82" format="1">
  <advance width="1304"/>
  <unicode hex="0E82"/>
  <outline>
    <contour>
      <point x="378" y="836" type="qcurve" smooth="yes"/>
      <point x="310" y="836"/>
      <point x="310" y="767" type="qcurve" smooth="yes"/>
      <point x="310" y="698"/>
      <point x="378" y="698" type="qcurve" smooth="yes"/>
      <point x="445" y="698"/>
      <point x="445" y="767" type="qcurve" smooth="yes"/>
      <point x="445" y="836"/>
    </contour>
    <contour>
      <point x="147" y="145"/>
      <point x="147" y="240" type="qcurve" smooth="yes"/>
      <point x="147" y="448"/>
      <point x="440" y="532" type="qcurve" smooth="yes"/>
      <point x="652" y="594" type="line"/>
      <point x="1024" y="694"/>
      <point x="1024" y="818" type="qcurve"/>
      <point x="1019" y="904"/>
      <point x="838" y="1009"/>
      <point x="623" y="1009" type="qcurve" smooth="yes"/>
      <point x="328" y="1009"/>
      <point x="286" y="887" type="qcurve"/>
      <point x="326" y="929"/>
      <point x="377" y="929" type="qcurve" smooth="yes"/>
      <point x="545" y="929"/>
      <point x="545" y="788" type="qcurve" smooth="yes"/>
      <point x="547" y="772"/>
      <point x="547" y="758" type="qcurve" smooth="yes"/>
      <point x="547" y="608"/>
      <point x="368" y="606" type="qcurve"/>
      <point x="147" y="612"/>
      <point x="147" y="837" type="qcurve" smooth="yes"/>
      <point x="147" y="1140"/>
      <point x="623" y="1140" type="qcurve" smooth="yes"/>
      <point x="764" y="1138"/>
      <point x="836" y="1126" type="qcurve" smooth="yes"/>
      <point x="921" y="1111"/>
      <point x="992" y="1074" type="qcurve" smooth="yes"/>
      <point x="1063" y="1037"/>
      <point x="1111" y="975" type="qcurve" smooth="yes"/>
      <point x="1157" y="912"/>
      <point x="1157" y="815" type="qcurve" smooth="yes"/>
      <point x="1157" y="599"/>
      <point x="699" y="471" type="qcurve" smooth="yes"/>
      <point x="460" y="403" type="line" smooth="yes"/>
      <point x="279" y="350"/>
      <point x="279" y="240" type="qcurve" smooth="yes"/>
      <point x="280" y="202"/>
      <point x="361" y="133"/>
      <point x="412" y="133" type="qcurve" smooth="yes"/>
      <point x="474" y="133"/>
      <point x="807" y="254"/>
      <point x="889" y="254" type="qcurve" smooth="yes"/>
      <point x="989" y="254"/>
      <point x="1073" y="170" type="qcurve"/>
      <point x="1111" y="126" type="line"/>
      <point x="1139" y="83"/>
      <point x="1147" y="42" type="qcurve"/>
      <point x="1147" y="32" type="line" smooth="yes"/>
      <point x="1147" y="0"/>
      <point x="1097" y="0" type="qcurve" smooth="yes"/>
      <point x="1040" y="0"/>
      <point x="1037" y="26" type="qcurve"/>
      <point x="1029" y="46"/>
      <point x="942" y="121"/>
      <point x="891" y="121" type="qcurve" smooth="yes"/>
      <point x="830" y="121"/>
      <point x="490" y="2"/>
      <point x="414" y="0" type="qcurve" smooth="yes"/>
      <point x="315" y="0"/>
    </contour>
  </outline>
</glyph>
<glyph name="uni0E84" format="1">
  <advance width="1325"/>
  <unicode hex="0E84"/>
  <outline>
    <contour>
      <point x="389" y="225" type="qcurve" smooth="yes"/>
      <point x="318" y="225"/>
      <point x="318" y="158" type="qcurve" smooth="yes"/>
      <point x="318" y="90"/>
      <point x="389" y="90" type="qcurve" smooth="yes"/>
      <point x="460" y="90"/>
      <point x="460" y="158" type="qcurve" smooth="yes"/>
      <point x="460" y="225"/>
    </contour>
    <contour>
      <point x="147" y="380" type="line" smooth="yes"/>
      <point x="147" y="539"/>
      <point x="313" y="602" type="qcurve"/>
      <point x="147" y="665"/>
      <point x="147" y="833" type="qcurve" smooth="yes"/>
      <point x="147" y="1140"/>
      <point x="651" y="1140" type="qcurve" smooth="yes"/>
      <point x="1155" y="1140"/>
      <point x="1157" y="787" type="qcurve" smooth="yes"/>
      <point x="1157" y="41" type="line" smooth="yes"/>
      <point x="1157" y="0"/>
      <point x="1090" y="0" type="qcurve" smooth="yes"/>
      <point x="1022" y="0"/>
      <point x="1022" y="41" type="qcurve" smooth="yes"/>
      <point x="1022" y="789" type="line" smooth="yes"/>
      <point x="1022" y="1016"/>
      <point x="654" y="1016" type="qcurve" smooth="yes"/>
      <point x="284" y="1016"/>
      <point x="284" y="833" type="qcurve" smooth="yes"/>
      <point x="284" y="728"/>
      <point x="409" y="659"/>
      <point x="473" y="657" type="qcurve" smooth="yes"/>
      <point x="552" y="657"/>
      <point x="552" y="602" type="qcurve" smooth="yes"/>
      <point x="552" y="547"/>
      <point x="512" y="547" type="qcurve" smooth="yes"/>
      <point x="472" y="547"/>
      <point x="347" y="515" type="qcurve"/>
      <point x="284" y="475"/>
      <point x="284" y="380" type="qcurve" smooth="yes"/>
      <point x="284" y="262" type="line"/>
      <point x="293" y="275" type="line"/>
      <point x="335" y="317"/>
      <point x="409" y="317" type="qcurve" smooth="yes"/>
      <point x="565" y="317"/>
      <point x="565" y="178" type="qcurve" smooth="yes"/>
      <point x="567" y="162"/>
      <point x="567" y="147" type="qcurve" smooth="yes"/>
      <point x="567" y="2"/>
      <point x="389" y="0" type="qcurve"/>
      <point x="147" y="6"/>
      <point x="147" y="295" type="qcurve" smooth="yes"/>
    </contour>
  </outline>
</glyph>
<glyph name="uni0E87" format="1">
  <advance width="877"/>
  <unicode hex="0E87"/>
  <outline>
    <contour>
      <point x="278" y="902" type="qcurve" smooth="yes"/>
      <point x="278" y="832"/>
      <point x="347" y="832" type="qcurve" smooth="yes"/>
      <point x="416" y="832"/>
      <point x="416" y="902" type="qcurve" smooth="yes"/>
      <point x="416" y="972"/>
      <point x="347" y="972" type="qcurve" smooth="yes"/>
      <point x="278" y="972"/>
    </contour>
    <contour>
      <point x="147" y="-411"/>
      <point x="147" y="-343" type="qcurve" smooth="yes"/>
      <point x="147" y="-282"/>
      <point x="182" y="-282" type="qcurve" smooth="yes"/>
      <point x="189" y="-282" type="line"/>
      <point x="231" y="-289"/>
      <point x="262" y="-290" type="qcurve" smooth="yes"/>
      <point x="355" y="-286"/>
      <point x="458" y="-259"/>
      <point x="544" y="-182"/>
      <point x="574" y="-84"/>
      <point x="574" y="20" type="qcurve" smooth="yes"/>
      <point x="574" y="834" type="line" smooth="yes"/>
      <point x="574" y="983"/>
      <point x="467" y="996" type="qcurve"/>
      <point x="509" y="955"/>
      <point x="509" y="902" type="qcurve" smooth="yes"/>
      <point x="509" y="729"/>
      <point x="368" y="729" type="qcurve" smooth="yes"/>
      <point x="352" y="727"/>
      <point x="337" y="727" type="qcurve" smooth="yes"/>
      <point x="186" y="727"/>
      <point x="166" y="912" type="qcurve"/>
      <point x="192" y="1140"/>
      <point x="417" y="1140" type="qcurve" smooth="yes"/>
      <point x="709" y="1140"/>
      <point x="709" y="828" type="qcurve" smooth="yes"/>
      <point x="709" y="-148" type="line" smooth="yes"/>
      <point x="709" y="-229"/>
      <point x="568" y="-371"/>
      <point x="399" y="-418"/>
      <point x="255" y="-422" type="qcurve" smooth="yes"/>
      <point x="230" y="-420"/>
    </contour>
  </outline>
</glyph>
<glyph name="uni0E88" format="1">
  <advance width="1325"/>
  <unicode hex="0E88"/>
  <outline>
    <contour>
      <point x="666" y="581" type="qcurve" smooth="yes"/>
      <point x="666" y="576" type="line" smooth="yes"/>
      <point x="666" y="511"/>
      <point x="740" y="511" type="qcurve" smooth="yes"/>
      <point x="742" y="511" type="line" smooth="yes"/>
      <point x="820" y="512"/>
      <point x="820" y="582" type="qcurve" smooth="yes"/>
      <point x="820" y="651"/>
      <point x="745" y="651" type="qcurve" smooth="yes"/>
      <point x="669" y="651"/>
    </contour>
    <contour>
      <point x="662" y="1010" type="qcurve" smooth="yes"/>
      <point x="302" y="1010"/>
      <point x="302" y="847" type="qcurve" smooth="yes"/>
      <point x="302" y="803"/>
      <point x="225" y="803" type="qcurve" smooth="yes"/>
      <point x="147" y="803"/>
      <point x="147" y="847" type="qcurve" smooth="yes"/>
      <point x="147" y="1140"/>
      <point x="666" y="1140" type="qcurve" smooth="yes"/>
      <point x="1157" y="1140"/>
      <point x="1157" y="837" type="qcurve" smooth="yes"/>
      <point x="1157" y="820"/>
      <point x="1156" y="802" type="qcurve" smooth="yes"/>
      <point x="1156" y="205" type="line" smooth="yes"/>
      <point x="1156" y="2"/>
      <point x="935" y="0" type="qcurve"/>
      <point x="783" y="5"/>
      <point x="739" y="107" type="qcurve" smooth="yes"/>
      <point x="718" y="154"/>
      <point x="718" y="199" type="qcurve" smooth="yes"/>
      <point x="718" y="253"/>
      <point x="747" y="304" type="qcurve" smooth="yes"/>
      <point x="799" y="399"/>
      <point x="799" y="404" type="qcurve"/>
      <point x="777" y="384"/>
      <point x="711" y="384" type="qcurve" smooth="yes"/>
      <point x="705" y="384" type="line"/>
      <point x="535" y="410"/>
      <point x="530" y="578" type="qcurve"/>
      <point x="530" y="588" type="line" smooth="yes"/>
      <point x="530" y="747"/>
      <point x="718" y="779" type="qcurve"/>
      <point x="721" y="779" type="line" smooth="yes"/>
      <point x="920" y="779"/>
      <point x="949" y="632" type="qcurve" smooth="yes"/>
      <point x="958" y="582"/>
      <point x="958" y="538" type="qcurve" smooth="yes"/>
      <point x="958" y="451"/>
      <point x="921" y="385" type="qcurve" smooth="yes"/>
      <point x="865" y="286"/>
      <point x="861" y="215" type="qcurve" smooth="yes"/>
      <point x="860" y="211"/>
      <point x="860" y="207" type="qcurve" smooth="yes"/>
      <point x="860" y="142"/>
      <point x="935" y="129" type="qcurve"/>
      <point x="945" y="129" type="line" smooth="yes"/>
      <point x="1013" y="129"/>
      <point x="1021" y="209" type="qcurve"/>
      <point x="1021" y="802" type="line" smooth="yes"/>
      <point x="1021" y="1010"/>
    </contour>
  </outline>
</glyph>
<glyph name="uni0E8A" format="1">
  <advance width="1304"/>
  <unicode hex="0E8A"/>
  <outline>
    <contour>
      <point x="369" y="833" type="qcurve" smooth="yes"/>
      <point x="303" y="833"/>
      <point x="303" y="764" type="qcurve" smooth="yes"/>
      <point x="303" y="695"/>
      <point x="369" y="695" type="qcurve" smooth="yes"/>
      <point x="434" y="695"/>
      <point x="434" y="764" type="qcurve" smooth="yes"/>
      <point x="434" y="833"/>
    </contour>
    <contour>
      <point x="992" y="96" type="line" smooth="yes"/>
      <point x="992" y="170"/>
      <point x="951" y="231"/>
      <point x="900" y="231" type="qcurve" smooth="yes"/>
      <point x="805" y="231"/>
      <point x="707" y="144" type="qcurve" smooth="yes"/>
      <point x="543" y="0"/>
      <point x="386" y="0" type="qcurve" smooth="yes"/>
      <point x="252" y="0"/>
      <point x="147" y="125"/>
      <point x="147" y="216" type="qcurve" smooth="yes"/>
      <point x="147" y="383"/>
      <point x="463" y="497" type="qcurve" smooth="yes"/>
      <point x="671" y="574" type="line"/>
      <point x="992" y="685"/>
      <point x="992" y="845" type="qcurve"/>
      <point x="987" y="1010"/>
      <point x="606" y="1010" type="qcurve" smooth="yes"/>
      <point x="321" y="1010"/>
      <point x="282" y="884" type="qcurve"/>
      <point x="320" y="926"/>
      <point x="369" y="926" type="qcurve" smooth="yes"/>
      <point x="531" y="926"/>
      <point x="531" y="785" type="qcurve" smooth="yes"/>
      <point x="533" y="769"/>
      <point x="533" y="755" type="qcurve" smooth="yes"/>
      <point x="533" y="605"/>
      <point x="360" y="603" type="qcurve"/>
      <point x="147" y="609"/>
      <point x="147" y="834" type="qcurve" smooth="yes"/>
      <point x="147" y="1140"/>
      <point x="603" y="1140" type="qcurve" smooth="yes"/>
      <point x="609" y="1140" type="line" smooth="yes"/>
      <point x="1121" y="1140"/>
      <point x="1121" y="842" type="qcurve" smooth="yes"/>
      <point x="1121" y="589"/>
      <point x="713" y="449" type="qcurve"/>
      <point x="493" y="367" type="line"/>
      <point x="274" y="291"/>
      <point x="274" y="216" type="qcurve" smooth="yes"/>
      <point x="274" y="172"/>
      <point x="316" y="133"/>
      <point x="384" y="133" type="qcurve" smooth="yes"/>
      <point x="491" y="133"/>
      <point x="637" y="249" type="qcurve" smooth="yes"/>
      <point x="784" y="364"/>
      <point x="899" y="364" type="qcurve" smooth="yes"/>
      <point x="1004" y="364"/>
      <point x="1121" y="227"/>
      <point x="1121" y="96" type="qcurve" smooth="yes"/>
      <point x="1121" y="-217" type="line" smooth="yes"/>
      <point x="1123" y="-266"/>
      <point x="1142" y="-357"/>
      <point x="1151" y="-368" type="qcurve" smooth="yes"/>
      <point x="1157" y="-375"/>
      <point x="1157" y="-380" type="qcurve" smooth="yes"/>
      <point x="1157" y="-382"/>
      <point x="1156" y="-384" type="qcurve" smooth="yes"/>
      <point x="1152" y="-390"/>
      <point x="1100" y="-390" type="qcurve" smooth="yes"/>
      <point x="1028" y="-390"/>
      <point x="1021" y="-369" type="qcurve" smooth="yes"/>
      <point x="1007" y="-338"/>
      <point x="994" y="-253"/>
      <point x="993" y="-204" type="qcurve" smooth="yes"/>
      <point x="992" y="-186"/>
      <point x="992" y="-59" type="qcurve" smooth="yes"/>
    </contour>
  </outline>
</glyph>
<glyph name="uni0E8D" format="1">
  <advance width="1325"/>
  <unicode hex="0E8D"/>
  <outline>
    <contour>
      <point x="460" y="982" type="qcurve" smooth="yes"/>
      <point x="460" y="1050"/>
      <point x="389" y="1050" type="qcurve" smooth="yes"/>
      <point x="318" y="1050"/>
      <point x="318" y="982" type="qcurve" smooth="yes"/>
      <point x="318" y="915"/>
      <point x="389" y="915" type="qcurve" smooth="yes"/>
      <point x="460" y="915"/>
    </contour>
    <contour>
      <point x="654" y="124" type="qcurve" smooth="yes"/>
      <point x="1022" y="124"/>
      <point x="1022" y="343" type="qcurve" smooth="yes"/>
      <point x="1022" y="1109" type="line" smooth="yes"/>
      <point x="1022" y="1140"/>
      <point x="1090" y="1140" type="qcurve" smooth="yes"/>
      <point x="1157" y="1140"/>
      <point x="1157" y="1110" type="qcurve" smooth="yes"/>
      <point x="1156" y="343" type="line" smooth="yes"/>
      <point x="1155" y="0"/>
      <point x="651" y="0" type="qcurve" smooth="yes"/>
      <point x="147" y="0"/>
      <point x="147" y="356" type="qcurve" smooth="yes"/>
      <point x="147" y="515"/>
      <point x="313" y="577" type="qcurve"/>
      <point x="147" y="640"/>
      <point x="147" y="799" type="qcurve" smooth="yes"/>
      <point x="147" y="845" type="line" smooth="yes"/>
      <point x="147" y="1134"/>
      <point x="389" y="1140" type="qcurve"/>
      <point x="567" y="1138"/>
      <point x="567" y="993" type="qcurve" smooth="yes"/>
      <point x="567" y="978"/>
      <point x="565" y="962" type="qcurve" smooth="yes"/>
      <point x="565" y="823"/>
      <point x="409" y="823" type="qcurve" smooth="yes"/>
      <point x="335" y="823"/>
      <point x="293" y="865" type="qcurve"/>
      <point x="284" y="878" type="line"/>
      <point x="284" y="799" type="line" smooth="yes"/>
      <point x="284" y="704"/>
      <point x="409" y="636"/>
      <point x="481" y="636" type="qcurve" smooth="yes"/>
      <point x="552" y="636"/>
      <point x="552" y="578" type="qcurve" smooth="yes"/>
      <point x="552" y="519"/>
      <point x="481" y="519" type="qcurve" smooth="yes"/>
      <point x="409" y="519"/>
      <point x="284" y="451"/>
      <point x="284" y="356" type="qcurve" smooth="yes"/>
      <point x="284" y="124"/>
    </contour>
  </outline>
</glyph>
<glyph name="uni0E94" format="1">
  <advance width="1346"/>
  <unicode hex="0E94"/>
  <outline>
    <contour>
      <point x="410" y="225" type="qcurve" smooth="yes"/>
      <point x="339" y="225"/>
      <point x="339" y="158" type="qcurve" smooth="yes"/>
      <point x="339" y="90"/>
      <point x="410" y="90" type="qcurve" smooth="yes"/>
      <point x="481" y="90"/>
      <point x="481" y="158" type="qcurve" smooth="yes"/>
      <point x="481" y="225"/>
    </contour>
    <contour>
      <point x="168" y="735" type="line" smooth="yes"/>
      <point x="168" y="1140"/>
      <point x="675" y="1140" type="qcurve" smooth="yes"/>
      <point x="1178" y="1140"/>
      <point x="1178" y="735" type="qcurve" smooth="yes"/>
      <point x="1178" y="33" type="line" smooth="yes"/>
      <point x="1178" y="0"/>
      <point x="1111" y="0" type="qcurve" smooth="yes"/>
      <point x="1043" y="0"/>
      <point x="1043" y="33" type="qcurve" smooth="yes"/>
      <point x="1043" y="735" type="line" smooth="yes"/>
      <point x="1043" y="1016"/>
      <point x="675" y="1016" type="qcurve" smooth="yes"/>
      <point x="305" y="1016"/>
      <point x="305" y="735" type="qcurve" smooth="yes"/>
      <point x="305" y="262" type="line"/>
      <point x="314" y="275" type="line"/>
      <point x="356" y="317"/>
      <point x="430" y="317" type="qcurve" smooth="yes"/>
      <point x="586" y="317"/>
      <point x="586" y="178" type="qcurve" smooth="yes"/>
      <point x="588" y="162"/>
      <point x="588" y="147" type="qcurve" smooth="yes"/>
      <point x="588" y="2"/>
      <point x="410" y="0" type="qcurve"/>
      <point x="168" y="6"/>
      <point x="168" y="295" type="qcurve" smooth="yes"/>
    </contour>
  </outline>
</glyph>
<glyph name="uni0E95" format="1">
  <advance width="1344"/>
  <unicode hex="0E95"/>
  <outline>
    <contour>
      <point x="407" y="225" type="qcurve" smooth="yes"/>
      <point x="336" y="225"/>
      <point x="336" y="158" type="qcurve" smooth="yes"/>
      <point x="336" y="90"/>
      <point x="407" y="90" type="qcurve" smooth="yes"/>
      <point x="478" y="90"/>
      <point x="478" y="158" type="qcurve" smooth="yes"/>
      <point x="478" y="225"/>
    </contour>
    <contour>
      <point x="1176" y="735" type="qcurve" smooth="yes"/>
      <point x="1176" y="33" type="line" smooth="yes"/>
      <point x="1176" y="0"/>
      <point x="1109" y="0" type="qcurve" smooth="yes"/>
      <point x="1041" y="0"/>
      <point x="1041" y="33" type="qcurve" smooth="yes"/>
      <point x="1041" y="735" type="line" smooth="yes"/>
      <point x="1041" y="1016"/>
      <point x="927" y="1016" type="qcurve" smooth="yes"/>
      <point x="835" y="1016"/>
      <point x="758" y="912" type="qcurve" smooth="yes"/>
      <point x="712" y="849"/>
      <point x="671" y="849" type="qcurve" smooth="yes"/>
      <point x="630" y="849"/>
      <point x="584" y="912" type="qcurve" smooth="yes"/>
      <point x="508" y="1016"/>
      <point x="415" y="1016" type="qcurve" smooth="yes"/>
      <point x="303" y="1016"/>
      <point x="303" y="735" type="qcurve" smooth="yes"/>
      <point x="303" y="262" type="line"/>
      <point x="312" y="275" type="line"/>
      <point x="354" y="317"/>
      <point x="428" y="317" type="qcurve" smooth="yes"/>
      <point x="583" y="317"/>
      <point x="583" y="178" type="qcurve" smooth="yes"/>
      <point x="585" y="162"/>
      <point x="585" y="147" type="qcurve" smooth="yes"/>
      <point x="585" y="2"/>
      <point x="407" y="0" type="qcurve"/>
      <point x="168" y="6"/>
      <point x="168" y="295" type="qcurve" smooth="yes"/>
      <point x="168" y="735" type="line" smooth="yes"/>
      <point x="168" y="1140"/>
      <point x="424" y="1140" type="qcurve" smooth="yes"/>
      <point x="549" y="1140"/>
      <point x="671" y="983" type="qcurve"/>
      <point x="793" y="1140"/>
      <point x="918" y="1140" type="qcurve" smooth="yes"/>
      <point x="1176" y="1140"/>
    </contour>
  </outline>
</glyph>
<glyph name="uni0E97" format="1">
  <advance width="1515"/>
  <unicode hex="0E97"/>
  <outline>
    <contour>
      <point x="317" y="895" type="qcurve" smooth="yes"/>
      <point x="381" y="895"/>
      <point x="381" y="968" type="qcurve" smooth="yes"/>
      <point x="381" y="1042"/>
      <point x="317" y="1042" type="qcurve" smooth="yes"/>
      <point x="253" y="1042"/>
      <point x="253" y="968" type="qcurve" smooth="yes"/>
      <point x="253" y="895"/>
    </contour>
    <contour>
      <point x="283" y="344" type="qcurve"/>
      <point x="291" y="131"/>
      <point x="488" y="131" type="qcurve" smooth="yes"/>
      <point x="685" y="131"/>
      <point x="693" y="353" type="qcurve"/>
      <point x="693" y="802" type="line" smooth="yes"/>
      <point x="693" y="1140"/>
      <point x="1001" y="1140" type="qcurve" smooth="yes"/>
      <point x="1347" y="1140"/>
      <point x="1347" y="786" type="qcurve" smooth="yes"/>
      <point x="1347" y="34" type="line" smooth="yes"/>
      <point x="1347" y="0"/>
      <point x="1280" y="0" type="qcurve" smooth="yes"/>
      <point x="1212" y="0"/>
      <point x="1212" y="34" type="qcurve" smooth="yes"/>
      <point x="1208" y="788" type="line" smooth="yes"/>
      <point x="1203" y="1009"/>
      <point x="1014" y="1009" type="qcurve" smooth="yes"/>
      <point x="829" y="1009"/>
      <point x="829" y="786" type="qcurve" smooth="yes"/>
      <point x="829" y="353" type="line" smooth="yes"/>
      <point x="829" y="0"/>
      <point x="488" y="0" type="qcurve" smooth="yes"/>
      <point x="147" y="0"/>
      <point x="147" y="344" type="qcurve" smooth="yes"/>
      <point x="147" y="542"/>
      <point x="263" y="697" type="qcurve" smooth="yes"/>
      <point x="303" y="749"/>
      <point x="330" y="796" type="qcurve"/>
      <point x="147" y="798"/>
      <point x="147" y="968" type="qcurve" smooth="yes"/>
      <point x="147" y="1140"/>
      <point x="332" y="1140" type="qcurve" smooth="yes"/>
      <point x="519" y="1140"/>
      <point x="519" y="968" type="qcurve" smooth="yes"/>
      <point x="519" y="822"/>
      <point x="291" y="498"/>
    </contour>
  </outline>
</glyph>
<glyph name="uni0E99" format="1">
  <advance width="1325"/>
  <unicode hex="0E99"/>
  <outline>
    <contour>
      <point x="318" y="893" type="qcurve" smooth="yes"/>
      <point x="377" y="893"/>
      <point x="377" y="967" type="qcurve" smooth="yes"/>
      <point x="377" y="1040"/>
      <point x="318" y="1040" type="qcurve" smooth="yes"/>
      <point x="259" y="1040"/>
      <point x="259" y="967" type="qcurve" smooth="yes"/>
      <point x="259" y="893"/>
    </contour>
    <contour>
      <point x="502" y="265" type="qcurve"/>
      <point x="572" y="247"/>
      <point x="626" y="200" type="qcurve" smooth="yes"/>
      <point x="714" y="124"/>
      <point x="826" y="124" type="qcurve" smooth="yes"/>
      <point x="1030" y="124"/>
      <point x="1030" y="297" type="qcurve" smooth="yes"/>
      <point x="1030" y="1108" type="line" smooth="yes"/>
      <point x="1030" y="1140"/>
      <point x="1094" y="1140" type="qcurve" smooth="yes"/>
      <point x="1157" y="1140"/>
      <point x="1157" y="1106" type="qcurve" smooth="yes"/>
      <point x="1157" y="292" type="line" smooth="yes"/>
      <point x="1157" y="0"/>
      <point x="826" y="0" type="qcurve" smooth="yes"/>
      <point x="674" y="0"/>
      <point x="585" y="80" type="qcurve" smooth="yes"/>
      <point x="528" y="132"/>
      <point x="472" y="151" type="qcurve"/>
      <point x="404" y="4"/>
      <point x="231" y="4" type="qcurve" smooth="yes"/>
      <point x="222" y="4" type="line" smooth="yes"/>
      <point x="195" y="5"/>
      <point x="195" y="57" type="qcurve" smooth="yes"/>
      <point x="195" y="109"/>
      <point x="221" y="116"/>
      <point x="331" y="129"/>
      <point x="368" y="241"/>
      <point x="377" y="339" type="qcurve"/>
      <point x="377" y="798" type="line"/>
      <point x="348" y="795"/>
      <point x="327" y="795" type="qcurve" smooth="yes"/>
      <point x="147" y="795"/>
      <point x="147" y="967" type="qcurve" smooth="yes"/>
      <point x="147" y="1138"/>
      <point x="327" y="1140" type="qcurve" smooth="yes"/>
      <point x="506" y="1138"/>
      <point x="506" y="967" type="qcurve" smooth="yes"/>
      <point x="506" y="338" type="line" smooth="yes"/>
      <point x="506" y="299"/>
    </contour>
  </outline>
</glyph>
<glyph name="uni0E9A" format="1">
  <advance width="1325"/>
  <unicode hex="0E9A"/>
  <outline>
    <contour>
      <point x="310" y="893" type="qcurve" smooth="yes"/>
      <point x="371" y="893"/>
      <point x="371" y="967" type="qcurve" smooth="yes"/>
      <point x="371" y="1040"/>
      <point x="310" y="1040" type="qcurve" smooth="yes"/>
      <point x="249" y="1040"/>
      <point x="249" y="967" type="qcurve" smooth="yes"/>
      <point x="249" y="893"/>
    </contour>
    <contour>
      <point x="284" y="343" type="qcurve" smooth="yes"/>
      <point x="284" y="124"/>
      <point x="654" y="124" type="qcurve" smooth="yes"/>
      <point x="1022" y="124"/>
      <point x="1022" y="392" type="qcurve" smooth="yes"/>
      <point x="1022" y="1105" type="line" smooth="yes"/>
      <point x="1022" y="1140"/>
      <point x="1090" y="1140" type="qcurve" smooth="yes"/>
      <point x="1157" y="1140"/>
      <point x="1157" y="1105" type="qcurve" smooth="yes"/>
      <point x="1156" y="389" type="line" smooth="yes"/>
      <point x="1155" y="0"/>
      <point x="651" y="0" type="qcurve" smooth="yes"/>
      <point x="147" y="0"/>
      <point x="147" y="343" type="qcurve" smooth="yes"/>
      <point x="147" y="541"/>
      <point x="259" y="696" type="qcurve" smooth="yes"/>
      <point x="297" y="748"/>
      <point x="322" y="795" type="qcurve"/>
      <point x="147" y="797"/>
      <point x="147" y="967" type="qcurve" smooth="yes"/>
      <point x="147" y="1138"/>
      <point x="325" y="1140" type="qcurve" smooth="yes"/>
      <point x="503" y="1138"/>
      <point x="503" y="967" type="qcurve" smooth="yes"/>
      <point x="503" y="820"/>
      <point x="284" y="497"/>
    </contour>
  </outline>
</glyph>
<glyph name="uni0E9B" format="1">
  <advance width="1281"/>
  <unicode hex="0E9B"/>
  <outline>
    <contour>
      <point x="302" y="891" type="qcurve" smooth="yes"/>
      <point x="360" y="891"/>
      <point x="360" y="966" type="qcurve" smooth="yes"/>
      <point x="360" y="1041"/>
      <point x="302" y="1041" type="qcurve" smooth="yes"/>
      <point x="244" y="1041"/>
      <point x="244" y="966" type="qcurve" smooth="yes"/>
      <point x="244" y="891"/>
    </contour>
    <contour>
      <point x="982" y="1163" type="line"/>
      <point x="982" y="1220"/>
      <point x="984" y="1261" type="qcurve" smooth="yes"/>
      <point x="985" y="1310"/>
      <point x="998" y="1395"/>
      <point x="1019" y="1465"/>
      <point x="1088" y="1465" type="qcurve" smooth="yes"/>
      <point x="1147" y="1465"/>
      <point x="1147" y="1448" type="qcurve" smooth="yes"/>
      <point x="1147" y="1445"/>
      <point x="1145" y="1441" type="qcurve" smooth="yes"/>
      <point x="1133" y="1417"/>
      <point x="1118" y="1329"/>
      <point x="1113" y="1219"/>
      <point x="1113" y="1146" type="qcurve" smooth="yes"/>
      <point x="1113" y="400" type="line" smooth="yes"/>
      <point x="1113" y="0"/>
      <point x="628" y="0" type="qcurve" smooth="yes"/>
      <point x="147" y="0"/>
      <point x="147" y="350" type="qcurve" smooth="yes"/>
      <point x="147" y="552"/>
      <point x="254" y="700" type="qcurve" smooth="yes"/>
      <point x="290" y="753"/>
      <point x="314" y="791" type="qcurve"/>
      <point x="147" y="793"/>
      <point x="147" y="966" type="qcurve" smooth="yes"/>
      <point x="147" y="1140"/>
      <point x="315" y="1140" type="qcurve" smooth="yes"/>
      <point x="319" y="1140" type="line" smooth="yes"/>
      <point x="490" y="1140"/>
      <point x="490" y="966" type="qcurve" smooth="yes"/>
      <point x="490" y="817"/>
      <point x="281" y="507"/>
      <point x="281" y="350" type="qcurve" smooth="yes"/>
      <point x="281" y="135"/>
      <point x="630" y="135" type="qcurve" smooth="yes"/>
      <point x="981" y="135"/>
      <point x="981" y="400" type="qcurve" smooth="yes"/>
      <point x="981" y="1163" type="line"/>
    </contour>
  </outline>
</glyph>
<glyph name="uni0E9D" format="1">
  <advance width="1330"/>
  <unicode hex="0E9D"/>
  <outline>
    <contour>
      <point x="444" y="982" type="qcurve" smooth="yes"/>
      <point x="444" y="1051"/>
      <point x="381" y="1051" type="qcurve" smooth="yes"/>
      <point x="318" y="1051"/>
      <point x="318" y="982" type="qcurve" smooth="yes"/>
      <point x="318" y="913"/>
      <point x="381" y="913" type="qcurve" smooth="yes"/>
      <point x="444" y="913"/>
    </contour>
    <contour>
      <point x="1162" y="363" type="line" smooth="yes"/>
      <point x="1162" y="0"/>
      <point x="874" y="0" type="qcurve" smooth="yes"/>
      <point x="725" y="0"/>
      <point x="657" y="101" type="qcurve"/>
      <point x="589" y="0"/>
      <point x="442" y="0" type="qcurve" smooth="yes"/>
      <point x="168" y="0"/>
      <point x="168" y="363" type="qcurve" smooth="yes"/>
      <point x="168" y="842" type="line" smooth="yes"/>
      <point x="168" y="1137"/>
      <point x="381" y="1140" type="qcurve" smooth="yes"/>
      <point x="383" y="1140" type="line" smooth="yes"/>
      <point x="549" y="1140"/>
      <point x="549" y="973" type="qcurve" smooth="yes"/>
      <point x="549" y="963" type="line"/>
      <point x="535" y="829"/>
      <point x="399" y="820" type="qcurve"/>
      <point x="386" y="820" type="line" smooth="yes"/>
      <point x="300" y="820"/>
      <point x="300" y="846" type="qcurve" smooth="yes"/>
      <point x="300" y="363" type="line" smooth="yes"/>
      <point x="300" y="135"/>
      <point x="444" y="135" type="qcurve" smooth="yes"/>
      <point x="590" y="135"/>
      <point x="590" y="319" type="qcurve" smooth="yes"/>
      <point x="590" y="400" type="line" smooth="yes"/>
      <point x="590" y="460"/>
      <point x="658" y="460" type="qcurve" smooth="yes"/>
      <point x="725" y="460"/>
      <point x="726" y="401" type="qcurve" smooth="yes"/>
      <point x="723" y="342" type="line"/>
      <point x="723" y="327" type="line" smooth="yes"/>
      <point x="723" y="135"/>
      <point x="871" y="135" type="qcurve" smooth="yes"/>
      <point x="1025" y="135"/>
      <point x="1025" y="363" type="qcurve" smooth="yes"/>
      <point x="1025" y="1163" type="line"/>
      <point x="1026" y="1163" type="line"/>
      <point x="1026" y="1220"/>
      <point x="1028" y="1261" type="qcurve" smooth="yes"/>
      <point x="1029" y="1310"/>
      <point x="1041" y="1395"/>
      <point x="1061" y="1465"/>
      <point x="1130" y="1465" type="qcurve" smooth="yes"/>
      <point x="1189" y="1465"/>
      <point x="1189" y="1447" type="qcurve" smooth="yes"/>
      <point x="1189" y="1444"/>
      <point x="1187" y="1441" type="qcurve" smooth="yes"/>
      <point x="1176" y="1417"/>
      <point x="1163" y="1329"/>
      <point x="1162" y="1219"/>
      <point x="1162" y="1146" type="qcurve" smooth="yes"/>
    </contour>
  </outline>
</glyph>
<glyph name="uni0E9E" format="1">
  <advance width="1343"/>
  <unicode hex="0E9E"/>
  <outline>
    <contour>
      <point x="295" y="893" type="qcurve" smooth="yes"/>
      <point x="351" y="893"/>
      <point x="351" y="967" type="qcurve" smooth="yes"/>
      <point x="351" y="1040"/>
      <point x="295" y="1040" type="qcurve" smooth="yes"/>
      <point x="240" y="1040"/>
      <point x="240" y="967" type="qcurve" smooth="yes"/>
      <point x="240" y="893"/>
    </contour>
    <contour>
      <point x="443" y="134" type="line" smooth="yes"/>
      <point x="591" y="134"/>
      <point x="591" y="335" type="qcurve" smooth="yes"/>
      <point x="591" y="1116" type="line" smooth="yes"/>
      <point x="591" y="1140"/>
      <point x="659" y="1140" type="qcurve" smooth="yes"/>
      <point x="726" y="1140"/>
      <point x="726" y="1116" type="qcurve" smooth="yes"/>
      <point x="723" y="344" type="line"/>
      <point x="723" y="331" type="line" smooth="yes"/>
      <point x="723" y="134"/>
      <point x="879" y="134" type="qcurve" smooth="yes"/>
      <point x="1039" y="134"/>
      <point x="1042" y="356" type="qcurve" smooth="yes"/>
      <point x="1042" y="1116" type="line" smooth="yes"/>
      <point x="1042" y="1140"/>
      <point x="1110" y="1140" type="qcurve" smooth="yes"/>
      <point x="1175" y="1140"/>
      <point x="1175" y="1115" type="qcurve" smooth="yes"/>
      <point x="1172" y="355" type="line" smooth="yes"/>
      <point x="1167" y="0"/>
      <point x="883" y="0" type="qcurve" smooth="yes"/>
      <point x="731" y="0"/>
      <point x="659" y="99" type="qcurve"/>
      <point x="588" y="0"/>
      <point x="446" y="0" type="qcurve" smooth="yes"/>
      <point x="147" y="0"/>
      <point x="147" y="343" type="qcurve" smooth="yes"/>
      <point x="147" y="561"/>
      <point x="249" y="696" type="qcurve"/>
      <point x="283" y="748"/>
      <point x="307" y="795" type="qcurve"/>
      <point x="147" y="797"/>
      <point x="147" y="967" type="qcurve" smooth="yes"/>
      <point x="147" y="1138"/>
      <point x="310" y="1140" type="qcurve" smooth="yes"/>
      <point x="472" y="1138"/>
      <point x="472" y="967" type="qcurve" smooth="yes"/>
      <point x="472" y="820"/>
      <point x="282" y="516"/>
      <point x="282" y="342" type="qcurve" smooth="yes"/>
      <point x="282" y="335" type="line" smooth="yes"/>
      <point x="282" y="134"/>
      <point x="441" y="134" type="qcurve" smooth="yes"/>
    </contour>
  </outline>
</glyph>
<glyph name="uni0E9F" format="1">
  <advance width="1309"/>
  <unicode hex="0E9F"/>
  <outline>
    <contour>
      <point x="311" y="908" type="qcurve" smooth="yes"/>
      <point x="363" y="908"/>
      <point x="363" y="975" type="qcurve" smooth="yes"/>
      <point x="363" y="1041"/>
      <point x="311" y="1041" type="qcurve" smooth="yes"/>
      <point x="259" y="1041"/>
      <point x="259" y="975" type="qcurve" smooth="yes"/>
      <point x="259" y="908"/>
    </contour>
    <contour>
      <point x="1140" y="335" type="line" smooth="yes"/>
      <point x="1140" y="7"/>
      <point x="861" y="0" type="qcurve" smooth="yes"/>
      <point x="717" y="0"/>
      <point x="650" y="101" type="qcurve"/>
      <point x="584" y="0"/>
      <point x="452" y="0" type="qcurve" smooth="yes"/>
      <point x="173" y="0"/>
      <point x="173" y="350" type="qcurve" smooth="yes"/>
      <point x="173" y="552"/>
      <point x="268" y="690" type="qcurve" smooth="yes"/>
      <point x="300" y="743"/>
      <point x="322" y="791" type="qcurve"/>
      <point x="147" y="803"/>
      <point x="147" y="976" type="qcurve" smooth="yes"/>
      <point x="147" y="1151"/>
      <point x="325" y="1153" type="qcurve"/>
      <point x="496" y="1142"/>
      <point x="496" y="967" type="qcurve" smooth="yes"/>
      <point x="496" y="818"/>
      <point x="304" y="507"/>
      <point x="304" y="350" type="qcurve" smooth="yes"/>
      <point x="308" y="135"/>
      <point x="456" y="135" type="qcurve" smooth="yes"/>
      <point x="586" y="135"/>
      <point x="586" y="318" type="qcurve" smooth="yes"/>
      <point x="586" y="333"/>
      <point x="585" y="350" type="qcurve" smooth="yes"/>
      <point x="585" y="1108" type="line" smooth="yes"/>
      <point x="585" y="1134"/>
      <point x="651" y="1134" type="qcurve" smooth="yes"/>
      <point x="717" y="1134"/>
      <point x="717" y="1108" type="qcurve" smooth="yes"/>
      <point x="717" y="237" type="line" smooth="yes"/>
      <point x="717" y="135"/>
      <point x="862" y="135" type="qcurve" smooth="yes"/>
      <point x="1009" y="135"/>
      <point x="1009" y="336" type="qcurve" smooth="yes"/>
      <point x="1009" y="349"/>
      <point x="1008" y="363" type="qcurve" smooth="yes"/>
      <point x="1008" y="1163" type="line"/>
      <point x="1009" y="1163" type="line"/>
      <point x="1009" y="1220"/>
      <point x="1011" y="1261" type="qcurve" smooth="yes"/>
      <point x="1012" y="1310"/>
      <point x="1023" y="1395"/>
      <point x="1042" y="1465"/>
      <point x="1110" y="1465" type="qcurve" smooth="yes"/>
      <point x="1168" y="1465"/>
      <point x="1168" y="1447" type="qcurve" smooth="yes"/>
      <point x="1168" y="1444"/>
      <point x="1166" y="1441" type="qcurve" smooth="yes"/>
      <point x="1155" y="1417"/>
      <point x="1143" y="1329"/>
      <point x="1140" y="1219"/>
      <point x="1140" y="1146" type="qcurve" smooth="yes"/>
    </contour>
  </outline>
</glyph>
<glyph name="uni0EA2" format="1">
  <advance width="1278"/>
  <unicode hex="0EA2"/>
  <outline>
    <contour>
      <point x="454" y="976" type="qcurve" smooth="yes"/>
      <point x="451" y="1037"/>
      <point x="385" y="1037" type="qcurve" smooth="yes"/>
      <point x="329" y="1034"/>
      <point x="322" y="976" type="qcurve"/>
      <point x="325" y="907"/>
      <point x="388" y="907" type="qcurve" smooth="yes"/>
      <point x="454" y="907"/>
    </contour>
    <contour>
      <point x="1110" y="349" type="line"/>
      <point x="1103" y="0"/>
      <point x="626" y="0" type="qcurve" smooth="yes"/>
      <point x="148" y="0"/>
      <point x="148" y="343" type="qcurve" smooth="yes"/>
      <point x="147" y="355"/>
      <point x="147" y="366" type="qcurve" smooth="yes"/>
      <point x="147" y="519"/>
      <point x="276" y="582" type="qcurve"/>
      <point x="147" y="639"/>
      <point x="147" y="775" type="qcurve" smooth="yes"/>
      <point x="147" y="785"/>
      <point x="148" y="795" type="qcurve" smooth="yes"/>
      <point x="148" y="842" type="line" smooth="yes"/>
      <point x="148" y="1137"/>
      <point x="378" y="1140" type="qcurve"/>
      <point x="547" y="1126"/>
      <point x="547" y="990" type="qcurve" smooth="yes"/>
      <point x="547" y="976"/>
      <point x="545" y="961" type="qcurve" smooth="yes"/>
      <point x="545" y="820"/>
      <point x="397" y="820" type="qcurve" smooth="yes"/>
      <point x="314" y="822"/>
      <point x="281" y="876" type="qcurve"/>
      <point x="281" y="795" type="line" smooth="yes"/>
      <point x="280" y="782"/>
      <point x="280" y="771" type="qcurve" smooth="yes"/>
      <point x="280" y="704"/>
      <point x="329" y="678" type="qcurve" smooth="yes"/>
      <point x="386" y="648"/>
      <point x="467" y="648" type="qcurve" smooth="yes"/>
      <point x="547" y="648"/>
      <point x="547" y="580" type="qcurve" smooth="yes"/>
      <point x="546" y="512"/>
      <point x="466" y="512" type="qcurve" smooth="yes"/>
      <point x="385" y="512"/>
      <point x="328" y="482" type="qcurve" smooth="yes"/>
      <point x="280" y="456"/>
      <point x="280" y="374" type="qcurve" smooth="yes"/>
      <point x="280" y="360"/>
      <point x="281" y="344" type="qcurve" smooth="yes"/>
      <point x="281" y="340" type="line" smooth="yes"/>
      <point x="281" y="134"/>
      <point x="606" y="134" type="qcurve" smooth="yes"/>
      <point x="648" y="134" type="line" smooth="yes"/>
      <point x="977" y="134"/>
      <point x="977" y="350" type="qcurve" smooth="yes"/>
      <point x="977" y="1163" type="line"/>
      <point x="978" y="1163" type="line"/>
      <point x="978" y="1220"/>
      <point x="980" y="1261" type="qcurve" smooth="yes"/>
      <point x="981" y="1310"/>
      <point x="994" y="1395"/>
      <point x="1005" y="1430" type="qcurve" smooth="yes"/>
      <point x="1015" y="1465"/>
      <point x="1084" y="1465" type="qcurve" smooth="yes"/>
      <point x="1086" y="1465" type="line" smooth="yes"/>
      <point x="1147" y="1464"/>
      <point x="1147" y="1446" type="qcurve" smooth="yes"/>
      <point x="1147" y="1443"/>
      <point x="1145" y="1440" type="qcurve" smooth="yes"/>
      <point x="1133" y="1416"/>
      <point x="1118" y="1328"/>
      <point x="1110" y="1218"/>
      <point x="1110" y="1145" type="qcurve" smooth="yes"/>
    </contour>
  </outline>
</glyph>
<glyph name="uni0EA3" format="1">
  <advance width="1304"/>
  <unicode hex="0EA3"/>
  <outline>
    <contour>
      <point x="386" y="424" type="qcurve" smooth="yes"/>
      <point x="318" y="424"/>
      <point x="318" y="357" type="qcurve" smooth="yes"/>
      <point x="318" y="289"/>
      <point x="386" y="289" type="qcurve" smooth="yes"/>
      <point x="453" y="289"/>
      <point x="453" y="357" type="qcurve" smooth="yes"/>
      <point x="453" y="424"/>
    </contour>
    <contour>
      <point x="519" y="1139" type="qcurve" smooth="yes"/>
      <point x="535" y="1140"/>
      <point x="554" y="1140" type="qcurve" smooth="yes"/>
      <point x="581" y="1140"/>
      <point x="614" y="1138" type="qcurve" smooth="yes"/>
      <point x="667" y="1135"/>
      <point x="800" y="1119"/>
      <point x="925" y="1093"/>
      <point x="1034" y="1049"/>
      <point x="1126" y="972"/>
      <point x="1142" y="935" type="qcurve" smooth="yes"/>
      <point x="1145" y="926"/>
      <point x="1145" y="918" type="qcurve" smooth="yes"/>
      <point x="1145" y="889"/>
      <point x="1104" y="861" type="qcurve" smooth="yes"/>
      <point x="1076" y="842"/>
      <point x="1060" y="842" type="qcurve" smooth="yes"/>
      <point x="1045" y="842"/>
      <point x="1040" y="859" type="qcurve" smooth="yes"/>
      <point x="1030" y="893"/>
      <point x="956" y="933"/>
      <point x="863" y="972"/>
      <point x="764" y="984"/>
      <point x="612" y="1004"/>
      <point x="521" y="1005" type="qcurve"/>
      <point x="383" y="996"/>
      <point x="300" y="934"/>
      <point x="289" y="878" type="qcurve"/>
      <point x="289" y="865" type="line" smooth="yes"/>
      <point x="289" y="743"/>
      <point x="469" y="716" type="qcurve"/>
      <point x="776" y="656" type="line"/>
      <point x="1157" y="593"/>
      <point x="1157" y="336" type="qcurve" smooth="yes"/>
      <point x="1157" y="222"/>
      <point x="1111" y="161" type="qcurve" smooth="yes"/>
      <point x="1063" y="100"/>
      <point x="992" y="64" type="qcurve" smooth="yes"/>
      <point x="921" y="28"/>
      <point x="836" y="14" type="qcurve" smooth="yes"/>
      <point x="764" y="2"/>
      <point x="623" y="0" type="qcurve" smooth="yes"/>
      <point x="147" y="0"/>
      <point x="147" y="295" type="qcurve" smooth="yes"/>
      <point x="147" y="495"/>
      <point x="368" y="501" type="qcurve"/>
      <point x="547" y="499"/>
      <point x="547" y="369" type="qcurve" smooth="yes"/>
      <point x="547" y="357"/>
      <point x="545" y="343" type="qcurve" smooth="yes"/>
      <point x="545" y="206"/>
      <point x="377" y="206" type="qcurve" smooth="yes"/>
      <point x="326" y="206"/>
      <point x="286" y="246" type="qcurve"/>
      <point x="328" y="128"/>
      <point x="623" y="128" type="qcurve" smooth="yes"/>
      <point x="838" y="128"/>
      <point x="1019" y="230"/>
      <point x="1024" y="333" type="qcurve"/>
      <point x="1024" y="473"/>
      <point x="748" y="533" type="qcurve"/>
      <point x="444" y="587" type="line"/>
      <point x="147" y="635"/>
      <point x="147" y="858" type="qcurve"/>
      <point x="157" y="970"/>
      <point x="241" y="1066"/>
      <point x="325" y="1111"/>
      <point x="380" y="1126" type="qcurve"/>
      <point x="441" y="1134"/>
    </contour>
  </outline>
</glyph>
<glyph name="uni0EA5" format="1">
  <advance width="1325"/>
  <unicode hex="0EA5"/>
  <outline>
    <contour>
      <point x="407" y="85" type="qcurve" smooth="yes"/>
      <point x="481" y="85"/>
      <point x="481" y="154" type="qcurve" smooth="yes"/>
      <point x="481" y="223"/>
      <point x="407" y="223" type="qcurve" smooth="yes"/>
      <point x="332" y="223"/>
      <point x="332" y="154" type="qcurve" smooth="yes"/>
      <point x="332" y="85"/>
    </contour>
    <contour>
      <point x="935" y="0" type="qcurve" smooth="yes"/>
      <point x="876" y="0"/>
      <point x="753" y="79"/>
      <point x="673" y="273"/>
      <point x="549" y="370"/>
      <point x="478" y="375" type="qcurve" smooth="yes"/>
      <point x="465" y="376"/>
      <point x="453" y="376" type="qcurve" smooth="yes"/>
      <point x="317" y="376"/>
      <point x="300" y="281" type="qcurve"/>
      <point x="343" y="323"/>
      <point x="399" y="323" type="qcurve"/>
      <point x="583" y="303"/>
      <point x="583" y="182" type="qcurve" smooth="yes"/>
      <point x="585" y="165"/>
      <point x="585" y="150" type="qcurve" smooth="yes"/>
      <point x="585" y="2"/>
      <point x="389" y="0" type="qcurve"/>
      <point x="147" y="6"/>
      <point x="147" y="261" type="qcurve"/>
      <point x="169" y="507"/>
      <point x="457" y="507" type="qcurve" smooth="yes"/>
      <point x="471" y="507" type="line"/>
      <point x="591" y="493"/>
      <point x="771" y="387"/>
      <point x="879" y="141"/>
      <point x="935" y="141" type="qcurve" smooth="yes"/>
      <point x="1024" y="141"/>
      <point x="1024" y="200" type="qcurve" smooth="yes"/>
      <point x="1024" y="800" type="line" smooth="yes"/>
      <point x="1024" y="1005"/>
      <point x="676" y="1005" type="qcurve" smooth="yes"/>
      <point x="649" y="1005" type="line" smooth="yes"/>
      <point x="282" y="1005"/>
      <point x="281" y="831" type="qcurve" smooth="yes"/>
      <point x="281" y="800"/>
      <point x="214" y="800" type="qcurve" smooth="yes"/>
      <point x="147" y="800"/>
      <point x="147" y="831" type="qcurve" smooth="yes"/>
      <point x="147" y="1140"/>
      <point x="652" y="1140" type="qcurve" smooth="yes"/>
      <point x="1157" y="1140"/>
      <point x="1157" y="799" type="qcurve" smooth="yes"/>
      <point x="1157" y="200" type="line" smooth="yes"/>
      <point x="1157" y="0"/>
    </contour>
  </outline>
</glyph>
<glyph name="uni0EA7" format="1">
  <advance width="1325"/>
  <unicode hex="0EA7"/>
  <outline>
    <contour>
      <point x="388" y="418"/>
      <point x="357" y="418" type="qcurve" smooth="yes"/>
      <point x="324" y="418"/>
      <point x="282" y="378"/>
      <point x="282" y="350" type="qcurve" smooth="yes"/>
      <point x="282" y="319"/>
      <point x="324" y="282"/>
      <point x="357" y="282" type="qcurve" smooth="yes"/>
      <point x="388" y="282"/>
      <point x="429" y="319"/>
      <point x="429" y="350" type="qcurve"/>
      <point x="427" y="352" type="line"/>
      <point x="427" y="380"/>
    </contour>
    <contour>
      <point x="621" y="127" type="qcurve" smooth="yes"/>
      <point x="687" y="127"/>
      <point x="833" y="150"/>
      <point x="950" y="208"/>
      <point x="1024" y="315"/>
      <point x="1024" y="400" type="qcurve" smooth="yes"/>
      <point x="1024" y="714" type="line" smooth="yes"/>
      <point x="1024" y="795"/>
      <point x="954" y="908"/>
      <point x="839" y="978"/>
      <point x="698" y="1009"/>
      <point x="629" y="1009" type="qcurve" smooth="yes"/>
      <point x="586" y="1009"/>
      <point x="465" y="993"/>
      <point x="357" y="949"/>
      <point x="283" y="874"/>
      <point x="271" y="818"/>
      <point x="209" y="817" type="qcurve" smooth="yes"/>
      <point x="206" y="817" type="line" smooth="yes"/>
      <point x="147" y="817"/>
      <point x="147" y="861" type="qcurve" smooth="yes"/>
      <point x="147" y="906"/>
      <point x="243" y="1032"/>
      <point x="385" y="1106"/>
      <point x="557" y="1140"/>
      <point x="633" y="1140" type="qcurve" smooth="yes"/>
      <point x="732" y="1140"/>
      <point x="921" y="1094"/>
      <point x="1067" y="993"/>
      <point x="1157" y="834"/>
      <point x="1157" y="722" type="qcurve" smooth="yes"/>
      <point x="1157" y="389" type="line" smooth="yes"/>
      <point x="1157" y="279"/>
      <point x="1063" y="129"/>
      <point x="915" y="38"/>
      <point x="724" y="0"/>
      <point x="629" y="0" type="qcurve" smooth="yes"/>
      <point x="539" y="0"/>
      <point x="358" y="59"/>
      <point x="300" y="94" type="qcurve" smooth="yes"/>
      <point x="235" y="131"/>
      <point x="147" y="252"/>
      <point x="147" y="337" type="qcurve" smooth="yes"/>
      <point x="147" y="419"/>
      <point x="242" y="526"/>
      <point x="325" y="538" type="qcurve"/>
      <point x="389" y="537"/>
      <point x="471" y="499"/>
      <point x="521" y="440"/>
      <point x="539" y="372"/>
      <point x="539" y="341" type="qcurve" smooth="yes"/>
      <point x="537" y="281"/>
      <point x="475" y="187"/>
      <point x="398" y="176" type="qcurve"/>
      <point x="434" y="153"/>
      <point x="562" y="127"/>
    </contour>
  </outline>
</glyph>
<glyph name="uni0EAA" format="1">
  <advance width="1325"/>
  <unicode hex="0EAA"/>
  <outline>
    <contour>
      <point x="474" y="161" type="qcurve" smooth="yes"/>
      <point x="474" y="230"/>
      <point x="400" y="230" type="qcurve" smooth="yes"/>
      <point x="325" y="230"/>
      <point x="325" y="161" type="qcurve" smooth="yes"/>
      <point x="325" y="92"/>
      <point x="400" y="92" type="qcurve" smooth="yes"/>
      <point x="474" y="92"/>
    </contour>
    <contour>
      <point x="1090" y="984" type="qcurve"/>
      <point x="1157" y="903"/>
      <point x="1157" y="780" type="qcurve" smooth="yes"/>
      <point x="1157" y="200" type="line" smooth="yes"/>
      <point x="1157" y="0"/>
      <point x="934" y="0" type="qcurve" smooth="yes"/>
      <point x="876" y="0"/>
      <point x="815" y="50" type="qcurve" smooth="yes"/>
      <point x="753" y="99"/>
      <point x="713" y="196" type="qcurve" smooth="yes"/>
      <point x="673" y="293"/>
      <point x="616" y="337" type="qcurve" smooth="yes"/>
      <point x="559" y="380"/>
      <point x="478" y="380" type="qcurve" smooth="yes"/>
      <point x="314" y="380"/>
      <point x="300" y="281" type="qcurve"/>
      <point x="343" y="323"/>
      <point x="400" y="323" type="qcurve" smooth="yes"/>
      <point x="583" y="313"/>
      <point x="583" y="182" type="qcurve" smooth="yes"/>
      <point x="585" y="166"/>
      <point x="585" y="151" type="qcurve" smooth="yes"/>
      <point x="585" y="2"/>
      <point x="389" y="0" type="qcurve"/>
      <point x="147" y="6"/>
      <point x="147" y="251" type="qcurve"/>
      <point x="166" y="498"/>
      <point x="478" y="513" type="qcurve"/>
      <point x="590" y="513"/>
      <point x="681" y="455" type="qcurve" smooth="yes"/>
      <point x="771" y="397"/>
      <point x="825" y="269" type="qcurve" smooth="yes"/>
      <point x="879" y="141"/>
      <point x="934" y="141" type="qcurve" smooth="yes"/>
      <point x="1024" y="141"/>
      <point x="1024" y="200" type="qcurve" smooth="yes"/>
      <point x="1024" y="780" type="line" smooth="yes"/>
      <point x="1024" y="811"/>
      <point x="1010" y="848" type="qcurve"/>
      <point x="828" y="667"/>
      <point x="535" y="667" type="qcurve" smooth="yes"/>
      <point x="147" y="667"/>
      <point x="147" y="900" type="qcurve" smooth="yes"/>
      <point x="147" y="1140"/>
      <point x="574" y="1140" type="qcurve" smooth="yes"/>
      <point x="585" y="1140" type="line" smooth="yes"/>
      <point x="834" y="1140"/>
      <point x="975" y="1071" type="qcurve"/>
      <point x="1011" y="1167"/>
      <point x="1018" y="1187" type="qcurve" smooth="yes"/>
      <point x="1021" y="1199"/>
      <point x="1045" y="1199" type="qcurve" smooth="yes"/>
      <point x="1063" y="1199"/>
      <point x="1091" y="1193" type="qcurve" smooth="yes"/>
      <point x="1149" y="1180"/>
      <point x="1149" y="1159" type="qcurve" smooth="yes"/>
      <point x="1149" y="1156"/>
      <point x="1148" y="1153" type="qcurve" smooth="yes"/>
      <point x="1138" y="1127"/>
    </contour>
    <contour>
      <point x="896" y="950" type="qcurve"/>
      <point x="790" y="1006"/>
      <point x="573" y="1006" type="qcurve" smooth="yes"/>
      <point x="285" y="1006"/>
      <point x="285" y="900" type="qcurve" smooth="yes"/>
      <point x="285" y="798"/>
      <point x="531" y="798" type="qcurve" smooth="yes"/>
      <point x="763" y="798"/>
    </contour>
  </outline>
</glyph>
<glyph name="uni0EAE" format="1">
  <advance width="1304"/>
  <unicode hex="0EAE"/>
  <outline>
    <contour>
      <point x="378" y="296" type="qcurve" smooth="yes"/>
      <point x="445" y="296"/>
      <point x="445" y="364" type="qcurve" smooth="yes"/>
      <point x="445" y="431"/>
      <point x="378" y="431" type="qcurve" smooth="yes"/>
      <point x="310" y="431"/>
      <point x="310" y="364" type="qcurve" smooth="yes"/>
      <point x="310" y="296"/>
    </contour>
    <contour>
      <point x="414" y="1140" type="qcurve" smooth="yes"/>
      <point x="519" y="1140"/>
      <point x="733" y="1051"/>
      <point x="794" y="1051" type="qcurve" smooth="yes"/>
      <point x="913" y="1051"/>
      <point x="1023" y="1115"/>
      <point x="1023" y="1128" type="qcurve" smooth="yes"/>
      <point x="1023" y="1140"/>
      <point x="1089" y="1140" type="qcurve" smooth="yes"/>
      <point x="1154" y="1140"/>
      <point x="1154" y="1102" type="qcurve" smooth="yes"/>
      <point x="1154" y="1063"/>
      <point x="959" y="922"/>
      <point x="792" y="922" type="qcurve"/>
      <point x="672" y="932"/>
      <point x="474" y="1010"/>
      <point x="412" y="1010" type="qcurve" smooth="yes"/>
      <point x="361" y="1010"/>
      <point x="280" y="943"/>
      <point x="279" y="877" type="qcurve" smooth="yes"/>
      <point x="279" y="763"/>
      <point x="469" y="735" type="qcurve"/>
      <point x="776" y="675" type="line"/>
      <point x="1157" y="612"/>
      <point x="1157" y="336" type="qcurve" smooth="yes"/>
      <point x="1157" y="222"/>
      <point x="1111" y="161" type="qcurve" smooth="yes"/>
      <point x="1063" y="100"/>
      <point x="992" y="64" type="qcurve" smooth="yes"/>
      <point x="921" y="28"/>
      <point x="836" y="14" type="qcurve" smooth="yes"/>
      <point x="764" y="2"/>
      <point x="623" y="0" type="qcurve" smooth="yes"/>
      <point x="147" y="0"/>
      <point x="147" y="295" type="qcurve" smooth="yes"/>
      <point x="147" y="514"/>
      <point x="368" y="520" type="qcurve"/>
      <point x="547" y="518"/>
      <point x="547" y="373" type="qcurve" smooth="yes"/>
      <point x="547" y="358"/>
      <point x="545" y="343" type="qcurve" smooth="yes"/>
      <point x="545" y="206"/>
      <point x="377" y="206" type="qcurve" smooth="yes"/>
      <point x="326" y="206"/>
      <point x="286" y="246" type="qcurve"/>
      <point x="328" y="128"/>
      <point x="623" y="128" type="qcurve" smooth="yes"/>
      <point x="838" y="128"/>
      <point x="1019" y="230"/>
      <point x="1024" y="333" type="qcurve"/>
      <point x="1024" y="473"/>
      <point x="748" y="552" type="qcurve"/>
      <point x="444" y="606" type="line"/>
      <point x="147" y="654"/>
      <point x="147" y="877" type="qcurve" smooth="yes"/>
      <point x="147" y="999"/>
      <point x="315" y="1140"/>
    </contour>
  </outline>
</glyph>
<glyph name="uni0EAF" format="1">
  <advance width="1304"/>
  <unicode hex="0EAF"/>
  <outline>
    <contour>
      <point x="385" y="1049" type="qcurve" smooth="yes"/>
      <point x="315" y="1049"/>
      <point x="315" y="980" type="qcurve" smooth="yes"/>
      <point x="315" y="911"/>
      <point x="385" y="911" type="qcurve" smooth="yes"/>
      <point x="455" y="911"/>
      <point x="455" y="980" type="qcurve" smooth="yes"/>
      <point x="455" y="1049"/>
    </contour>
    <contour>
      <point x="490" y="681" type="qcurve" smooth="yes"/>
      <point x="601" y="681"/>
      <point x="936" y="925"/>
      <point x="1023" y="1141" type="qcurve"/>
      <point x="1157" y="1069" type="line"/>
      <point x="451" y="-416" type="line"/>
      <point x="349" y="-348" type="line"/>
      <point x="874" y="752" type="line"/>
      <point x="701" y="558"/>
      <point x="490" y="558" type="qcurve" smooth="yes"/>
      <point x="147" y="558"/>
      <point x="147" y="880" type="qcurve" smooth="yes"/>
      <point x="147" y="1135"/>
      <point x="347" y="1141" type="qcurve"/>
      <point x="548" y="1139"/>
      <point x="548" y="985" type="qcurve" smooth="yes"/>
      <point x="548" y="973"/>
      <point x="547" y="959" type="qcurve" smooth="yes"/>
      <point x="547" y="818"/>
      <point x="355" y="818" type="qcurve" smooth="yes"/>
      <point x="309" y="818"/>
      <point x="273" y="860" type="qcurve"/>
      <point x="285" y="681"/>
    </contour>
  </outline>
</glyph>
<glyph name="uni0EB0" format="1">
  <advance width="1131"/>
  <unicode hex="0EB0"/>
  <outline>
    <contour>
      <point x="290" y="864"/>
      <point x="321" y="864" type="qcurve" smooth="yes"/>
      <point x="352" y="864"/>
      <point x="385" y="898"/>
      <point x="385" y="926" type="qcurve" smooth="yes"/>
      <point x="385" y="954"/>
      <point x="348" y="989"/>
      <point x="319" y="989" type="qcurve" smooth="yes"/>
      <point x="287" y="989"/>
      <point x="254" y="955"/>
      <point x="254" y="927" type="qcurve" smooth="yes"/>
      <point x="254" y="900"/>
    </contour>
    <contour>
      <point x="199" y="813" type="qcurve" smooth="yes"/>
      <point x="147" y="875"/>
      <point x="147" y="934" type="qcurve" smooth="yes"/>
      <point x="147" y="944" type="line"/>
      <point x="152" y="1008"/>
      <point x="236" y="1086"/>
      <point x="286" y="1090" type="qcurve" smooth="yes"/>
      <point x="297" y="1091"/>
      <point x="307" y="1091" type="qcurve" smooth="yes"/>
      <point x="345" y="1091"/>
      <point x="379" y="1080" type="qcurve" smooth="yes"/>
      <point x="422" y="1066"/>
      <point x="469" y="1008"/>
      <point x="478" y="979" type="qcurve" smooth="yes"/>
      <point x="486" y="953"/>
      <point x="486" y="926" type="qcurve" smooth="yes"/>
      <point x="486" y="920" type="line" smooth="yes"/>
      <point x="485" y="890"/>
      <point x="462" y="832"/>
      <point x="432" y="805" type="qcurve"/>
      <point x="468" y="786"/>
      <point x="532" y="786" type="qcurve" smooth="yes"/>
      <point x="544" y="786"/>
      <point x="556" y="787" type="qcurve" smooth="yes"/>
      <point x="656" y="791"/>
      <point x="730" y="846" type="qcurve" smooth="yes"/>
      <point x="831" y="919"/>
      <point x="853" y="1081" type="qcurve"/>
      <point x="984" y="1081" type="line"/>
      <point x="947" y="886"/>
      <point x="730" y="684"/>
      <point x="550" y="684" type="qcurve" smooth="yes"/>
      <point x="469" y="684"/>
      <point x="255" y="746"/>
    </contour>
    <contour>
      <point x="290" y="220"/>
      <point x="321" y="220" type="qcurve" smooth="yes"/>
      <point x="352" y="220"/>
      <point x="385" y="254"/>
      <point x="385" y="282" type="qcurve" smooth="yes"/>
      <point x="385" y="310"/>
      <point x="348" y="345"/>
      <point x="319" y="345" type="qcurve" smooth="yes"/>
      <point x="287" y="345"/>
      <point x="254" y="311"/>
      <point x="254" y="283" type="qcurve" smooth="yes"/>
      <point x="254" y="256"/>
    </contour>
    <contour>
      <point x="199" y="169" type="qcurve" smooth="yes"/>
      <point x="147" y="231"/>
      <point x="147" y="290" type="qcurve" smooth="yes"/>
      <point x="147" y="300" type="line"/>
      <point x="152" y="364"/>
      <point x="236" y="442"/>
      <point x="286" y="446" type="qcurve" smooth="yes"/>
      <point x="297" y="447"/>
      <point x="307" y="447" type="qcurve" smooth="yes"/>
      <point x="345" y="447"/>
      <point x="379" y="436" type="qcurve" smooth="yes"/>
      <point x="422" y="422"/>
      <point x="469" y="364"/>
      <point x="478" y="335" type="qcurve" smooth="yes"/>
      <point x="486" y="309"/>
      <point x="486" y="282" type="qcurve" smooth="yes"/>
      <point x="486" y="276" type="line" smooth="yes"/>
      <point x="485" y="246"/>
      <point x="462" y="188"/>
      <point x="432" y="161" type="qcurve"/>
      <point x="468" y="142"/>
      <point x="532" y="142" type="qcurve" smooth="yes"/>
      <point x="544" y="142"/>
      <point x="556" y="143" type="qcurve" smooth="yes"/>
      <point x="656" y="147"/>
      <point x="730" y="202" type="qcurve" smooth="yes"/>
      <point x="831" y="275"/>
      <point x="853" y="437" type="qcurve"/>
      <point x="984" y="437" type="line"/>
      <point x="947" y="242"/>
      <point x="730" y="40"/>
      <point x="550" y="40" type="qcurve" smooth="yes"/>
      <point x="469" y="40"/>
      <point x="255" y="102"/>
    </contour>
  </outline>
</glyph>
<glyph name="uni0EB1" format="1">
  <advance width="0"/>
  <unicode hex="0EB1"/>
  <outline>
    <contour>
      <point x="-688" y="1483" type="qcurve" smooth="yes"/>
      <point x="-688" y="1517"/>
      <point x="-728" y="1543"/>
      <point x="-751" y="1543" type="qcurve" smooth="yes"/>
      <point x="-778" y="1543"/>
      <point x="-813" y="1505"/>
      <point x="-813" y="1487" type="qcurve" smooth="yes"/>
      <point x="-813" y="1468"/>
      <point x="-778" y="1427"/>
      <point x="-749" y="1427" type="qcurve" smooth="yes"/>
      <point x="-726" y="1427"/>
      <point x="-688" y="1461"/>
    </contour>
    <contour>
      <point x="-84" y="1633" type="line"/>
      <point x="-108" y="1448"/>
      <point x="-303" y="1295"/>
      <point x="-494" y="1294" type="qcurve" smooth="yes"/>
      <point x="-496" y="1294" type="line" smooth="yes"/>
      <point x="-516" y="1294"/>
      <point x="-557" y="1293" type="qcurve" smooth="yes"/>
      <point x="-571" y="1292"/>
      <point x="-587" y="1292" type="qcurve" smooth="yes"/>
      <point x="-615" y="1292"/>
      <point x="-645" y="1294" type="qcurve" smooth="yes"/>
      <point x="-693" y="1296"/>
      <point x="-797" y="1318"/>
      <point x="-880" y="1363"/>
      <point x="-908" y="1405" type="qcurve" smooth="yes"/>
      <point x="-934" y="1443"/>
      <point x="-934" y="1492" type="qcurve" smooth="yes"/>
      <point x="-934" y="1502" type="line" smooth="yes"/>
      <point x="-932" y="1544"/>
      <point x="-898" y="1597"/>
      <point x="-845" y="1636"/>
      <point x="-789" y="1652"/>
      <point x="-768" y="1652" type="qcurve" smooth="yes"/>
      <point x="-762" y="1652"/>
      <point x="-717" y="1650"/>
      <point x="-663" y="1636"/>
      <point x="-605" y="1597"/>
      <point x="-582" y="1558"/>
      <point x="-569" y="1528"/>
      <point x="-567" y="1507" type="qcurve" smooth="yes"/>
      <point x="-567" y="1497" type="line" smooth="yes"/>
      <point x="-567" y="1480"/>
      <point x="-571" y="1464" type="qcurve" smooth="yes"/>
      <point x="-577" y="1442"/>
      <point x="-595" y="1419" type="qcurve" smooth="yes"/>
      <point x="-595" y="1416"/>
      <point x="-543" y="1416" type="qcurve" smooth="yes"/>
      <point x="-512" y="1416"/>
      <point x="-463" y="1417" type="qcurve" smooth="yes"/>
      <point x="-427" y="1417"/>
      <point x="-354" y="1429"/>
      <point x="-291" y="1464"/>
      <point x="-238" y="1555"/>
      <point x="-219" y="1631" type="qcurve"/>
    </contour>
  </outline>
</glyph>
<glyph name="uni0EB3" format="1">
  <advance width="828"/>
  <unicode hex="0EB3"/>
  <outline>
    <contour>
      <point x="-347" y="1229"/>
      <point x="-439" y="1229" type="qcurve" smooth="yes"/>
      <point x="-482" y="1229"/>
      <point x="-564" y="1261"/>
      <point x="-626" y="1321"/>
      <point x="-663" y="1403"/>
      <point x="-663" y="1444" type="qcurve" smooth="yes"/>
      <point x="-663" y="1489"/>
      <point x="-628" y="1571"/>
      <point x="-566" y="1632"/>
      <point x="-487" y="1667"/>
      <point x="-439" y="1667" type="qcurve" smooth="yes"/>
      <point x="-401" y="1667"/>
      <point x="-321" y="1634"/>
      <point x="-259" y="1577"/>
      <point x="-240" y="1535" type="qcurve" smooth="yes"/>
      <point x="-224" y="1497"/>
      <point x="-224" y="1454" type="qcurve" smooth="yes"/>
      <point x="-224" y="1444" type="line" smooth="yes"/>
      <point x="-224" y="1352"/>
    </contour>
    <contour>
      <point x="-363" y="1447" type="qcurve" smooth="yes"/>
      <point x="-363" y="1527"/>
      <point x="-442" y="1527" type="qcurve" smooth="yes"/>
      <point x="-521" y="1527"/>
      <point x="-521" y="1447" type="qcurve" smooth="yes"/>
      <point x="-521" y="1367"/>
      <point x="-442" y="1367" type="qcurve" smooth="yes"/>
      <point x="-363" y="1367"/>
    </contour>
    <contour>
      <point x="377" y="902" type="qcurve" smooth="yes"/>
      <point x="377" y="972"/>
      <point x="308" y="972" type="qcurve" smooth="yes"/>
      <point x="239" y="972"/>
      <point x="239" y="902" type="qcurve" smooth="yes"/>
      <point x="239" y="832"/>
      <point x="308" y="832" type="qcurve" smooth="yes"/>
      <point x="377" y="832"/>
    </contour>
    <contour>
      <point x="599" y="0" type="qcurve" smooth="yes"/>
      <point x="537" y="0"/>
      <point x="537" y="34" type="qcurve" smooth="yes"/>
      <point x="537" y="828" type="line" smooth="yes"/>
      <point x="537" y="983"/>
      <point x="428" y="996" type="qcurve"/>
      <point x="470" y="955"/>
      <point x="470" y="902" type="qcurve" smooth="yes"/>
      <point x="470" y="729"/>
      <point x="329" y="729" type="qcurve" smooth="yes"/>
      <point x="313" y="727"/>
      <point x="298" y="727" type="qcurve" smooth="yes"/>
      <point x="149" y="727"/>
      <point x="147" y="912" type="qcurve"/>
      <point x="153" y="1140"/>
      <point x="378" y="1140" type="qcurve" smooth="yes"/>
      <point x="660" y="1140"/>
      <point x="660" y="825" type="qcurve" smooth="yes"/>
      <point x="660" y="34" type="line" smooth="yes"/>
      <point x="660" y="0"/>
    </contour>
  </outline>
</glyph>
<glyph name="uni0EB4" format="1">
  <advance width="0"/>
  <unicode hex="0EB4"/>
  <outline>
    <contour>
      <point x="-544" y="1340" type="qcurve"/>
      <point x="-540" y="1369"/>
      <point x="-507" y="1389"/>
      <point x="-460" y="1409" type="qcurve"/>
      <point x="-414" y="1434"/>
      <point x="-383" y="1465" type="qcurve" smooth="yes"/>
      <point x="-362" y="1485"/>
      <point x="-362" y="1510" type="qcurve" smooth="yes"/>
      <point x="-362" y="1522"/>
      <point x="-367" y="1536" type="qcurve" smooth="yes"/>
      <point x="-382" y="1576"/>
      <point x="-456" y="1604" type="qcurve" smooth="yes"/>
      <point x="-528" y="1631"/>
      <point x="-659" y="1631" type="qcurve" smooth="yes"/>
      <point x="-680" y="1631" type="line" smooth="yes"/>
      <point x="-812" y="1631"/>
      <point x="-875" y="1610" type="qcurve" smooth="yes"/>
      <point x="-942" y="1587"/>
      <point x="-959" y="1544" type="qcurve" smooth="yes"/>
      <point x="-965" y="1528"/>
      <point x="-965" y="1513" type="qcurve" smooth="yes"/>
      <point x="-965" y="1489"/>
      <point x="-948" y="1469" type="qcurve" smooth="yes"/>
      <point x="-921" y="1436"/>
      <point x="-883" y="1414" type="qcurve"/>
      <point x="-821" y="1389"/>
      <point x="-790" y="1363"/>
      <point x="-788" y="1344" type="qcurve" smooth="yes"/>
      <point x="-793" y="1292"/>
      <point x="-858" y="1292" type="qcurve" smooth="yes"/>
      <point x="-869" y="1292"/>
      <point x="-883" y="1294" type="qcurve" smooth="yes"/>
      <point x="-937" y="1311"/>
      <point x="-1012" y="1357"/>
      <point x="-1075" y="1415"/>
      <point x="-1099" y="1473"/>
      <point x="-1104" y="1518" type="qcurve"/>
      <point x="-1104" y="1570"/>
      <point x="-1008" y="1682"/>
      <point x="-822" y="1736"/>
      <point x="-668" y="1742" type="qcurve"/>
      <point x="-517" y="1736"/>
      <point x="-318" y="1684"/>
      <point x="-217" y="1562"/>
      <point x="-216" y="1517" type="qcurve" smooth="yes"/>
      <point x="-216" y="1468"/>
      <point x="-258" y="1403"/>
      <point x="-316" y="1355"/>
      <point x="-387" y="1307"/>
      <point x="-460" y="1292" type="qcurve"/>
      <point x="-544" y="1292"/>
    </contour>
  </outline>
</glyph>
<glyph name="uni0EB5" format="1">
  <advance width="0"/>
  <unicode hex="0EB5"/>
  <outline>
    <contour>
      <point x="-176" y="1292" type="line"/>
      <point x="-477" y="1292" type="line" smooth="yes"/>
      <point x="-559" y="1292"/>
      <point x="-559" y="1343" type="qcurve" smooth="yes"/>
      <point x="-556" y="1370"/>
      <point x="-522" y="1392"/>
      <point x="-477" y="1411" type="qcurve"/>
      <point x="-431" y="1437"/>
      <point x="-401" y="1468" type="qcurve" smooth="yes"/>
      <point x="-382" y="1488"/>
      <point x="-382" y="1511" type="qcurve" smooth="yes"/>
      <point x="-382" y="1523"/>
      <point x="-387" y="1536" type="qcurve" smooth="yes"/>
      <point x="-403" y="1572"/>
      <point x="-474" y="1601" type="qcurve" smooth="yes"/>
      <point x="-541" y="1628"/>
      <point x="-661" y="1628" type="qcurve" smooth="yes"/>
      <point x="-699" y="1628" type="line" smooth="yes"/>
      <point x="-822" y="1628"/>
      <point x="-881" y="1607" type="qcurve" smooth="yes"/>
      <point x="-945" y="1583"/>
      <point x="-961" y="1544" type="qcurve" smooth="yes"/>
      <point x="-968" y="1529"/>
      <point x="-968" y="1515" type="qcurve" smooth="yes"/>
      <point x="-968" y="1492"/>
      <point x="-951" y="1472" type="qcurve" smooth="yes"/>
      <point x="-925" y="1439"/>
      <point x="-888" y="1416" type="qcurve"/>
      <point x="-828" y="1391"/>
      <point x="-798" y="1364"/>
      <point x="-796" y="1346" type="qcurve" smooth="yes"/>
      <point x="-801" y="1292"/>
      <point x="-864" y="1292" type="qcurve" smooth="yes"/>
      <point x="-875" y="1292"/>
      <point x="-888" y="1294" type="qcurve" smooth="yes"/>
      <point x="-941" y="1311"/>
      <point x="-1014" y="1358"/>
      <point x="-1075" y="1417"/>
      <point x="-1099" y="1478"/>
      <point x="-1104" y="1523" type="qcurve"/>
      <point x="-1104" y="1567"/>
      <point x="-1010" y="1680"/>
      <point x="-829" y="1735"/>
      <point x="-678" y="1742" type="qcurve"/>
      <point x="-532" y="1735"/>
      <point x="-339" y="1681"/>
      <point x="-242" y="1558"/>
      <point x="-241" y="1522" type="qcurve" smooth="yes"/>
      <point x="-241" y="1471"/>
      <point x="-273" y="1424"/>
      <point x="-322" y="1381" type="qcurve"/>
      <point x="-176" y="1381" type="line"/>
    </contour>
  </outline>
</glyph>
<glyph name="uni0EB6" format="1">
  <advance width="0"/>
  <unicode hex="0EB6"/>
  <outline>
    <contour>
      <point x="-544" y="1340" type="qcurve"/>
      <point x="-540" y="1369"/>
      <point x="-507" y="1389"/>
      <point x="-460" y="1409" type="qcurve"/>
      <point x="-414" y="1434"/>
      <point x="-383" y="1465" type="qcurve" smooth="yes"/>
      <point x="-362" y="1485"/>
      <point x="-362" y="1510" type="qcurve" smooth="yes"/>
      <point x="-362" y="1522"/>
      <point x="-367" y="1536" type="qcurve" smooth="yes"/>
      <point x="-382" y="1576"/>
      <point x="-456" y="1604" type="qcurve" smooth="yes"/>
      <point x="-526" y="1630"/>
      <point x="-650" y="1630" type="qcurve" smooth="yes"/>
      <point x="-690" y="1630" type="line" smooth="yes"/>
      <point x="-814" y="1630"/>
      <point x="-875" y="1610" type="qcurve" smooth="yes"/>
      <point x="-942" y="1587"/>
      <point x="-959" y="1544" type="qcurve" smooth="yes"/>
      <point x="-965" y="1528"/>
      <point x="-965" y="1513" type="qcurve" smooth="yes"/>
      <point x="-965" y="1489"/>
      <point x="-948" y="1469" type="qcurve" smooth="yes"/>
      <point x="-921" y="1436"/>
      <point x="-883" y="1414" type="qcurve"/>
      <point x="-821" y="1389"/>
      <point x="-790" y="1363"/>
      <point x="-788" y="1344" type="qcurve" smooth="yes"/>
      <point x="-793" y="1292"/>
      <point x="-858" y="1292" type="qcurve" smooth="yes"/>
      <point x="-869" y="1292"/>
      <point x="-883" y="1294" type="qcurve" smooth="yes"/>
      <point x="-937" y="1311"/>
      <point x="-1012" y="1357"/>
      <point x="-1075" y="1416"/>
      <point x="-1099" y="1473"/>
      <point x="-1104" y="1519" type="qcurve"/>
      <point x="-1104" y="1561"/>
      <point x="-1008" y="1682"/>
      <point x="-822" y="1736"/>
      <point x="-668" y="1742" type="qcurve"/>
      <point x="-517" y="1736"/>
      <point x="-324" y="1682"/>
      <point x="-233" y="1553"/>
      <point x="-232" y="1517" type="qcurve" smooth="yes"/>
      <point x="-232" y="1469"/>
      <point x="-264" y="1403"/>
      <point x="-316" y="1355"/>
      <point x="-387" y="1307"/>
      <point x="-460" y="1292" type="qcurve"/>
      <point x="-544" y="1292"/>
    </contour>
    <contour>
      <point x="-702" y="1561"/>
      <point x="-664" y="1561" type="qcurve" smooth="yes"/>
      <point x="-626" y="1561"/>
      <point x="-570" y="1517"/>
      <point x="-570" y="1487" type="qcurve" smooth="yes"/>
      <point x="-570" y="1454"/>
      <point x="-626" y="1409"/>
      <point x="-664" y="1409" type="qcurve" smooth="yes"/>
      <point x="-702" y="1409"/>
      <point x="-757" y="1454"/>
      <point x="-757" y="1487" type="qcurve" smooth="yes"/>
      <point x="-757" y="1517"/>
    </contour>
  </outline>
</glyph>
<glyph name="uni0EB8" format="1">
  <advance width="0"/>
  <unicode hex="0EB8"/>
  <outline>
    <contour>
      <point x="-408" y="-221" type="qcurve" smooth="yes"/>
      <point x="-408" y="-204"/>
      <point x="-436" y="-180"/>
      <point x="-452" y="-180" type="qcurve" smooth="yes"/>
      <point x="-471" y="-180"/>
      <point x="-486" y="-192" type="qcurve" smooth="yes"/>
      <point x="-500" y="-204"/>
      <point x="-500" y="-220" type="qcurve" smooth="yes"/>
      <point x="-500" y="-222" type="line" smooth="yes"/>
      <point x="-500" y="-236"/>
      <point x="-471" y="-264"/>
      <point x="-452" y="-264" type="qcurve" smooth="yes"/>
      <point x="-436" y="-264"/>
      <point x="-408" y="-235"/>
    </contour>
    <contour>
      <point x="-279" y="-308" type="qcurve"/>
      <point x="-280" y="-308" type="line"/>
      <point x="-293" y="-342"/>
      <point x="-310" y="-370"/>
      <point x="-339" y="-404"/>
      <point x="-376" y="-440"/>
      <point x="-435" y="-478" type="qcurve"/>
      <point x="-551" y="-421" type="line"/>
      <point x="-504" y="-401"/>
      <point x="-441" y="-342"/>
      <point x="-431" y="-318" type="qcurve"/>
      <point x="-466" y="-327"/>
      <point x="-485" y="-328" type="qcurve" smooth="yes"/>
      <point x="-488" y="-328" type="line" smooth="yes"/>
      <point x="-507" y="-328"/>
      <point x="-537" y="-316" type="qcurve" smooth="yes"/>
      <point x="-585" y="-294"/>
      <point x="-607" y="-243"/>
      <point x="-607" y="-204" type="qcurve"/>
      <point x="-595" y="-159"/>
      <point x="-567" y="-128"/>
      <point x="-523" y="-103"/>
      <point x="-485" y="-93"/>
      <point x="-435" y="-92" type="qcurve" smooth="yes"/>
      <point x="-430" y="-92" type="line" smooth="yes"/>
      <point x="-417" y="-92"/>
      <point x="-353" y="-115"/>
      <point x="-300" y="-156"/>
      <point x="-284" y="-197" type="qcurve" smooth="yes"/>
      <point x="-274" y="-221"/>
      <point x="-274" y="-256" type="qcurve" smooth="yes"/>
      <point x="-274" y="-279"/>
    </contour>
  </outline>
</glyph>
<glyph name="uni0EB9" format="1">
  <advance width="0"/>
  <unicode hex="0EB9"/>
  <outline>
    <contour>
      <point x="-623" y="-214"/>
      <point x="-623" y="-224" type="qcurve" smooth="yes"/>
      <point x="-623" y="-235"/>
      <point x="-612" y="-253"/>
      <point x="-594" y="-264"/>
      <point x="-561" y="-266" type="qcurve"/>
      <point x="-544" y="-243"/>
      <point x="-544" y="-224" type="qcurve" smooth="yes"/>
      <point x="-544" y="-214"/>
      <point x="-555" y="-195"/>
      <point x="-573" y="-184"/>
      <point x="-583" y="-184" type="qcurve" smooth="yes"/>
      <point x="-593" y="-184"/>
      <point x="-612" y="-195"/>
    </contour>
    <contour>
      <point x="-489" y="-289" type="qcurve" smooth="yes"/>
      <point x="-499" y="-319"/>
      <point x="-499" y="-346" type="qcurve" smooth="yes"/>
      <point x="-499" y="-359"/>
      <point x="-497" y="-371" type="qcurve" smooth="yes"/>
      <point x="-490" y="-391"/>
      <point x="-454" y="-391" type="qcurve" smooth="yes"/>
      <point x="-419" y="-391"/>
      <point x="-419" y="-276" type="qcurve" smooth="yes"/>
      <point x="-419" y="-116" type="line"/>
      <point x="-309" y="-116" type="line"/>
      <point x="-309" y="-281" type="line" smooth="yes"/>
      <point x="-309" y="-487"/>
      <point x="-454" y="-487" type="qcurve" smooth="yes"/>
      <point x="-557" y="-487"/>
      <point x="-586" y="-422" type="qcurve" smooth="yes"/>
      <point x="-598" y="-395"/>
      <point x="-598" y="-369" type="qcurve" smooth="yes"/>
      <point x="-598" y="-347"/>
      <point x="-589" y="-326" type="qcurve"/>
      <point x="-616" y="-326"/>
      <point x="-641" y="-312" type="qcurve" smooth="yes"/>
      <point x="-668" y="-298"/>
      <point x="-699" y="-248"/>
      <point x="-699" y="-221" type="qcurve" smooth="yes"/>
      <point x="-699" y="-193"/>
      <point x="-668" y="-142"/>
      <point x="-614" y="-116"/>
      <point x="-586" y="-116" type="qcurve" smooth="yes"/>
      <point x="-557" y="-116"/>
      <point x="-504" y="-142"/>
      <point x="-474" y="-193"/>
      <point x="-474" y="-221" type="qcurve" smooth="yes"/>
      <point x="-474" y="-246"/>
    </contour>
  </outline>
</glyph>
<glyph name="uni0EBB" format="1">
  <advance width="0"/>
  <unicode hex="0EBB"/>
  <outline>
    <contour>
      <point x="-693" y="1454" type="qcurve"/>
      <point x="-703" y="1520"/>
      <point x="-756" y="1520" type="qcurve" smooth="yes"/>
      <point x="-778" y="1520"/>
      <point x="-803" y="1505"/>
      <point x="-816" y="1485"/>
      <point x="-820" y="1462"/>
      <point x="-820" y="1455" type="qcurve" smooth="yes"/>
      <point x="-820" y="1424"/>
      <point x="-800" y="1408" type="qcurve" smooth="yes"/>
      <point x="-783" y="1393"/>
      <point x="-764" y="1393" type="qcurve" smooth="yes"/>
      <point x="-759" y="1393" type="line" smooth="yes"/>
      <point x="-728" y="1393"/>
      <point x="-697" y="1426"/>
    </contour>
    <contour>
      <point x="-223" y="1292" type="line"/>
      <point x="-223" y="1298" type="line" smooth="yes"/>
      <point x="-223" y="1533"/>
      <point x="-462" y="1533" type="qcurve" smooth="yes"/>
      <point x="-621" y="1533" type="line"/>
      <point x="-601" y="1501"/>
      <point x="-593" y="1478" type="qcurve" smooth="yes"/>
      <point x="-590" y="1466"/>
      <point x="-590" y="1452" type="qcurve" smooth="yes"/>
      <point x="-590" y="1439"/>
      <point x="-593" y="1424" type="qcurve" smooth="yes"/>
      <point x="-601" y="1393"/>
      <point x="-638" y="1331"/>
      <point x="-678" y="1308"/>
      <point x="-706" y="1300" type="qcurve" smooth="yes"/>
      <point x="-733" y="1292"/>
      <point x="-760" y="1292" type="qcurve" smooth="yes"/>
      <point x="-762" y="1292"/>
      <point x="-764" y="1293" type="qcurve" smooth="yes"/>
      <point x="-794" y="1293"/>
      <point x="-863" y="1315"/>
      <point x="-899" y="1351"/>
      <point x="-912" y="1373" type="qcurve" smooth="yes"/>
      <point x="-934" y="1422"/>
      <point x="-934" y="1444" type="qcurve" smooth="yes"/>
      <point x="-934" y="1445" type="line" smooth="yes"/>
      <point x="-934" y="1465"/>
      <point x="-918" y="1538"/>
      <point x="-907" y="1549" type="qcurve" smooth="yes"/>
      <point x="-877" y="1598"/>
      <point x="-776" y="1640"/>
      <point x="-656" y="1652"/>
      <point x="-597" y="1652" type="qcurve" smooth="yes"/>
      <point x="-465" y="1652" type="line" smooth="yes"/>
      <point x="-102" y="1652"/>
      <point x="-84" y="1292" type="qcurve"/>
    </contour>
  </outline>
</glyph>
<glyph name="uni0EBC" format="1">
  <advance width="0"/>
  <unicode hex="0EBC"/>
  <outline>
    <contour>
      <point x="-918" y="-348" type="qcurve"/>
      <point x="-917" y="-348" type="line"/>
      <point x="-917" y="-354" type="line" smooth="yes"/>
      <point x="-917" y="-377"/>
      <point x="-898" y="-393" type="qcurve" smooth="yes"/>
      <point x="-877" y="-411"/>
      <point x="-851" y="-411" type="qcurve" smooth="yes"/>
      <point x="-827" y="-411"/>
      <point x="-806" y="-392" type="qcurve" smooth="yes"/>
      <point x="-787" y="-375"/>
      <point x="-787" y="-350" type="qcurve" smooth="yes"/>
      <point x="-787" y="-343" type="line" smooth="yes"/>
      <point x="-787" y="-312"/>
      <point x="-833" y="-267" type="qcurve"/>
      <point x="-874" y="-275"/>
      <point x="-914" y="-310"/>
    </contour>
    <contour>
      <point x="-731" y="-259" type="qcurve"/>
      <point x="-684" y="-309"/>
      <point x="-684" y="-354" type="qcurve" smooth="yes"/>
      <point x="-684" y="-359"/>
      <point x="-685" y="-364" type="qcurve" smooth="yes"/>
      <point x="-691" y="-414"/>
      <point x="-730" y="-456"/>
      <point x="-762" y="-480"/>
      <point x="-795" y="-488" type="qcurve" smooth="yes"/>
      <point x="-816" y="-493"/>
      <point x="-840" y="-493" type="qcurve" smooth="yes"/>
      <point x="-855" y="-493"/>
      <point x="-872" y="-492" type="qcurve" smooth="yes"/>
      <point x="-879" y="-492"/>
      <point x="-932" y="-477"/>
      <point x="-989" y="-437"/>
      <point x="-1011" y="-388"/>
      <point x="-1018" y="-339" type="qcurve"/>
      <point x="-1017" y="-283"/>
      <point x="-974" y="-194"/>
      <point x="-914" y="-168" type="qcurve" smooth="yes"/>
      <point x="-859" y="-145"/>
      <point x="-788" y="-145" type="qcurve" smooth="yes"/>
      <point x="-774" y="-145" type="line" smooth="yes"/>
      <point x="-694" y="-148"/>
      <point x="-562" y="-225"/>
      <point x="-497" y="-291" type="qcurve" smooth="yes"/>
      <point x="-439" y="-351"/>
      <point x="-374" y="-351" type="qcurve" smooth="yes"/>
      <point x="-367" y="-351"/>
      <point x="-360" y="-350" type="qcurve" smooth="yes"/>
      <point x="-257" y="-344"/>
      <point x="-232" y="-145" type="qcurve"/>
      <point x="-112" y="-145" type="line"/>
      <point x="-137" y="-490"/>
      <point x="-357" y="-490" type="qcurve" smooth="yes"/>
      <point x="-360" y="-490" type="line" smooth="yes"/>
      <point x="-497" y="-488"/>
      <point x="-650" y="-293"/>
    </contour>
  </outline>
</glyph>
<glyph name="uni0EBD" format="1">
  <advance width="1044"/>
  <unicode hex="0EBD"/>
  <outline>
    <contour>
      <point x="342" y="-121"/>
      <point x="301" y="-121" type="qcurve" smooth="yes"/>
      <point x="262" y="-121"/>
      <point x="240" y="-143" type="qcurve" smooth="yes"/>
      <point x="220" y="-163"/>
      <point x="220" y="-192" type="qcurve" smooth="yes"/>
      <point x="220" y="-197"/>
      <point x="221" y="-203" type="qcurve" smooth="yes"/>
      <point x="226" y="-270"/>
      <point x="344" y="-285" type="qcurve"/>
      <point x="393" y="-251"/>
      <point x="393" y="-205" type="qcurve" smooth="yes"/>
      <point x="393" y="-203" type="line" smooth="yes"/>
      <point x="393" y="-166"/>
    </contour>
    <contour>
      <point x="875" y="1085" type="line" smooth="yes"/>
      <point x="875" y="1028"/>
      <point x="842" y="948"/>
      <point x="797" y="936" type="qcurve" smooth="yes"/>
      <point x="774" y="930"/>
      <point x="746" y="930" type="qcurve" smooth="yes"/>
      <point x="720" y="930"/>
      <point x="692" y="935" type="qcurve" smooth="yes"/>
      <point x="631" y="946"/>
      <point x="496" y="987"/>
      <point x="343" y="1034"/>
      <point x="295" y="1036" type="qcurve" smooth="yes"/>
      <point x="286" y="1036" type="line" smooth="yes"/>
      <point x="246" y="1036"/>
      <point x="241" y="1017" type="qcurve"/>
      <point x="241" y="1012" type="line" smooth="yes"/>
      <point x="241" y="994"/>
      <point x="283" y="984" type="qcurve" smooth="yes"/>
      <point x="330" y="973"/>
      <point x="471" y="936"/>
      <point x="637" y="885"/>
      <point x="781" y="815"/>
      <point x="875" y="729"/>
      <point x="875" y="676" type="qcurve" smooth="yes"/>
      <point x="875" y="-45" type="line" smooth="yes"/>
      <point x="875" y="-64"/>
      <point x="876" y="-100" type="qcurve" smooth="yes"/>
      <point x="876" y="-109" type="line" smooth="yes"/>
      <point x="876" y="-142"/>
      <point x="870" y="-180" type="qcurve" smooth="yes"/>
      <point x="862" y="-223"/>
      <point x="826" y="-301"/>
      <point x="750" y="-375"/>
      <point x="689" y="-399" type="qcurve" smooth="yes"/>
      <point x="632" y="-422"/>
      <point x="531" y="-422" type="qcurve" smooth="yes"/>
      <point x="523" y="-422" type="line" smooth="yes"/>
      <point x="426" y="-422"/>
      <point x="356" y="-410" type="qcurve" smooth="yes"/>
      <point x="282" y="-398"/>
      <point x="157" y="-343"/>
      <point x="100" y="-266"/>
      <point x="100" y="-201" type="qcurve" smooth="yes"/>
      <point x="100" y="-194" type="line" smooth="yes"/>
      <point x="100" y="-121"/>
      <point x="154" y="-68" type="qcurve" smooth="yes"/>
      <point x="209" y="-14"/>
      <point x="270" y="-8" type="qcurve" smooth="yes"/>
      <point x="287" y="-7"/>
      <point x="302" y="-7" type="qcurve" smooth="yes"/>
      <point x="341" y="-7"/>
      <point x="368" y="-16" type="qcurve" smooth="yes"/>
      <point x="406" y="-29"/>
      <point x="465" y="-77"/>
      <point x="485" y="-119" type="qcurve" smooth="yes"/>
      <point x="500" y="-150"/>
      <point x="500" y="-189" type="qcurve" smooth="yes"/>
      <point x="500" y="-203"/>
      <point x="498" y="-219" type="qcurve" smooth="yes"/>
      <point x="490" y="-276"/>
      <point x="464" y="-296" type="qcurve"/>
      <point x="500" y="-306"/>
      <point x="538" y="-306" type="qcurve" smooth="yes"/>
      <point x="549" y="-306"/>
      <point x="559" y="-305" type="qcurve" smooth="yes"/>
      <point x="608" y="-302"/>
      <point x="695" y="-259"/>
      <point x="727" y="-165"/>
      <point x="735" y="-55"/>
      <point x="735" y="-6" type="qcurve" smooth="yes"/>
      <point x="735" y="614" type="line" smooth="yes"/>
      <point x="735" y="701"/>
      <point x="500" y="786" type="qcurve"/>
      <point x="201" y="887" type="line" smooth="yes"/>
      <point x="114" y="914"/>
      <point x="114" y="986" type="qcurve" smooth="yes"/>
      <point x="114" y="993"/>
      <point x="115" y="1001" type="qcurve" smooth="yes"/>
      <point x="123" y="1057"/>
      <point x="165" y="1117"/>
      <point x="223" y="1139"/>
      <point x="276" y="1140" type="qcurve" smooth="yes"/>
      <point x="281" y="1140" type="line" smooth="yes"/>
      <point x="333" y="1140"/>
      <point x="420" y="1124" type="qcurve" smooth="yes"/>
      <point x="512" y="1106"/>
      <point x="647" y="1069"/>
      <point x="691" y="1059" type="qcurve" smooth="yes"/>
      <point x="695" y="1058"/>
      <point x="699" y="1058" type="qcurve" smooth="yes"/>
      <point x="735" y="1058"/>
      <point x="735" y="1139" type="qcurve"/>
      <point x="875" y="1139" type="line"/>
    </contour>
  </outline>
</glyph>
<glyph name="uni0EC0" format="1">
  <advance width="718"/>
  <unicode hex="0EC0"/>
  <outline>
    <contour>
      <point x="438" y="240" type="qcurve" smooth="yes"/>
      <point x="390" y="240"/>
      <point x="390" y="188" type="qcurve" smooth="yes"/>
      <point x="390" y="136"/>
      <point x="438" y="136" type="qcurve" smooth="yes"/>
      <point x="486" y="136"/>
      <point x="486" y="188" type="qcurve" smooth="yes"/>
      <point x="486" y="240"/>
    </contour>
    <contour>
      <point x="291" y="306" type="line" smooth="yes"/>
      <point x="291" y="203"/>
      <point x="308" y="199" type="qcurve"/>
      <point x="318" y="315"/>
      <point x="444" y="315" type="qcurve" smooth="yes"/>
      <point x="569" y="315"/>
      <point x="571" y="194" type="qcurve"/>
      <point x="565" y="0"/>
      <point x="400" y="0" type="qcurve" smooth="yes"/>
      <point x="168" y="0"/>
      <point x="168" y="306" type="qcurve" smooth="yes"/>
      <point x="168" y="865" type="line" smooth="yes"/>
      <point x="168" y="1029"/>
      <point x="330" y="1140"/>
      <point x="405" y="1140" type="qcurve" smooth="yes"/>
      <point x="502" y="1140"/>
      <point x="569" y="1101" type="qcurve"/>
      <point x="569" y="987" type="line"/>
      <point x="479" y="1009"/>
      <point x="405" y="1009" type="qcurve" smooth="yes"/>
      <point x="339" y="1009"/>
      <point x="291" y="931"/>
      <point x="291" y="889" type="qcurve" smooth="yes"/>
    </contour>
  </outline>
</glyph>
<glyph name="uni0EC1" format="1">
  <advance width="1239"/>
  <unicode hex="0EC1"/>
  <outline>
    <contour>
      <point x="438" y="240" type="qcurve" smooth="yes"/>
      <point x="390" y="240"/>
      <point x="390" y="188" type="qcurve" smooth="yes"/>
      <point x="390" y="136"/>
      <point x="438" y="136" type="qcurve" smooth="yes"/>
      <point x="486" y="136"/>
      <point x="486" y="188" type="qcurve" smooth="yes"/>
      <point x="486" y="240"/>
    </contour>
    <contour>
      <point x="291" y="306" type="line" smooth="yes"/>
      <point x="291" y="203"/>
      <point x="308" y="199" type="qcurve"/>
      <point x="318" y="315"/>
      <point x="444" y="315" type="qcurve" smooth="yes"/>
      <point x="569" y="315"/>
      <point x="571" y="194" type="qcurve"/>
      <point x="565" y="0"/>
      <point x="400" y="0" type="qcurve" smooth="yes"/>
      <point x="168" y="0"/>
      <point x="168" y="306" type="qcurve" smooth="yes"/>
      <point x="168" y="865" type="line" smooth="yes"/>
      <point x="168" y="1029"/>
      <point x="330" y="1140"/>
      <point x="405" y="1140" type="qcurve" smooth="yes"/>
      <point x="502" y="1140"/>
      <point x="569" y="1101" type="qcurve"/>
      <point x="569" y="987" type="line"/>
      <point x="479" y="1009"/>
      <point x="405" y="1009" type="qcurve" smooth="yes"/>
      <point x="339" y="1009"/>
      <point x="291" y="931"/>
      <point x="291" y="889" type="qcurve" smooth="yes"/>
    </contour>
    <contour>
      <point x="959" y="240" type="qcurve" smooth="yes"/>
      <point x="911" y="240"/>
      <point x="911" y="188" type="qcurve" smooth="yes"/>
      <point x="911" y="136"/>
      <point x="959" y="136" type="qcurve" smooth="yes"/>
      <point x="1007" y="136"/>
      <point x="1007" y="188" type="qcurve" smooth="yes"/>
      <point x="1007" y="240"/>
    </contour>
    <contour>
      <point x="812" y="306" type="line" smooth="yes"/>
      <point x="812" y="203"/>
      <point x="829" y="199" type="qcurve"/>
      <point x="839" y="315"/>
      <point x="965" y="315" type="qcurve" smooth="yes"/>
      <point x="1090" y="315"/>
      <point x="1092" y="194" type="qcurve"/>
      <point x="1086" y="0"/>
      <point x="921" y="0" type="qcurve" smooth="yes"/>
      <point x="689" y="0"/>
      <point x="689" y="306" type="qcurve" smooth="yes"/>
      <point x="689" y="865" type="line" smooth="yes"/>
      <point x="689" y="1029"/>
      <point x="851" y="1140"/>
      <point x="926" y="1140" type="qcurve" smooth="yes"/>
      <point x="1023" y="1140"/>
      <point x="1090" y="1101" type="qcurve"/>
      <point x="1090" y="987" type="line"/>
      <point x="1000" y="1009"/>
      <point x="926" y="1009" type="qcurve" smooth="yes"/>
      <point x="860" y="1009"/>
      <point x="812" y="931"/>
      <point x="812" y="889" type="qcurve" smooth="yes"/>
    </contour>
  </outline>
</glyph>
<glyph name="uni0EC2" format="1">
  <advance width="833"/>
  <unicode hex="0EC2"/>
  <outline>
    <contour>
      <point x="596" y="186" type="qcurve" smooth="yes"/>
      <point x="596" y="239"/>
      <point x="548" y="239" type="qcurve" smooth="yes"/>
      <point x="500" y="239"/>
      <point x="500" y="186" type="qcurve" smooth="yes"/>
      <point x="500" y="133"/>
      <point x="548" y="133" type="qcurve" smooth="yes"/>
      <point x="596" y="133"/>
    </contour>
    <contour>
      <point x="143" y="1622" type="qcurve" smooth="yes"/>
      <point x="133" y="1610"/>
      <point x="133" y="1596" type="qcurve" smooth="yes"/>
      <point x="133" y="1570"/>
      <point x="169" y="1537" type="qcurve" smooth="yes"/>
      <point x="450" y="1259" type="line"/>
      <point x="578" y="1148" type="line"/>
      <point x="578" y="1146" type="line"/>
      <point x="461" y="1115"/>
      <point x="406" y="1014"/>
      <point x="403" y="960" type="qcurve" smooth="yes"/>
      <point x="403" y="312" type="line" smooth="yes"/>
      <point x="406" y="207"/>
      <point x="423" y="203" type="qcurve"/>
      <point x="433" y="321"/>
      <point x="559" y="321" type="qcurve" smooth="yes"/>
      <point x="684" y="321"/>
      <point x="686" y="198" type="qcurve"/>
      <point x="680" y="0"/>
      <point x="515" y="0" type="qcurve" smooth="yes"/>
      <point x="283" y="0"/>
      <point x="271" y="312" type="qcurve"/>
      <point x="271" y="957" type="line" smooth="yes"/>
      <point x="273" y="1023"/>
      <point x="327" y="1143"/>
      <point x="350" y="1165" type="qcurve"/>
      <point x="63" y="1454" type="line" smooth="yes"/>
      <point x="0" y="1519"/>
      <point x="0" y="1598" type="qcurve" smooth="yes"/>
      <point x="3" y="1675"/>
      <point x="49" y="1726" type="qcurve"/>
      <point x="114" y="1784"/>
      <point x="186" y="1784" type="qcurve" smooth="yes"/>
      <point x="274" y="1784"/>
      <point x="338" y="1723" type="qcurve" smooth="yes"/>
      <point x="442" y="1618" type="line"/>
      <point x="587" y="1465"/>
      <point x="665" y="1465" type="qcurve" smooth="yes"/>
      <point x="675" y="1465"/>
      <point x="684" y="1467" type="qcurve"/>
      <point x="684" y="1355" type="line"/>
      <point x="650" y="1345"/>
      <point x="621" y="1345" type="qcurve" smooth="yes"/>
      <point x="591" y="1345"/>
      <point x="565" y="1356" type="qcurve" smooth="yes"/>
      <point x="514" y="1376"/>
      <point x="352" y="1536" type="qcurve" smooth="yes"/>
      <point x="271" y="1616" type="line"/>
      <point x="239" y="1658"/>
      <point x="206" y="1658" type="qcurve" smooth="yes"/>
      <point x="175" y="1658"/>
    </contour>
  </outline>
</glyph>
<glyph name="uni0EC3" format="1">
  <advance width="949"/>
  <unicode hex="0EC3"/>
  <outline>
    <contour>
      <point x="717" y="191" type="qcurve" smooth="yes"/>
      <point x="717" y="244"/>
      <point x="669" y="244" type="qcurve" smooth="yes"/>
      <point x="621" y="244"/>
      <point x="621" y="191" type="qcurve" smooth="yes"/>
      <point x="621" y="138"/>
      <point x="669" y="138" type="qcurve" smooth="yes"/>
      <point x="717" y="138"/>
    </contour>
    <contour>
      <point x="522" y="312" type="line" smooth="yes"/>
      <point x="522" y="207"/>
      <point x="539" y="203" type="qcurve"/>
      <point x="549" y="321"/>
      <point x="675" y="321" type="qcurve" smooth="yes"/>
      <point x="800" y="321"/>
      <point x="802" y="198" type="qcurve"/>
      <point x="796" y="0"/>
      <point x="631" y="0" type="qcurve" smooth="yes"/>
      <point x="399" y="0"/>
      <point x="399" y="312" type="qcurve" smooth="yes"/>
      <point x="399" y="921" type="line" smooth="yes"/>
      <point x="401" y="1079"/>
      <point x="529" y="1207" type="qcurve" smooth="yes"/>
      <point x="656" y="1334"/>
      <point x="656" y="1441" type="qcurve" smooth="yes"/>
      <point x="653" y="1657"/>
      <point x="401" y="1657" type="qcurve" smooth="yes"/>
      <point x="135" y="1657"/>
      <point x="135" y="1441" type="qcurve"/>
      <point x="151" y="1319"/>
      <point x="232" y="1304" type="qcurve" smooth="yes"/>
      <point x="240" y="1303"/>
      <point x="247" y="1303" type="qcurve" smooth="yes"/>
      <point x="304" y="1303"/>
      <point x="346" y="1370" type="qcurve"/>
      <point x="442" y="1296" type="line"/>
      <point x="351" y="1176"/>
      <point x="256" y="1176" type="qcurve" smooth="yes"/>
      <point x="242" y="1176"/>
      <point x="227" y="1179" type="qcurve" smooth="yes"/>
      <point x="170" y="1183"/>
      <point x="84" y="1239"/>
      <point x="23" y="1312"/>
      <point x="0" y="1392"/>
      <point x="0" y="1441" type="qcurve" smooth="yes"/>
      <point x="0" y="1784"/>
      <point x="401" y="1784" type="qcurve" smooth="yes"/>
      <point x="792" y="1784"/>
      <point x="795" y="1441" type="qcurve" smooth="yes"/>
      <point x="795" y="1298"/>
      <point x="614" y="1126" type="qcurve" smooth="yes"/>
      <point x="522" y="1038"/>
      <point x="522" y="921" type="qcurve" smooth="yes"/>
    </contour>
  </outline>
</glyph>
<glyph name="uni0EC4" format="1">
  <advance width="841"/>
  <unicode hex="0EC4"/>
  <outline>
    <contour>
      <point x="497" y="191" type="qcurve" smooth="yes"/>
      <point x="497" y="138"/>
      <point x="545" y="138" type="qcurve" smooth="yes"/>
      <point x="593" y="138"/>
      <point x="593" y="191" type="qcurve" smooth="yes"/>
      <point x="593" y="244"/>
      <point x="545" y="244" type="qcurve" smooth="yes"/>
      <point x="497" y="244"/>
    </contour>
    <contour>
      <point x="265" y="866" type="line" smooth="yes"/>
      <point x="265" y="915"/>
      <point x="296" y="977"/>
      <point x="333" y="1020"/>
      <point x="384" y="1058"/>
      <point x="423" y="1085" type="qcurve" smooth="yes"/>
      <point x="438" y="1094"/>
      <point x="478" y="1118"/>
      <point x="529" y="1149"/>
      <point x="558" y="1176"/>
      <point x="558" y="1192" type="qcurve" smooth="yes"/>
      <point x="558" y="1208"/>
      <point x="536" y="1219"/>
      <point x="524" y="1219" type="qcurve" smooth="yes"/>
      <point x="501" y="1219"/>
      <point x="381" y="1165"/>
      <point x="350" y="1165" type="qcurve" smooth="yes"/>
      <point x="291" y="1165"/>
      <point x="221" y="1247"/>
      <point x="197" y="1345" type="qcurve" smooth="yes"/>
      <point x="156" y="1506"/>
      <point x="92" y="1614"/>
      <point x="0" y="1692" type="qcurve"/>
      <point x="97" y="1790" type="line"/>
      <point x="155" y="1747"/>
      <point x="242" y="1635"/>
      <point x="277" y="1537"/>
      <point x="287" y="1510"/>
      <point x="298" y="1468" type="qcurve" smooth="yes"/>
      <point x="309" y="1432"/>
      <point x="324" y="1363"/>
      <point x="336" y="1326"/>
      <point x="354" y="1298"/>
      <point x="371" y="1298" type="qcurve" smooth="yes"/>
      <point x="393" y="1298"/>
      <point x="491" y="1352"/>
      <point x="542" y="1352" type="qcurve" smooth="yes"/>
      <point x="593" y="1352"/>
      <point x="694" y="1280"/>
      <point x="694" y="1212" type="qcurve" smooth="yes"/>
      <point x="694" y="1165"/>
      <point x="653" y="1102"/>
      <point x="594" y="1050"/>
      <point x="521" y="1005"/>
      <point x="461" y="965"/>
      <point x="400" y="913"/>
      <point x="398" y="881" type="qcurve" smooth="yes"/>
      <point x="398" y="312" type="line" smooth="yes"/>
      <point x="398" y="207"/>
      <point x="415" y="203" type="qcurve"/>
      <point x="425" y="321"/>
      <point x="551" y="321" type="qcurve" smooth="yes"/>
      <point x="676" y="321"/>
      <point x="678" y="198" type="qcurve"/>
      <point x="672" y="0"/>
      <point x="507" y="0" type="qcurve" smooth="yes"/>
      <point x="275" y="0"/>
      <point x="265" y="312" type="qcurve"/>
    </contour>
  </outline>
</glyph>
<glyph name="uni0EC6" format="1">
  <advance width="1299"/>
  <unicode hex="0EC6"/>
  <outline>
    <contour>
      <point x="355" y="826" type="qcurve" smooth="yes"/>
      <point x="285" y="826"/>
      <point x="285" y="757" type="qcurve" smooth="yes"/>
      <point x="285" y="688"/>
      <point x="355" y="688" type="qcurve" smooth="yes"/>
      <point x="425" y="688"/>
      <point x="425" y="757" type="qcurve" smooth="yes"/>
      <point x="425" y="826"/>
    </contour>
    <contour>
      <point x="392" y="1142" type="qcurve" smooth="yes"/>
      <point x="437" y="1142"/>
      <point x="517" y="1107"/>
      <point x="563" y="1078" type="qcurve" smooth="yes"/>
      <point x="606" y="1050"/>
      <point x="641" y="1050" type="qcurve" smooth="yes"/>
      <point x="644" y="1050" type="line" smooth="yes"/>
      <point x="679" y="1051"/>
      <point x="773" y="1108"/>
      <point x="836" y="1142"/>
      <point x="893" y="1142" type="qcurve" smooth="yes"/>
      <point x="963" y="1142"/>
      <point x="1068" y="1083"/>
      <point x="1119" y="978"/>
      <point x="1131" y="841"/>
      <point x="1131" y="765" type="qcurve" smooth="yes"/>
      <point x="1131" y="-80" type="line" smooth="yes"/>
      <point x="1131" y="-172"/>
      <point x="1031" y="-305"/>
      <point x="904" y="-389"/>
      <point x="738" y="-428"/>
      <point x="674" y="-428" type="qcurve" smooth="yes"/>
      <point x="640" y="-428"/>
      <point x="497" y="-393"/>
      <point x="380" y="-336"/>
      <point x="282" y="-262"/>
      <point x="235" y="-223" type="qcurve"/>
      <point x="339" y="-119" type="line"/>
      <point x="425" y="-197"/>
      <point x="601" y="-293"/>
      <point x="662" y="-293" type="qcurve" smooth="yes"/>
      <point x="719" y="-293"/>
      <point x="846" y="-275"/>
      <point x="933" y="-221"/>
      <point x="1003" y="-129"/>
      <point x="1003" y="-58" type="qcurve" smooth="yes"/>
      <point x="1002" y="820" type="line" smooth="yes"/>
      <point x="1002" y="880"/>
      <point x="992" y="954"/>
      <point x="963" y="995"/>
      <point x="912" y="1009"/>
      <point x="891" y="1009" type="qcurve" smooth="yes"/>
      <point x="831" y="1007"/>
      <point x="765" y="958" type="qcurve" smooth="yes"/>
      <point x="703" y="911"/>
      <point x="646" y="911" type="qcurve" smooth="yes"/>
      <point x="642" y="911"/>
      <point x="638" y="912" type="qcurve" smooth="yes"/>
      <point x="577" y="915"/>
      <point x="437" y="1015"/>
      <point x="376" y="1015" type="qcurve" smooth="yes"/>
      <point x="371" y="1015" type="line" smooth="yes"/>
      <point x="331" y="1015"/>
      <point x="296" y="984" type="qcurve" smooth="yes"/>
      <point x="261" y="953"/>
      <point x="261" y="888" type="qcurve" smooth="yes"/>
      <point x="261" y="877" type="line"/>
      <point x="302" y="919"/>
      <point x="355" y="919" type="qcurve" smooth="yes"/>
      <point x="528" y="919"/>
      <point x="528" y="778" type="qcurve" smooth="yes"/>
      <point x="530" y="762"/>
      <point x="530" y="747" type="qcurve" smooth="yes"/>
      <point x="530" y="598"/>
      <point x="345" y="596" type="qcurve"/>
      <point x="147" y="602"/>
      <point x="147" y="827" type="qcurve" smooth="yes"/>
      <point x="147" y="995"/>
      <point x="291" y="1142"/>
    </contour>
  </outline>
</glyph>
<glyph name="uni0EC8" format="1">
  <advance width="0"/>
  <unicode hex="0EC8"/>
  <outline>
    <contour>
      <point x="-736" y="2078" type="line"/>
      <point x="-614" y="2078" type="line"/>
      <point x="-614" y="1760" type="line"/>
      <point x="-736" y="1760" type="line"/>
    </contour>
  </outline>
</glyph>
<glyph name="uni0EC9" format="1">
  <advance width="0"/>
  <unicode hex="0EC9"/>
  <outline>
    <contour>
      <point x="-640" y="1983" type="qcurve" smooth="yes"/>
      <point x="-640" y="1990"/>
      <point x="-643" y="1996" type="qcurve" smooth="yes"/>
      <point x="-655" y="2018"/>
      <point x="-677" y="2018" type="qcurve" smooth="yes"/>
      <point x="-681" y="2018"/>
      <point x="-686" y="2017" type="qcurve" smooth="yes"/>
      <point x="-715" y="2012"/>
      <point x="-716" y="1987" type="qcurve" smooth="yes"/>
      <point x="-717" y="1985"/>
      <point x="-717" y="1984" type="qcurve" smooth="yes"/>
      <point x="-717" y="1961"/>
      <point x="-691" y="1958" type="qcurve" smooth="yes"/>
      <point x="-675" y="1956"/>
      <point x="-658" y="1956" type="qcurve" smooth="yes"/>
      <point x="-647" y="1956" type="line"/>
      <point x="-640" y="1972"/>
    </contour>
    <contour>
      <point x="-772" y="1924" type="qcurve" smooth="yes"/>
      <point x="-804" y="1947"/>
      <point x="-804" y="1986" type="qcurve" smooth="yes"/>
      <point x="-804" y="1995" type="line"/>
      <point x="-800" y="2040"/>
      <point x="-756" y="2066" type="qcurve" smooth="yes"/>
      <point x="-720" y="2087"/>
      <point x="-673" y="2087" type="qcurve" smooth="yes"/>
      <point x="-663" y="2087"/>
      <point x="-652" y="2086" type="qcurve" smooth="yes"/>
      <point x="-591" y="2080"/>
      <point x="-569" y="2045" type="qcurve" smooth="yes"/>
      <point x="-549" y="2013"/>
      <point x="-549" y="1967" type="qcurve" smooth="yes"/>
      <point x="-549" y="1959" type="line" smooth="yes"/>
      <point x="-551" y="1907"/>
      <point x="-638" y="1835" type="qcurve"/>
      <point x="-490" y="1844"/>
      <point x="-332" y="1960"/>
      <point x="-291" y="2057" type="qcurve"/>
      <point x="-171" y="2007" type="line"/>
      <point x="-232" y="1902"/>
      <point x="-344" y="1815"/>
      <point x="-526" y="1760"/>
      <point x="-666" y="1760" type="qcurve" smooth="yes"/>
      <point x="-880" y="1760" type="line"/>
      <point x="-880" y="1820" type="line"/>
      <point x="-744" y="1844"/>
      <point x="-690" y="1897" type="qcurve"/>
      <point x="-742" y="1902"/>
    </contour>
  </outline>
</glyph>
<glyph name="uni0ECA" format="1">
  <advance width="0"/>
  <unicode hex="0ECA"/>
  <outline>
    <contour>
      <point x="-492" y="1780" type="qcurve"/>
      <point x="-514" y="1785"/>
      <point x="-543" y="1815"/>
      <point x="-547" y="1836" type="qcurve"/>
      <point x="-537" y="1846"/>
      <point x="-510" y="1864"/>
      <point x="-496" y="1885"/>
      <point x="-477" y="1904"/>
      <point x="-476" y="1927" type="qcurve"/>
      <point x="-483" y="1952"/>
      <point x="-496" y="1964" type="qcurve" smooth="yes"/>
      <point x="-508" y="1975"/>
      <point x="-535" y="1975" type="qcurve" smooth="yes"/>
      <point x="-540" y="1975" type="line"/>
      <point x="-574" y="1949"/>
      <point x="-642" y="1887"/>
      <point x="-660" y="1887" type="qcurve" smooth="yes"/>
      <point x="-677" y="1887"/>
      <point x="-742" y="1957"/>
      <point x="-769" y="1972" type="qcurve"/>
      <point x="-799" y="1972"/>
      <point x="-825" y="1945"/>
      <point x="-825" y="1916" type="qcurve" smooth="yes"/>
      <point x="-825" y="1894"/>
      <point x="-804" y="1871"/>
      <point x="-780" y="1856"/>
      <point x="-750" y="1836"/>
      <point x="-739" y="1826" type="qcurve"/>
      <point x="-768" y="1783"/>
      <point x="-807" y="1774" type="qcurve"/>
      <point x="-875" y="1803"/>
      <point x="-934" y="1881"/>
      <point x="-934" y="1930" type="qcurve" smooth="yes"/>
      <point x="-934" y="1967"/>
      <point x="-900" y="2022"/>
      <point x="-862" y="2063"/>
      <point x="-811" y="2084"/>
      <point x="-774" y="2084" type="qcurve" smooth="yes"/>
      <point x="-755" y="2084"/>
      <point x="-714" y="2069"/>
      <point x="-662" y="2020"/>
      <point x="-651" y="2008" type="qcurve"/>
      <point x="-624" y="2030"/>
      <point x="-569" y="2079"/>
      <point x="-527" y="2086" type="qcurve"/>
      <point x="-494" y="2086"/>
      <point x="-435" y="2059"/>
      <point x="-402" y="2020"/>
      <point x="-392" y="1999" type="qcurve" smooth="yes"/>
      <point x="-385" y="1982"/>
      <point x="-385" y="1960" type="qcurve" smooth="yes"/>
      <point x="-385" y="1950" type="line"/>
      <point x="-360" y="1986"/>
      <point x="-346" y="2031"/>
      <point x="-334" y="2076" type="qcurve"/>
      <point x="-305" y="2074"/>
      <point x="-272" y="2053"/>
      <point x="-260" y="2033" type="qcurve" smooth="yes"/>
      <point x="-259" y="2029"/>
      <point x="-259" y="2024" type="qcurve" smooth="yes"/>
      <point x="-259" y="1980"/>
      <point x="-279" y="1943" type="qcurve" smooth="yes"/>
      <point x="-301" y="1902"/>
      <point x="-364" y="1846"/>
      <point x="-456" y="1797"/>
    </contour>
  </outline>
</glyph>
<glyph name="uni0ECB" format="1">
  <advance width="0"/>
  <unicode hex="0ECB"/>
  <outline>
    <contour>
      <point x="-585" y="1748" type="line"/>
      <point x="-704" y="1748" type="line"/>
      <point x="-704" y="1866" type="line"/>
      <point x="-824" y="1866" type="line"/>
      <point x="-824" y="1977" type="line"/>
      <point x="-704" y="1977" type="line"/>
      <point x="-704" y="2096" type="line"/>
      <point x="-585" y="2096" type="line"/>
      <point x="-585" y="1977" type="line"/>
      <point x="-464" y="1977" type="line"/>
      <point x="-464" y="1866" type="line"/>
      <point x="-585" y="1866" type="line"/>
    </contour>
  </outline>
</glyph>
<glyph name="uni0ECC" format="1">
  <advance width="0"/>
  <unicode hex="0ECC"/>
  <outline>
    <contour>
      <point x="-762" y="1866" type="qcurve" smooth="yes"/>
      <point x="-763" y="1878"/>
      <point x="-763" y="1889" type="qcurve" smooth="yes"/>
      <point x="-763" y="1928"/>
      <point x="-744" y="1957" type="qcurve" smooth="yes"/>
      <point x="-719" y="1993"/>
      <point x="-683" y="2006" type="qcurve" smooth="yes"/>
      <point x="-660" y="2014"/>
      <point x="-621" y="2014" type="qcurve" smooth="yes"/>
      <point x="-599" y="2014"/>
      <point x="-571" y="2012" type="qcurve" smooth="yes"/>
      <point x="-555" y="2010"/>
      <point x="-540" y="2010" type="qcurve" smooth="yes"/>
      <point x="-482" y="2010"/>
      <point x="-433" y="2033" type="qcurve" smooth="yes"/>
      <point x="-371" y="2062"/>
      <point x="-345" y="2123" type="qcurve"/>
      <point x="-297" y="2028" type="line"/>
      <point x="-326" y="1971"/>
      <point x="-374" y="1942" type="qcurve" smooth="yes"/>
      <point x="-417" y="1916"/>
      <point x="-476" y="1916" type="qcurve" smooth="yes"/>
      <point x="-488" y="1916" type="line"/>
      <point x="-486" y="1906"/>
      <point x="-486" y="1893" type="qcurve" smooth="yes"/>
      <point x="-486" y="1873"/>
      <point x="-491" y="1847" type="qcurve" smooth="yes"/>
      <point x="-499" y="1804"/>
      <point x="-563" y="1755"/>
      <point x="-621" y="1755" type="qcurve" smooth="yes"/>
      <point x="-679" y="1755"/>
      <point x="-755" y="1811"/>
    </contour>
    <contour>
      <point x="-654" y="1840" type="qcurve" smooth="yes"/>
      <point x="-642" y="1831"/>
      <point x="-628" y="1831" type="qcurve" smooth="yes"/>
      <point x="-622" y="1831"/>
      <point x="-617" y="1832" type="qcurve" smooth="yes"/>
      <point x="-595" y="1836"/>
      <point x="-583" y="1852" type="qcurve" smooth="yes"/>
      <point x="-575" y="1864"/>
      <point x="-575" y="1877" type="qcurve" smooth="yes"/>
      <point x="-575" y="1882"/>
      <point x="-576" y="1887" type="qcurve" smooth="yes"/>
      <point x="-580" y="1906"/>
      <point x="-596" y="1917" type="qcurve" smooth="yes"/>
      <point x="-609" y="1925"/>
      <point x="-624" y="1925" type="qcurve" smooth="yes"/>
      <point x="-629" y="1925"/>
      <point x="-635" y="1924" type="qcurve" smooth="yes"/>
      <point x="-655" y="1921"/>
      <point x="-666" y="1905" type="qcurve" smooth="yes"/>
      <point x="-675" y="1893"/>
      <point x="-675" y="1879" type="qcurve" smooth="yes"/>
      <point x="-675" y="1874"/>
      <point x="-674" y="1869" type="qcurve" smooth="yes"/>
      <point x="-671" y="1851"/>
    </contour>
  </outline>
</glyph>
<glyph name="uni0ECD" format="1">
  <advance width="0"/>
  <unicode hex="0ECD"/>
  <outline>
    <contour>
      <point x="-656" y="2065" type="qcurve" smooth="yes"/>
      <point x="-611" y="2065"/>
      <point x="-525" y="2024"/>
      <point x="-478" y="1947"/>
      <point x="-478" y="1905" type="qcurve" smooth="yes"/>
      <point x="-478" y="1863"/>
      <point x="-524" y="1787"/>
      <point x="-609" y="1745"/>
      <point x="-656" y="1745" type="qcurve" smooth="yes"/>
      <point x="-702" y="1745"/>
      <point x="-787" y="1787"/>
      <point x="-834" y="1863"/>
      <point x="-834" y="1905" type="qcurve" smooth="yes"/>
      <point x="-834" y="1947"/>
      <point x="-786" y="2024"/>
      <point x="-701" y="2065"/>
    </contour>
    <contour>
      <point x="-709" y="1957"/>
      <point x="-730" y="1925"/>
      <point x="-730" y="1907" type="qcurve" smooth="yes"/>
      <point x="-730" y="1889"/>
      <point x="-710" y="1858"/>
      <point x="-675" y="1840"/>
      <point x="-656" y="1840" type="qcurve" smooth="yes"/>
      <point x="-636" y="1840"/>
      <point x="-600" y="1858"/>
      <point x="-581" y="1889"/>
      <point x="-581" y="1907" type="qcurve" smooth="yes"/>
      <point x="-581" y="1925"/>
      <point x="-601" y="1957"/>
      <point x="-636" y="1974"/>
      <point x="-656" y="1974" type="qcurve" smooth="yes"/>
      <point x="-674" y="1974"/>
    </contour>
  </outline>
</glyph>
<glyph name="uni0ED0" format="1">
  <advance width="1131"/>
  <unicode hex="0ED0"/>
  <outline>
    <contour>
      <point x="763" y="0"/>
      <point x="564" y="0" type="qcurve" smooth="yes"/>
      <point x="147" y="0"/>
      <point x="147" y="579" type="qcurve" smooth="yes"/>
      <point x="147" y="747"/>
      <point x="200" y="954"/>
      <point x="306" y="1085"/>
      <point x="384" y="1115" type="qcurve" smooth="yes"/>
      <point x="453" y="1140"/>
      <point x="540" y="1140" type="qcurve" smooth="yes"/>
      <point x="578" y="1140" type="line" smooth="yes"/>
      <point x="782" y="1140"/>
      <point x="882" y="1021" type="qcurve" smooth="yes"/>
      <point x="984" y="901"/>
      <point x="984" y="579" type="qcurve" smooth="yes"/>
      <point x="984" y="238"/>
    </contour>
    <contour>
      <point x="779" y="921" type="qcurve"/>
      <point x="712" y="1009"/>
      <point x="564" y="1009" type="qcurve" smooth="yes"/>
      <point x="497" y="1009"/>
      <point x="390" y="966"/>
      <point x="319" y="870"/>
      <point x="282" y="712"/>
      <point x="282" y="579" type="qcurve" smooth="yes"/>
      <point x="282" y="133"/>
      <point x="564" y="133" type="qcurve" smooth="yes"/>
      <point x="700" y="133"/>
      <point x="849" y="302"/>
      <point x="849" y="579" type="qcurve" smooth="yes"/>
      <point x="849" y="839"/>
    </contour>
  </outline>
</glyph>
<glyph name="uni0ED1" format="1">
  <advance width="1304"/>
  <unicode hex="0ED1"/>
  <outline>
    <contour>
      <point x="1157" y="576" type="line"/>
      <point x="1151" y="505"/>
      <point x="1082" y="356"/>
      <point x="971" y="220"/>
      <point x="823" y="96"/>
      <point x="724" y="51" type="qcurve"/>
      <point x="659" y="16"/>
      <point x="546" y="0"/>
      <point x="496" y="0" type="qcurve" smooth="yes"/>
      <point x="476" y="0"/>
      <point x="420" y="10"/>
      <point x="420" y="29" type="qcurve" smooth="yes"/>
      <point x="420" y="59"/>
      <point x="552" y="126"/>
      <point x="692" y="193" type="qcurve"/>
      <point x="768" y="235"/>
      <point x="838" y="297"/>
      <point x="937" y="413"/>
      <point x="982" y="531"/>
      <point x="982" y="586" type="qcurve" smooth="yes"/>
      <point x="982" y="635"/>
      <point x="964" y="777"/>
      <point x="889" y="907"/>
      <point x="735" y="1002"/>
      <point x="595" y="1002" type="qcurve" smooth="yes"/>
      <point x="521" y="1002"/>
      <point x="411" y="963"/>
      <point x="335" y="897"/>
      <point x="298" y="812"/>
      <point x="298" y="765" type="qcurve" smooth="yes"/>
      <point x="298" y="723"/>
      <point x="307" y="647"/>
      <point x="340" y="586"/>
      <point x="404" y="546"/>
      <point x="460" y="538" type="qcurve"/>
      <point x="409" y="571"/>
      <point x="388" y="651"/>
      <point x="388" y="668" type="qcurve" smooth="yes"/>
      <point x="396" y="731"/>
      <point x="453" y="804"/>
      <point x="526" y="841"/>
      <point x="600" y="851"/>
      <point x="624" y="851" type="qcurve" smooth="yes"/>
      <point x="628" y="851"/>
      <point x="688" y="833"/>
      <point x="756" y="785"/>
      <point x="812" y="707"/>
      <point x="812" y="645" type="qcurve" smooth="yes"/>
      <point x="812" y="571"/>
      <point x="743" y="476"/>
      <point x="662" y="421"/>
      <point x="595" y="401"/>
      <point x="535" y="396" type="qcurve" smooth="yes"/>
      <point x="526" y="395"/>
      <point x="516" y="395" type="qcurve" smooth="yes"/>
      <point x="462" y="395"/>
      <point x="390" y="418" type="qcurve" smooth="yes"/>
      <point x="305" y="445"/>
      <point x="198" y="548"/>
      <point x="147" y="684"/>
      <point x="147" y="757" type="qcurve" smooth="yes"/>
      <point x="147" y="936"/>
      <point x="393" y="1140"/>
      <point x="614" y="1140" type="qcurve" smooth="yes"/>
      <point x="736" y="1140"/>
      <point x="935" y="1066"/>
      <point x="1079" y="924"/>
      <point x="1157" y="717"/>
      <point x="1157" y="584" type="qcurve" smooth="yes"/>
    </contour>
    <contour>
      <point x="682" y="651" type="qcurve" smooth="yes"/>
      <point x="682" y="682"/>
      <point x="635" y="727"/>
      <point x="603" y="727" type="qcurve" smooth="yes"/>
      <point x="569" y="727"/>
      <point x="523" y="682"/>
      <point x="523" y="651" type="qcurve" smooth="yes"/>
      <point x="523" y="618"/>
      <point x="569" y="576"/>
      <point x="603" y="576" type="qcurve" smooth="yes"/>
      <point x="635" y="576"/>
      <point x="682" y="618"/>
    </contour>
  </outline>
</glyph>
<glyph name="uni0ED2" format="1">
  <advance width="1304"/>
  <unicode hex="0ED2"/>
  <outline>
    <contour>
      <point x="1157" y="1412"/>
      <point x="1157" y="1408" type="qcurve" smooth="yes"/>
      <point x="1157" y="1334"/>
      <point x="1056" y="1193"/>
      <point x="920" y="1074"/>
      <point x="779" y="990"/>
      <point x="741" y="973" type="qcurve" smooth="yes"/>
      <point x="697" y="952"/>
      <point x="598" y="889"/>
      <point x="514" y="838"/>
      <point x="458" y="803"/>
      <point x="455" y="801" type="qcurve" smooth="yes"/>
      <point x="418" y="770"/>
      <point x="363" y="717"/>
      <point x="328" y="655"/>
      <point x="310" y="584"/>
      <point x="310" y="535" type="qcurve" smooth="yes"/>
      <point x="310" y="455"/>
      <point x="365" y="319"/>
      <point x="464" y="209"/>
      <point x="605" y="143"/>
      <point x="691" y="143" type="qcurve" smooth="yes"/>
      <point x="761" y="143"/>
      <point x="814" y="158" type="qcurve"/>
      <point x="768" y="203"/>
      <point x="739" y="244"/>
      <point x="720" y="287"/>
      <point x="720" y="305" type="qcurve" smooth="yes"/>
      <point x="720" y="365"/>
      <point x="766" y="438"/>
      <point x="836" y="479"/>
      <point x="876" y="486" type="qcurve" smooth="yes"/>
      <point x="906" y="490"/>
      <point x="933" y="490" type="qcurve" smooth="yes"/>
      <point x="949" y="490" type="line" smooth="yes"/>
      <point x="995" y="488"/>
      <point x="1067" y="453"/>
      <point x="1117" y="399"/>
      <point x="1146" y="332"/>
      <point x="1146" y="299" type="qcurve" smooth="yes"/>
      <point x="1146" y="260"/>
      <point x="1140" y="211"/>
      <point x="1103" y="134"/>
      <point x="1016" y="66" type="qcurve"/>
      <point x="923" y="23"/>
      <point x="816" y="0"/>
      <point x="691" y="0" type="qcurve" smooth="yes"/>
      <point x="437" y="0"/>
      <point x="147" y="275"/>
      <point x="147" y="541" type="qcurve" smooth="yes"/>
      <point x="147" y="639"/>
      <point x="198" y="782"/>
      <point x="310" y="903"/>
      <point x="487" y="1018"/>
      <point x="611" y="1080" type="qcurve"/>
      <point x="750" y="1140"/>
      <point x="1010" y="1336"/>
      <point x="1117" y="1459" type="qcurve"/>
      <point x="1144" y="1453"/>
      <point x="1153" y="1439" type="qcurve"/>
      <point x="1155" y="1428"/>
    </contour>
    <contour>
      <point x="970" y="369"/>
      <point x="939" y="369" type="qcurve" smooth="yes"/>
      <point x="907" y="369"/>
      <point x="863" y="326"/>
      <point x="863" y="295" type="qcurve" smooth="yes"/>
      <point x="863" y="266"/>
      <point x="907" y="223"/>
      <point x="939" y="223" type="qcurve" smooth="yes"/>
      <point x="970" y="223"/>
      <point x="1016" y="266"/>
      <point x="1016" y="295" type="qcurve" smooth="yes"/>
      <point x="1016" y="326"/>
    </contour>
  </outline>
</glyph>
<glyph name="uni0ED3" format="1">
  <advance width="1308"/>
  <unicode hex="0ED3"/>
  <outline>
    <contour>
      <point x="251" y="201" type="qcurve" smooth="yes"/>
      <point x="251" y="245"/>
      <point x="218" y="245" type="qcurve" smooth="yes"/>
      <point x="185" y="245"/>
      <point x="185" y="201" type="qcurve" smooth="yes"/>
      <point x="185" y="157"/>
      <point x="218" y="157" type="qcurve" smooth="yes"/>
      <point x="251" y="157"/>
    </contour>
    <contour>
      <point x="1009" y="1021" type="line" smooth="yes"/>
      <point x="1009" y="1061"/>
      <point x="785" y="1175"/>
      <point x="511" y="1296"/>
      <point x="437" y="1402"/>
      <point x="437" y="1456" type="qcurve" smooth="yes"/>
      <point x="437" y="1528"/>
      <point x="518" y="1599"/>
      <point x="577" y="1599" type="qcurve" smooth="yes"/>
      <point x="689" y="1599"/>
      <point x="790" y="1546" type="qcurve"/>
      <point x="1140" y="1387" type="line"/>
      <point x="1074" y="1287" type="line"/>
      <point x="746" y="1439" type="line" smooth="yes"/>
      <point x="628" y="1490"/>
      <point x="595" y="1490" type="qcurve" smooth="yes"/>
      <point x="579" y="1490"/>
      <point x="562" y="1460"/>
      <point x="562" y="1450" type="qcurve" smooth="yes"/>
      <point x="562" y="1433"/>
      <point x="589" y="1398"/>
      <point x="609" y="1384" type="qcurve"/>
      <point x="990" y="1202" type="line" smooth="yes"/>
      <point x="1108" y="1144"/>
      <point x="1136" y="1017" type="qcurve"/>
      <point x="1136" y="300" type="line" smooth="yes"/>
      <point x="1134" y="0"/>
      <point x="763" y="0" type="qcurve" smooth="yes"/>
      <point x="560" y="0"/>
      <point x="467" y="90" type="qcurve"/>
      <point x="403" y="0"/>
      <point x="262" y="0" type="qcurve" smooth="yes"/>
      <point x="105" y="0"/>
      <point x="100" y="197" type="qcurve"/>
      <point x="102" y="334"/>
      <point x="222" y="334" type="qcurve" smooth="yes"/>
      <point x="341" y="334"/>
      <point x="341" y="205" type="qcurve" smooth="yes"/>
      <point x="341" y="159"/>
      <point x="305" y="124" type="qcurve"/>
      <point x="392" y="135"/>
      <point x="392" y="300" type="qcurve" smooth="yes"/>
      <point x="392" y="1040" type="line"/>
      <point x="521" y="1040" type="line"/>
      <point x="521" y="300" type="line" smooth="yes"/>
      <point x="521" y="127"/>
      <point x="765" y="127" type="qcurve" smooth="yes"/>
      <point x="1009" y="127"/>
      <point x="1009" y="300" type="qcurve" smooth="yes"/>
    </contour>
  </outline>
</glyph>
<glyph name="uni0ED4" format="1">
  <advance width="1304"/>
  <unicode hex="0ED4"/>
  <outline>
    <contour>
      <point x="988" y="643" type="qcurve" smooth="yes"/>
      <point x="926" y="643"/>
      <point x="926" y="568" type="qcurve" smooth="yes"/>
      <point x="926" y="493"/>
      <point x="988" y="493" type="qcurve" smooth="yes"/>
      <point x="1050" y="493"/>
      <point x="1050" y="568" type="qcurve" smooth="yes"/>
      <point x="1050" y="643"/>
    </contour>
    <contour>
      <point x="981" y="97" type="qcurve" smooth="yes"/>
      <point x="1037" y="97"/>
      <point x="1037" y="142" type="qcurve" smooth="yes"/>
      <point x="1037" y="187"/>
      <point x="973" y="187" type="qcurve" smooth="yes"/>
      <point x="970" y="187" type="line" smooth="yes"/>
      <point x="947" y="187"/>
      <point x="927" y="185" type="qcurve"/>
      <point x="934" y="97"/>
    </contour>
    <contour>
      <point x="781" y="568" type="line" smooth="yes"/>
      <point x="781" y="743"/>
      <point x="969" y="743" type="qcurve" smooth="yes"/>
      <point x="1157" y="743"/>
      <point x="1157" y="568" type="qcurve" smooth="yes"/>
      <point x="1157" y="393"/>
      <point x="969" y="393" type="qcurve" smooth="yes"/>
      <point x="947" y="393"/>
      <point x="926" y="396" type="qcurve"/>
      <point x="926" y="291" type="line"/>
      <point x="948" y="293"/>
      <point x="970" y="293" type="qcurve" smooth="yes"/>
      <point x="1133" y="293"/>
      <point x="1133" y="146" type="qcurve" smooth="yes"/>
      <point x="1133" y="0"/>
      <point x="981" y="0" type="qcurve" smooth="yes"/>
      <point x="840" y="0"/>
      <point x="799" y="145" type="qcurve"/>
      <point x="682" y="67"/>
      <point x="533" y="0"/>
      <point x="464" y="0" type="qcurve" smooth="yes"/>
      <point x="278" y="0"/>
      <point x="148" y="279"/>
      <point x="148" y="551" type="qcurve" smooth="yes"/>
      <point x="148" y="555"/>
      <point x="147" y="623" type="qcurve" smooth="yes"/>
      <point x="147" y="682"/>
      <point x="166" y="761" type="qcurve" smooth="yes"/>
      <point x="186" y="844"/>
      <point x="284" y="1012"/>
      <point x="384" y="1061" type="qcurve" smooth="yes"/>
      <point x="854" y="1276" type="line" smooth="yes"/>
      <point x="880" y="1289"/>
      <point x="922" y="1327"/>
      <point x="955" y="1370"/>
      <point x="978" y="1409"/>
      <point x="984" y="1420" type="qcurve" smooth="yes"/>
      <point x="1016" y="1475"/>
      <point x="1056" y="1475" type="qcurve" smooth="yes"/>
      <point x="1096" y="1475"/>
      <point x="1133" y="1434"/>
      <point x="1133" y="1409" type="qcurve" smooth="yes"/>
      <point x="1133" y="1383"/>
      <point x="1100" y="1309"/>
      <point x="1048" y="1235"/>
      <point x="978" y="1172"/>
      <point x="940" y="1155" type="qcurve" smooth="yes"/>
      <point x="489" y="965" type="line" smooth="yes"/>
      <point x="439" y="946"/>
      <point x="368" y="872"/>
      <point x="324" y="780"/>
      <point x="303" y="682"/>
      <point x="303" y="639" type="qcurve" smooth="yes"/>
      <point x="303" y="555"/>
      <point x="316" y="385"/>
      <point x="365" y="144"/>
      <point x="467" y="144" type="qcurve" smooth="yes"/>
      <point x="533" y="144"/>
      <point x="684" y="211"/>
      <point x="781" y="269" type="qcurve"/>
    </contour>
  </outline>
</glyph>
<glyph name="uni0ED5" format="1">
  <advance width="1304"/>
  <unicode hex="0ED5"/>
  <outline>
    <contour>
      <point x="756" y="1274" type="qcurve" smooth="yes"/>
      <point x="756" y="1305"/>
      <point x="712" y="1346"/>
      <point x="678" y="1346" type="qcurve" smooth="yes"/>
      <point x="647" y="1346"/>
      <point x="601" y="1305"/>
      <point x="601" y="1274" type="qcurve"/>
      <point x="613" y="1207"/>
      <point x="707" y="1206" type="qcurve"/>
      <point x="756" y="1233"/>
    </contour>
    <contour>
      <point x="926" y="568" type="qcurve" smooth="yes"/>
      <point x="926" y="493"/>
      <point x="988" y="493" type="qcurve" smooth="yes"/>
      <point x="1050" y="493"/>
      <point x="1050" y="568" type="qcurve" smooth="yes"/>
      <point x="1050" y="643"/>
      <point x="988" y="643" type="qcurve" smooth="yes"/>
      <point x="926" y="643"/>
    </contour>
    <contour>
      <point x="981" y="97" type="qcurve" smooth="yes"/>
      <point x="1037" y="97"/>
      <point x="1037" y="142" type="qcurve" smooth="yes"/>
      <point x="1037" y="187"/>
      <point x="973" y="187" type="qcurve" smooth="yes"/>
      <point x="970" y="187" type="line" smooth="yes"/>
      <point x="947" y="187"/>
      <point x="927" y="185" type="qcurve"/>
      <point x="934" y="97"/>
    </contour>
    <contour>
      <point x="316" y="385"/>
      <point x="365" y="144"/>
      <point x="467" y="144" type="qcurve" smooth="yes"/>
      <point x="533" y="144"/>
      <point x="684" y="211"/>
      <point x="781" y="269" type="qcurve"/>
      <point x="781" y="568" type="line" smooth="yes"/>
      <point x="781" y="743"/>
      <point x="969" y="743" type="qcurve" smooth="yes"/>
      <point x="1157" y="743"/>
      <point x="1157" y="568" type="qcurve" smooth="yes"/>
      <point x="1157" y="393"/>
      <point x="969" y="393" type="qcurve" smooth="yes"/>
      <point x="947" y="393"/>
      <point x="926" y="396" type="qcurve"/>
      <point x="926" y="291" type="line"/>
      <point x="948" y="293"/>
      <point x="970" y="293" type="qcurve" smooth="yes"/>
      <point x="1133" y="293"/>
      <point x="1133" y="146" type="qcurve" smooth="yes"/>
      <point x="1133" y="0"/>
      <point x="981" y="0" type="qcurve" smooth="yes"/>
      <point x="840" y="0"/>
      <point x="799" y="145" type="qcurve"/>
      <point x="682" y="67"/>
      <point x="533" y="0"/>
      <point x="464" y="0" type="qcurve" smooth="yes"/>
      <point x="278" y="0"/>
      <point x="148" y="279"/>
      <point x="148" y="551" type="qcurve" smooth="yes"/>
      <point x="148" y="555"/>
      <point x="147" y="622" type="qcurve" smooth="yes"/>
      <point x="147" y="630" type="line" smooth="yes"/>
      <point x="147" y="693"/>
      <point x="162" y="772" type="qcurve" smooth="yes"/>
      <point x="177" y="856"/>
      <point x="241" y="965"/>
      <point x="332" y="1024"/>
      <point x="391" y="1043" type="qcurve"/>
      <point x="582" y="1127" type="line"/>
      <point x="540" y="1139"/>
      <point x="492" y="1190"/>
      <point x="465" y="1245"/>
      <point x="463" y="1272" type="qcurve" smooth="yes"/>
      <point x="461" y="1284"/>
      <point x="461" y="1294" type="qcurve" smooth="yes"/>
      <point x="461" y="1305"/>
      <point x="463" y="1313" type="qcurve" smooth="yes"/>
      <point x="470" y="1356"/>
      <point x="514" y="1415"/>
      <point x="573" y="1450"/>
      <point x="643" y="1467"/>
      <point x="676" y="1467" type="qcurve" smooth="yes"/>
      <point x="751" y="1467"/>
      <point x="837" y="1411"/>
      <point x="876" y="1340"/>
      <point x="881" y="1309" type="qcurve"/>
      <point x="881" y="1299" type="line" smooth="yes"/>
      <point x="881" y="1269"/>
      <point x="860" y="1218" type="qcurve"/>
      <point x="913" y="1234"/>
      <point x="956" y="1294" type="qcurve" smooth="yes"/>
      <point x="997" y="1351"/>
      <point x="997" y="1395" type="qcurve" smooth="yes"/>
      <point x="997" y="1406" type="line" smooth="yes"/>
      <point x="997" y="1445"/>
      <point x="1019" y="1456" type="qcurve" smooth="yes"/>
      <point x="1043" y="1467"/>
      <point x="1064" y="1467" type="qcurve" smooth="yes"/>
      <point x="1102" y="1467"/>
      <point x="1140" y="1428"/>
      <point x="1140" y="1403" type="qcurve" smooth="yes"/>
      <point x="1140" y="1374"/>
      <point x="1056" y="1199"/>
      <point x="910" y="1094"/>
      <point x="756" y="1094" type="qcurve"/>
      <point x="743" y="1053"/>
      <point x="663" y="1020" type="qcurve"/>
      <point x="555" y="969" type="line" smooth="yes"/>
      <point x="507" y="948"/>
      <point x="416" y="909"/>
      <point x="344" y="842"/>
      <point x="322" y="789" type="qcurve" smooth="yes"/>
      <point x="301" y="738"/>
      <point x="301" y="656" type="qcurve" smooth="yes"/>
      <point x="301" y="651"/>
      <point x="302" y="645" type="qcurve" smooth="yes"/>
      <point x="303" y="555"/>
    </contour>
  </outline>
</glyph>
<glyph name="uni0ED6" format="1">
  <advance width="1379"/>
  <unicode hex="0ED6"/>
  <outline>
    <contour>
      <point x="476" y="1002" type="qcurve" smooth="yes"/>
      <point x="476" y="1071"/>
      <point x="406" y="1071" type="qcurve" smooth="yes"/>
      <point x="336" y="1071"/>
      <point x="336" y="1002" type="qcurve" smooth="yes"/>
      <point x="336" y="933"/>
      <point x="406" y="933" type="qcurve" smooth="yes"/>
      <point x="476" y="933"/>
    </contour>
    <contour>
      <point x="692" y="417" type="qcurve"/>
      <point x="718" y="469"/>
      <point x="718" y="510" type="qcurve" smooth="yes"/>
      <point x="718" y="557"/>
      <point x="707" y="615"/>
      <point x="690" y="615" type="qcurve" smooth="yes"/>
      <point x="672" y="615"/>
      <point x="661" y="557"/>
      <point x="661" y="510" type="qcurve" smooth="yes"/>
      <point x="661" y="469"/>
    </contour>
    <contour>
      <point x="1211" y="363" type="line" smooth="yes"/>
      <point x="1211" y="16"/>
      <point x="935" y="0" type="qcurve" smooth="yes"/>
      <point x="882" y="0"/>
      <point x="759" y="90"/>
      <point x="732" y="126" type="qcurve" smooth="yes"/>
      <point x="713" y="151"/>
      <point x="699" y="177" type="qcurve" smooth="yes"/>
      <point x="690" y="194" type="line"/>
      <point x="680" y="177" type="line" smooth="yes"/>
      <point x="666" y="151"/>
      <point x="647" y="126" type="qcurve" smooth="yes"/>
      <point x="620" y="90"/>
      <point x="497" y="0"/>
      <point x="444" y="0" type="qcurve" smooth="yes"/>
      <point x="168" y="16"/>
      <point x="168" y="363" type="qcurve" smooth="yes"/>
      <point x="168" y="862" type="line" smooth="yes"/>
      <point x="168" y="1157"/>
      <point x="406" y="1163" type="qcurve"/>
      <point x="581" y="1161"/>
      <point x="581" y="1013" type="qcurve" smooth="yes"/>
      <point x="581" y="998"/>
      <point x="579" y="981" type="qcurve" smooth="yes"/>
      <point x="579" y="840"/>
      <point x="426" y="840" type="qcurve" smooth="yes"/>
      <point x="353" y="840"/>
      <point x="312" y="882" type="qcurve"/>
      <point x="303" y="896" type="line"/>
      <point x="303" y="363" type="line" smooth="yes"/>
      <point x="303" y="157"/>
      <point x="435" y="131" type="qcurve"/>
      <point x="476" y="131"/>
      <point x="524" y="174"/>
      <point x="596" y="252"/>
      <point x="643" y="324" type="qcurve"/>
      <point x="614" y="360"/>
      <point x="581" y="475"/>
      <point x="575" y="530" type="qcurve"/>
      <point x="575" y="549" type="line" smooth="yes"/>
      <point x="575" y="625"/>
      <point x="634" y="712"/>
      <point x="690" y="712" type="qcurve" smooth="yes"/>
      <point x="745" y="712"/>
      <point x="804" y="625"/>
      <point x="804" y="549" type="qcurve" smooth="yes"/>
      <point x="804" y="530" type="line"/>
      <point x="798" y="475"/>
      <point x="765" y="360"/>
      <point x="736" y="324" type="qcurve"/>
      <point x="783" y="252"/>
      <point x="855" y="174"/>
      <point x="903" y="131"/>
      <point x="944" y="131" type="qcurve"/>
      <point x="1076" y="157"/>
      <point x="1076" y="363" type="qcurve" smooth="yes"/>
      <point x="1076" y="931" type="line" smooth="yes"/>
      <point x="1076" y="971"/>
      <point x="1032" y="1007" type="qcurve" smooth="yes"/>
      <point x="915" y="1111"/>
      <point x="788" y="1215"/>
      <point x="729" y="1281"/>
      <point x="717" y="1324"/>
      <point x="717" y="1348" type="qcurve" smooth="yes"/>
      <point x="717" y="1400"/>
      <point x="792" y="1481"/>
      <point x="854" y="1481" type="qcurve" smooth="yes"/>
      <point x="921" y="1481"/>
      <point x="1085" y="1391"/>
      <point x="1136" y="1352" type="qcurve" smooth="yes"/>
      <point x="1215" y="1297" type="line"/>
      <point x="1146" y="1197" type="line"/>
      <point x="944" y="1326" type="line" smooth="yes"/>
      <point x="905" y="1352"/>
      <point x="882" y="1352" type="qcurve" smooth="yes"/>
      <point x="866" y="1352"/>
      <point x="848" y="1332"/>
      <point x="848" y="1322" type="qcurve" smooth="yes"/>
      <point x="848" y="1305"/>
      <point x="876" y="1270"/>
      <point x="897" y="1256" type="qcurve" smooth="yes"/>
      <point x="1120" y="1073" type="line"/>
      <point x="1182" y="1034"/>
      <point x="1211" y="927" type="qcurve"/>
    </contour>
  </outline>
</glyph>
<glyph name="uni0ED7" format="1">
  <advance width="1215"/>
  <unicode hex="0ED7"/>
  <outline>
    <contour>
      <point x="327" y="155" type="qcurve" smooth="yes"/>
      <point x="327" y="210"/>
      <point x="283" y="210" type="qcurve" smooth="yes"/>
      <point x="239" y="210"/>
      <point x="239" y="155" type="qcurve" smooth="yes"/>
      <point x="239" y="100"/>
      <point x="283" y="100" type="qcurve" smooth="yes"/>
      <point x="327" y="100"/>
    </contour>
    <contour>
      <point x="280" y="1046" type="qcurve" smooth="yes"/>
      <point x="232" y="1046"/>
      <point x="232" y="1001" type="qcurve" smooth="yes"/>
      <point x="232" y="956"/>
      <point x="287" y="956" type="qcurve" smooth="yes"/>
      <point x="289" y="956" type="line" smooth="yes"/>
      <point x="310" y="956"/>
      <point x="326" y="958" type="qcurve"/>
      <point x="321" y="1046"/>
    </contour>
    <contour>
      <point x="924" y="860" type="line" smooth="yes"/>
      <point x="924" y="1016"/>
      <point x="713" y="1016" type="qcurve" smooth="yes"/>
      <point x="567" y="1016"/>
      <point x="473" y="928" type="qcurve" smooth="yes"/>
      <point x="464" y="915"/>
      <point x="452" y="904" type="qcurve"/>
      <point x="452" y="175" type="line" smooth="yes"/>
      <point x="452" y="0"/>
      <point x="290" y="0" type="qcurve" smooth="yes"/>
      <point x="147" y="0"/>
      <point x="147" y="165" type="qcurve" smooth="yes"/>
      <point x="147" y="310"/>
      <point x="290" y="310" type="qcurve" smooth="yes"/>
      <point x="310" y="310"/>
      <point x="327" y="307" type="qcurve"/>
      <point x="327" y="852" type="line"/>
      <point x="309" y="850"/>
      <point x="289" y="850" type="qcurve" smooth="yes"/>
      <point x="149" y="850"/>
      <point x="149" y="997" type="qcurve" smooth="yes"/>
      <point x="149" y="1140"/>
      <point x="275" y="1140" type="qcurve" smooth="yes"/>
      <point x="287" y="1140" type="line" smooth="yes"/>
      <point x="402" y="1140"/>
      <point x="437" y="1038" type="qcurve"/>
      <point x="577" y="1140"/>
      <point x="706" y="1140" type="qcurve" smooth="yes"/>
      <point x="720" y="1140" type="line" smooth="yes"/>
      <point x="1045" y="1140"/>
      <point x="1047" y="860" type="qcurve" smooth="yes"/>
      <point x="1047" y="-100" type="line" smooth="yes"/>
      <point x="1047" y="-174"/>
      <point x="1097" y="-226" type="qcurve" smooth="yes"/>
      <point x="1126" y="-256"/>
      <point x="1157" y="-274" type="qcurve"/>
      <point x="1157" y="-396" type="line"/>
      <point x="1051" y="-364"/>
      <point x="993" y="-298" type="qcurve" smooth="yes"/>
      <point x="924" y="-218"/>
      <point x="924" y="-100" type="qcurve" smooth="yes"/>
    </contour>
  </outline>
</glyph>
<glyph name="uni0ED8" format="1">
  <advance width="1346"/>
  <unicode hex="0ED8"/>
  <outline>
    <contour>
      <point x="908" y="-449" type="qcurve" smooth="yes"/>
      <point x="908" y="-468"/>
      <point x="930" y="-504"/>
      <point x="970" y="-524"/>
      <point x="991" y="-524" type="qcurve" smooth="yes"/>
      <point x="1012" y="-524"/>
      <point x="1051" y="-504"/>
      <point x="1073" y="-468"/>
      <point x="1073" y="-449" type="qcurve" smooth="yes"/>
      <point x="1073" y="-430"/>
      <point x="1051" y="-394"/>
      <point x="1012" y="-375"/>
      <point x="991" y="-375" type="qcurve" smooth="yes"/>
      <point x="970" y="-375"/>
      <point x="930" y="-394"/>
      <point x="908" y="-430"/>
    </contour>
    <contour>
      <point x="408" y="190" type="qcurve" smooth="yes"/>
      <point x="337" y="190"/>
      <point x="337" y="121" type="qcurve" smooth="yes"/>
      <point x="337" y="52"/>
      <point x="408" y="52" type="qcurve" smooth="yes"/>
      <point x="478" y="52"/>
      <point x="478" y="121" type="qcurve" smooth="yes"/>
      <point x="478" y="190"/>
    </contour>
    <contour>
      <point x="1034" y="60" type="line"/>
      <point x="1034" y="730" type="line"/>
      <point x="1035" y="730" type="line"/>
      <point x="1035" y="1016"/>
      <point x="923" y="1016" type="qcurve" smooth="yes"/>
      <point x="833" y="1016"/>
      <point x="756" y="910" type="qcurve" smooth="yes"/>
      <point x="710" y="846"/>
      <point x="669" y="846" type="qcurve" smooth="yes"/>
      <point x="629" y="846"/>
      <point x="583" y="910" type="qcurve" smooth="yes"/>
      <point x="507" y="1016"/>
      <point x="416" y="1016" type="qcurve" smooth="yes"/>
      <point x="304" y="1016"/>
      <point x="304" y="730" type="qcurve" smooth="yes"/>
      <point x="304" y="227" type="line"/>
      <point x="313" y="241" type="line"/>
      <point x="354" y="283"/>
      <point x="428" y="283" type="qcurve" smooth="yes"/>
      <point x="582" y="283"/>
      <point x="582" y="142" type="qcurve" smooth="yes"/>
      <point x="584" y="125"/>
      <point x="584" y="110" type="qcurve" smooth="yes"/>
      <point x="584" y="-38"/>
      <point x="408" y="-40" type="qcurve"/>
      <point x="168" y="-34"/>
      <point x="168" y="261" type="qcurve" smooth="yes"/>
      <point x="168" y="730" type="line" smooth="yes"/>
      <point x="168" y="1143"/>
      <point x="424" y="1143" type="qcurve" smooth="yes"/>
      <point x="549" y="1143"/>
      <point x="669" y="983" type="qcurve"/>
      <point x="790" y="1143"/>
      <point x="915" y="1143" type="qcurve" smooth="yes"/>
      <point x="1171" y="1143"/>
      <point x="1171" y="730" type="qcurve" smooth="yes"/>
      <point x="1171" y="-40" type="line" smooth="yes"/>
      <point x="1171" y="-185"/>
      <point x="1083" y="-263" type="qcurve" smooth="yes"/>
      <point x="1055" y="-287" type="line"/>
      <point x="1066" y="-292"/>
      <point x="1078" y="-298" type="qcurve" smooth="yes"/>
      <point x="1125" y="-321"/>
      <point x="1178" y="-409"/>
      <point x="1178" y="-457" type="qcurve" smooth="yes"/>
      <point x="1178" y="-504"/>
      <point x="1127" y="-590"/>
      <point x="1033" y="-639"/>
      <point x="982" y="-639" type="qcurve" smooth="yes"/>
      <point x="931" y="-639"/>
      <point x="838" y="-590"/>
      <point x="786" y="-504"/>
      <point x="786" y="-457" type="qcurve" smooth="yes"/>
      <point x="786" y="-446" type="line"/>
      <point x="759" y="-462"/>
      <point x="732" y="-485" type="qcurve" smooth="yes"/>
      <point x="604" y="-590"/>
      <point x="485" y="-590" type="qcurve" smooth="yes"/>
      <point x="361" y="-590"/>
      <point x="248" y="-465"/>
      <point x="248" y="-374" type="qcurve" smooth="yes"/>
      <point x="248" y="-207"/>
      <point x="588" y="-93" type="qcurve" smooth="yes"/>
    </contour>
    <contour>
      <point x="1031" y="-79" type="qcurve"/>
      <point x="738" y="-181" type="line"/>
      <point x="621" y="-223" type="line"/>
      <point x="383" y="-299"/>
      <point x="383" y="-374" type="qcurve" smooth="yes"/>
      <point x="383" y="-418"/>
      <point x="430" y="-457"/>
      <point x="483" y="-457" type="qcurve" smooth="yes"/>
      <point x="558" y="-457"/>
      <point x="656" y="-381" type="qcurve" smooth="yes"/>
      <point x="764" y="-302"/>
      <point x="856" y="-277" type="qcurve"/>
      <point x="992" y="-160" type="line" smooth="yes"/>
      <point x="1023" y="-131"/>
    </contour>
  </outline>
</glyph>
<glyph name="uni0ED9" format="1">
  <advance width="1413"/>
  <unicode hex="0ED9"/>
  <outline>
    <contour>
      <point x="1245" y="1140" type="line"/>
      <point x="1245" y="343" type="line" smooth="yes"/>
      <point x="1245" y="0"/>
      <point x="963" y="0" type="qcurve" smooth="yes"/>
      <point x="680" y="0"/>
      <point x="680" y="343" type="qcurve" smooth="yes"/>
      <point x="680" y="784" type="line" smooth="yes"/>
      <point x="680" y="1010"/>
      <point x="489" y="1010" type="qcurve" smooth="yes"/>
      <point x="297" y="1010"/>
      <point x="297" y="784" type="qcurve" smooth="yes"/>
      <point x="297" y="325" type="line"/>
      <point x="320" y="331"/>
      <point x="377" y="358"/>
      <point x="406" y="360" type="qcurve" smooth="yes"/>
      <point x="412" y="361"/>
      <point x="419" y="361" type="qcurve" smooth="yes"/>
      <point x="445" y="361"/>
      <point x="476" y="349" type="qcurve" smooth="yes"/>
      <point x="515" y="333"/>
      <point x="568" y="273"/>
      <point x="577" y="238" type="qcurve" smooth="yes"/>
      <point x="583" y="211"/>
      <point x="583" y="177" type="qcurve" smooth="yes"/>
      <point x="583" y="164"/>
      <point x="582" y="151" type="qcurve" smooth="yes"/>
      <point x="576" y="100"/>
      <point x="535" y="42"/>
      <point x="478" y="12"/>
      <point x="426" y="2"/>
      <point x="389" y="2" type="qcurve" smooth="yes"/>
      <point x="272" y="8"/>
      <point x="168" y="229"/>
      <point x="168" y="326" type="qcurve" smooth="yes"/>
      <point x="168" y="784" type="line" smooth="yes"/>
      <point x="168" y="1140"/>
      <point x="487" y="1140" type="qcurve" smooth="yes"/>
      <point x="805" y="1140"/>
      <point x="805" y="784" type="qcurve" smooth="yes"/>
      <point x="805" y="343" type="line" smooth="yes"/>
      <point x="805" y="126"/>
      <point x="961" y="126" type="qcurve" smooth="yes"/>
      <point x="1116" y="126"/>
      <point x="1116" y="343" type="qcurve" smooth="yes"/>
      <point x="1116" y="1140" type="line"/>
    </contour>
    <contour>
      <point x="472" y="193" type="qcurve"/>
      <point x="470" y="243"/>
      <point x="418" y="247" type="qcurve"/>
      <point x="352" y="243"/>
      <point x="346" y="189" type="qcurve"/>
      <point x="352" y="123"/>
      <point x="418" y="117" type="qcurve"/>
      <point x="468" y="123"/>
    </contour>
  </outline>
</glyph>
<glyph name="uni0EDC" format="1">
  <advance width="1927"/>
  <unicode hex="0EDC"/>
  <outline>
    <contour>
      <point x="294" y="893" type="qcurve" smooth="yes"/>
      <point x="349" y="893"/>
      <point x="349" y="967" type="qcurve" smooth="yes"/>
      <point x="349" y="1040"/>
      <point x="294" y="1040" type="qcurve" smooth="yes"/>
      <point x="239" y="1040"/>
      <point x="239" y="967" type="qcurve" smooth="yes"/>
      <point x="239" y="893"/>
    </contour>
    <contour>
      <point x="656" y="1045" type="qcurve" smooth="yes"/>
      <point x="608" y="1045"/>
      <point x="608" y="1001" type="qcurve" smooth="yes"/>
      <point x="608" y="957"/>
      <point x="663" y="957" type="qcurve" smooth="yes"/>
      <point x="665" y="957" type="line" smooth="yes"/>
      <point x="686" y="957"/>
      <point x="702" y="959" type="qcurve"/>
      <point x="696" y="1045"/>
    </contour>
    <contour>
      <point x="1758" y="806" type="line"/>
      <point x="1759" y="806" type="line"/>
      <point x="1758" y="297" type="line"/>
      <point x="1746" y="0"/>
      <point x="1527" y="0" type="qcurve" smooth="yes"/>
      <point x="1408" y="0"/>
      <point x="1287" y="113"/>
      <point x="1256" y="122" type="qcurve"/>
      <point x="1194" y="0"/>
      <point x="1072" y="0" type="qcurve"/>
      <point x="1072" y="117" type="line"/>
      <point x="1073" y="117" type="line" smooth="yes"/>
      <point x="1098" y="117"/>
      <point x="1131" y="164" type="qcurve" smooth="yes"/>
      <point x="1164" y="212"/>
      <point x="1164" y="310" type="qcurve" smooth="yes"/>
      <point x="1164" y="857" type="line" smooth="yes"/>
      <point x="1164" y="1003"/>
      <point x="1016" y="1005" type="qcurve"/>
      <point x="939" y="991"/>
      <point x="838" y="917"/>
      <point x="836" y="906" type="qcurve" smooth="yes"/>
      <point x="836" y="353" type="line"/>
      <point x="826" y="0"/>
      <point x="496" y="0" type="qcurve" smooth="yes"/>
      <point x="147" y="0"/>
      <point x="147" y="343" type="qcurve" smooth="yes"/>
      <point x="147" y="541"/>
      <point x="248" y="696" type="qcurve" smooth="yes"/>
      <point x="281" y="748"/>
      <point x="304" y="795" type="qcurve"/>
      <point x="147" y="797"/>
      <point x="147" y="967" type="qcurve" smooth="yes"/>
      <point x="147" y="1138"/>
      <point x="307" y="1140" type="qcurve" smooth="yes"/>
      <point x="467" y="1138"/>
      <point x="467" y="967" type="qcurve" smooth="yes"/>
      <point x="467" y="820"/>
      <point x="374" y="659" type="qcurve" smooth="yes"/>
      <point x="283" y="500"/>
      <point x="283" y="344" type="qcurve" smooth="yes"/>
      <point x="283" y="337" type="line" smooth="yes"/>
      <point x="282" y="327"/>
      <point x="282" y="317" type="qcurve" smooth="yes"/>
      <point x="282" y="130"/>
      <point x="496" y="130" type="qcurve" smooth="yes"/>
      <point x="703" y="130"/>
      <point x="703" y="353" type="qcurve" smooth="yes"/>
      <point x="703" y="855" type="line"/>
      <point x="684" y="853"/>
      <point x="665" y="853" type="qcurve" smooth="yes"/>
      <point x="526" y="853"/>
      <point x="526" y="997" type="qcurve" smooth="yes"/>
      <point x="526" y="1140"/>
      <point x="656" y="1140" type="qcurve" smooth="yes"/>
      <point x="776" y="1140"/>
      <point x="813" y="1037" type="qcurve"/>
      <point x="937" y="1136"/>
      <point x="1022" y="1140" type="qcurve"/>
      <point x="1284" y="1140"/>
      <point x="1297" y="852" type="qcurve"/>
      <point x="1297" y="233" type="line"/>
      <point x="1335" y="218"/>
      <point x="1444" y="124"/>
      <point x="1527" y="124" type="qcurve" smooth="yes"/>
      <point x="1625" y="124"/>
      <point x="1625" y="297" type="qcurve" smooth="yes"/>
      <point x="1625" y="741" type="line"/>
      <point x="1623" y="741" type="line"/>
      <point x="1625" y="1094" type="line" smooth="yes"/>
      <point x="1625" y="1140"/>
      <point x="1691" y="1140" type="qcurve" smooth="yes"/>
      <point x="1758" y="1140"/>
      <point x="1758" y="1094" type="qcurve" smooth="yes"/>
    </contour>
  </outline>
</glyph>
<glyph name="uni0EDD" format="1">
  <advance width="1927"/>
  <unicode hex="0EDD"/>
  <outline>
    <contour>
      <point x="1162" y="176" type="qcurve"/>
      <point x="1145" y="188"/>
      <point x="1124" y="188" type="qcurve" smooth="yes"/>
      <point x="1118" y="188" type="line"/>
      <point x="1079" y="184"/>
      <point x="1079" y="146" type="qcurve" smooth="yes"/>
      <point x="1079" y="144" type="line" smooth="yes"/>
      <point x="1082" y="104"/>
      <point x="1119" y="100" type="qcurve"/>
      <point x="1121" y="100" type="line" smooth="yes"/>
      <point x="1162" y="100"/>
    </contour>
    <contour>
      <point x="310" y="893" type="qcurve" smooth="yes"/>
      <point x="371" y="893"/>
      <point x="371" y="967" type="qcurve" smooth="yes"/>
      <point x="371" y="1040"/>
      <point x="310" y="1040" type="qcurve" smooth="yes"/>
      <point x="249" y="1040"/>
      <point x="249" y="967" type="qcurve" smooth="yes"/>
      <point x="249" y="893"/>
    </contour>
    <contour>
      <point x="659" y="1036" type="qcurve"/>
      <point x="618" y="1033"/>
      <point x="614" y="995" type="qcurve"/>
      <point x="614" y="950"/>
      <point x="660" y="950" type="qcurve" smooth="yes"/>
      <point x="676" y="950"/>
      <point x="704" y="958" type="qcurve"/>
      <point x="706" y="970"/>
      <point x="706" y="980" type="qcurve" smooth="yes"/>
      <point x="706" y="1032"/>
    </contour>
    <contour>
      <point x="1757" y="800" type="line"/>
      <point x="1759" y="800" type="line"/>
      <point x="1759" y="277" type="line" smooth="yes"/>
      <point x="1759" y="0"/>
      <point x="1480" y="0" type="qcurve" smooth="yes"/>
      <point x="1414" y="0"/>
      <point x="1273" y="103" type="qcurve"/>
      <point x="1238" y="0"/>
      <point x="1118" y="0" type="qcurve" smooth="yes"/>
      <point x="988" y="0"/>
      <point x="988" y="143" type="qcurve" smooth="yes"/>
      <point x="988" y="287"/>
      <point x="1127" y="287" type="qcurve" smooth="yes"/>
      <point x="1145" y="287"/>
      <point x="1164" y="285" type="qcurve"/>
      <point x="1164" y="863" type="line" smooth="yes"/>
      <point x="1164" y="1006"/>
      <point x="1021" y="1006" type="qcurve" smooth="yes"/>
      <point x="940" y="1006"/>
      <point x="836" y="922" type="qcurve"/>
      <point x="836" y="347" type="line"/>
      <point x="825" y="0"/>
      <point x="496" y="0" type="qcurve" smooth="yes"/>
      <point x="147" y="0"/>
      <point x="147" y="343" type="qcurve" smooth="yes"/>
      <point x="147" y="541"/>
      <point x="247" y="696" type="qcurve" smooth="yes"/>
      <point x="280" y="748"/>
      <point x="304" y="795" type="qcurve"/>
      <point x="147" y="797"/>
      <point x="147" y="967" type="qcurve" smooth="yes"/>
      <point x="147" y="1137"/>
      <point x="305" y="1137" type="qcurve" smooth="yes"/>
      <point x="309" y="1137" type="line" smooth="yes"/>
      <point x="467" y="1137"/>
      <point x="467" y="967" type="qcurve" smooth="yes"/>
      <point x="467" y="820"/>
      <point x="288" y="493"/>
      <point x="279" y="341" type="qcurve"/>
      <point x="288" y="136"/>
      <point x="496" y="130" type="qcurve"/>
      <point x="703" y="130"/>
      <point x="703" y="353" type="qcurve" smooth="yes"/>
      <point x="703" y="855" type="line"/>
      <point x="684" y="853"/>
      <point x="665" y="853" type="qcurve" smooth="yes"/>
      <point x="526" y="853"/>
      <point x="526" y="997" type="qcurve" smooth="yes"/>
      <point x="526" y="1137"/>
      <point x="651" y="1137" type="qcurve" smooth="yes"/>
      <point x="663" y="1137" type="line" smooth="yes"/>
      <point x="777" y="1137"/>
      <point x="812" y="1037" type="qcurve"/>
      <point x="948" y="1137"/>
      <point x="1021" y="1137" type="qcurve" smooth="yes"/>
      <point x="1027" y="1137" type="line" smooth="yes"/>
      <point x="1284" y="1137"/>
      <point x="1295" y="863" type="qcurve"/>
      <point x="1295" y="234" type="line"/>
      <point x="1299" y="223"/>
      <point x="1309" y="211" type="qcurve" smooth="yes"/>
      <point x="1400" y="124"/>
      <point x="1480" y="124" type="qcurve" smooth="yes"/>
      <point x="1624" y="124"/>
      <point x="1624" y="275" type="qcurve" smooth="yes"/>
      <point x="1624" y="790" type="line"/>
      <point x="1622" y="790" type="line"/>
      <point x="1622" y="1096" type="line" smooth="yes"/>
      <point x="1622" y="1140"/>
      <point x="1690" y="1140" type="qcurve" smooth="yes"/>
      <point x="1757" y="1140"/>
      <point x="1757" y="1096" type="qcurve" smooth="yes"/>
    </contour>
  </outline>
</glyph>
<glyph name="uni0EDE" format="1">
  <advance width="1397"/>
  <unicode hex="0EDE"/>
  <outline>
    <contour>
      <point x="378" y="155" type="qcurve" smooth="yes"/>
      <point x="378" y="215"/>
      <point x="314" y="215" type="qcurve" smooth="yes"/>
      <point x="250" y="215"/>
      <point x="250" y="155" type="qcurve" smooth="yes"/>
      <point x="250" y="94"/>
      <point x="314" y="94" type="qcurve" smooth="yes"/>
      <point x="378" y="94"/>
    </contour>
    <contour>
      <point x="873" y="568" type="qcurve" smooth="yes"/>
      <point x="873" y="602"/>
      <point x="833" y="628"/>
      <point x="810" y="628" type="qcurve" smooth="yes"/>
      <point x="783" y="628"/>
      <point x="748" y="590"/>
      <point x="748" y="572" type="qcurve" smooth="yes"/>
      <point x="748" y="553"/>
      <point x="783" y="512"/>
      <point x="812" y="512" type="qcurve" smooth="yes"/>
      <point x="835" y="512"/>
      <point x="873" y="546"/>
    </contour>
    <contour>
      <point x="309" y="1044" type="qcurve"/>
      <point x="249" y="1044"/>
      <point x="249" y="1001" type="qcurve" smooth="yes"/>
      <point x="249" y="956"/>
      <point x="290" y="950" type="qcurve" smooth="yes"/>
      <point x="297" y="949"/>
      <point x="305" y="949" type="qcurve" smooth="yes"/>
      <point x="339" y="949"/>
      <point x="378" y="974" type="qcurve"/>
      <point x="370" y="1038"/>
    </contour>
    <contour>
      <point x="1094" y="502" type="qcurve"/>
      <point x="1094" y="864" type="line" smooth="yes"/>
      <point x="1093" y="998"/>
      <point x="841" y="1015" type="qcurve"/>
      <point x="670" y="993"/>
      <point x="533" y="913"/>
      <point x="513" y="892" type="qcurve"/>
      <point x="513" y="171" type="line"/>
      <point x="506" y="13"/>
      <point x="321" y="0" type="qcurve"/>
      <point x="156" y="3"/>
      <point x="147" y="161" type="qcurve"/>
      <point x="163" y="291"/>
      <point x="276" y="317" type="qcurve" smooth="yes"/>
      <point x="297" y="320"/>
      <point x="314" y="320" type="qcurve" smooth="yes"/>
      <point x="355" y="320"/>
      <point x="378" y="304" type="qcurve"/>
      <point x="378" y="843" type="line"/>
      <point x="346" y="839"/>
      <point x="316" y="835" type="qcurve"/>
      <point x="147" y="849"/>
      <point x="147" y="993" type="qcurve" smooth="yes"/>
      <point x="147" y="1135"/>
      <point x="303" y="1140" type="qcurve"/>
      <point x="442" y="1140"/>
      <point x="513" y="1032" type="qcurve"/>
      <point x="677" y="1135"/>
      <point x="841" y="1140" type="qcurve"/>
      <point x="1201" y="1131"/>
      <point x="1229" y="867" type="qcurve"/>
      <point x="1229" y="527" type="line"/>
      <point x="1234" y="529"/>
      <point x="1239" y="532" type="qcurve" smooth="yes"/>
      <point x="1270" y="549"/>
      <point x="1323" y="640"/>
      <point x="1342" y="716" type="qcurve"/>
      <point x="1477" y="718" type="line"/>
      <point x="1453" y="533"/>
      <point x="1356" y="457" type="qcurve" smooth="yes"/>
      <point x="1305" y="417"/>
      <point x="1229" y="397" type="qcurve"/>
      <point x="1229" y="35" type="line" smooth="yes"/>
      <point x="1229" y="0"/>
      <point x="1162" y="0" type="qcurve" smooth="yes"/>
      <point x="1094" y="0"/>
      <point x="1094" y="42" type="qcurve" smooth="yes"/>
      <point x="1094" y="380" type="line"/>
      <point x="1081" y="379"/>
      <point x="1067" y="379" type="qcurve" smooth="yes"/>
      <point x="1065" y="379" type="line" smooth="yes"/>
      <point x="1045" y="379"/>
      <point x="1004" y="378" type="qcurve" smooth="yes"/>
      <point x="990" y="377"/>
      <point x="974" y="377" type="qcurve" smooth="yes"/>
      <point x="946" y="377"/>
      <point x="916" y="379" type="qcurve" smooth="yes"/>
      <point x="868" y="381"/>
      <point x="764" y="403"/>
      <point x="681" y="448"/>
      <point x="653" y="490" type="qcurve" smooth="yes"/>
      <point x="627" y="528"/>
      <point x="627" y="577" type="qcurve" smooth="yes"/>
      <point x="627" y="587" type="line" smooth="yes"/>
      <point x="629" y="629"/>
      <point x="663" y="682"/>
      <point x="716" y="721"/>
      <point x="772" y="737"/>
      <point x="793" y="737" type="qcurve" smooth="yes"/>
      <point x="799" y="737"/>
      <point x="844" y="735"/>
      <point x="898" y="721"/>
      <point x="956" y="682"/>
      <point x="979" y="643"/>
      <point x="992" y="613"/>
      <point x="994" y="592" type="qcurve" smooth="yes"/>
      <point x="994" y="582" type="line" smooth="yes"/>
      <point x="994" y="565"/>
      <point x="990" y="549" type="qcurve" smooth="yes"/>
      <point x="984" y="527"/>
      <point x="966" y="504" type="qcurve" smooth="yes"/>
      <point x="966" y="501"/>
      <point x="1018" y="501" type="qcurve" smooth="yes"/>
      <point x="1048" y="501"/>
    </contour>
  </outline>
</glyph>
<glyph name="uni0EDF" format="1">
  <advance width="1325"/>
  <unicode hex="0EDF"/>
  <outline>
    <contour>
      <point x="460" y="982" type="qcurve" smooth="yes"/>
      <point x="460" y="1050"/>
      <point x="389" y="1050" type="qcurve" smooth="yes"/>
      <point x="318" y="1050"/>
      <point x="318" y="982" type="qcurve" smooth="yes"/>
      <point x="318" y="915"/>
      <point x="389" y="915" type="qcurve" smooth="yes"/>
      <point x="460" y="915"/>
    </contour>
    <contour>
      <point x="843" y="648" type="qcurve" smooth="yes"/>
      <point x="843" y="682"/>
      <point x="803" y="708"/>
      <point x="780" y="708" type="qcurve" smooth="yes"/>
      <point x="753" y="708"/>
      <point x="718" y="670"/>
      <point x="718" y="652" type="qcurve" smooth="yes"/>
      <point x="718" y="633"/>
      <point x="753" y="592"/>
      <point x="782" y="592" type="qcurve" smooth="yes"/>
      <point x="805" y="592"/>
      <point x="843" y="626"/>
    </contour>
    <contour>
      <point x="1156" y="468" type="qcurve"/>
      <point x="1156" y="343" type="line" smooth="yes"/>
      <point x="1155" y="0"/>
      <point x="651" y="0" type="qcurve" smooth="yes"/>
      <point x="147" y="0"/>
      <point x="147" y="356" type="qcurve" smooth="yes"/>
      <point x="147" y="515"/>
      <point x="313" y="577" type="qcurve"/>
      <point x="147" y="640"/>
      <point x="147" y="799" type="qcurve" smooth="yes"/>
      <point x="147" y="845" type="line" smooth="yes"/>
      <point x="147" y="1134"/>
      <point x="389" y="1140" type="qcurve"/>
      <point x="567" y="1138"/>
      <point x="567" y="993" type="qcurve" smooth="yes"/>
      <point x="567" y="978"/>
      <point x="565" y="962" type="qcurve" smooth="yes"/>
      <point x="565" y="823"/>
      <point x="409" y="823" type="qcurve" smooth="yes"/>
      <point x="335" y="823"/>
      <point x="293" y="865" type="qcurve"/>
      <point x="284" y="878" type="line"/>
      <point x="284" y="799" type="line" smooth="yes"/>
      <point x="284" y="704"/>
      <point x="409" y="636"/>
      <point x="481" y="636" type="qcurve" smooth="yes"/>
      <point x="552" y="636"/>
      <point x="552" y="578" type="qcurve" smooth="yes"/>
      <point x="552" y="519"/>
      <point x="481" y="519" type="qcurve" smooth="yes"/>
      <point x="409" y="519"/>
      <point x="284" y="451"/>
      <point x="284" y="356" type="qcurve" smooth="yes"/>
      <point x="284" y="124"/>
      <point x="654" y="124" type="qcurve" smooth="yes"/>
      <point x="1022" y="124"/>
      <point x="1022" y="343" type="qcurve" smooth="yes"/>
      <point x="1022" y="459" type="line"/>
      <point x="1003" y="459"/>
      <point x="974" y="458" type="qcurve" smooth="yes"/>
      <point x="960" y="457"/>
      <point x="944" y="457" type="qcurve" smooth="yes"/>
      <point x="916" y="457"/>
      <point x="886" y="459" type="qcurve" smooth="yes"/>
      <point x="838" y="461"/>
      <point x="734" y="483"/>
      <point x="651" y="528"/>
      <point x="623" y="570" type="qcurve" smooth="yes"/>
      <point x="597" y="608"/>
      <point x="597" y="657" type="qcurve" smooth="yes"/>
      <point x="597" y="667" type="line" smooth="yes"/>
      <point x="599" y="709"/>
      <point x="633" y="762"/>
      <point x="686" y="801"/>
      <point x="742" y="817"/>
      <point x="763" y="817" type="qcurve" smooth="yes"/>
      <point x="769" y="817"/>
      <point x="814" y="815"/>
      <point x="868" y="801"/>
      <point x="926" y="762"/>
      <point x="949" y="723"/>
      <point x="962" y="693"/>
      <point x="964" y="672" type="qcurve" smooth="yes"/>
      <point x="964" y="662" type="line" smooth="yes"/>
      <point x="964" y="645"/>
      <point x="960" y="629" type="qcurve" smooth="yes"/>
      <point x="954" y="607"/>
      <point x="936" y="584" type="qcurve" smooth="yes"/>
      <point x="936" y="581"/>
      <point x="988" y="581" type="qcurve" smooth="yes"/>
      <point x="1022" y="581" type="line"/>
      <point x="1022" y="1109" type="line" smooth="yes"/>
      <point x="1022" y="1140"/>
      <point x="1090" y="1140" type="qcurve" smooth="yes"/>
      <point x="1157" y="1140"/>
      <point x="1157" y="1110" type="qcurve" smooth="yes"/>
      <point x="1156" y="591" type="line"/>
      <point x="1184" y="598"/>
      <point x="1209" y="612" type="qcurve" smooth="yes"/>
      <point x="1240" y="629"/>
      <point x="1293" y="720"/>
      <point x="1312" y="796" type="qcurve"/>
      <point x="1447" y="798" type="line"/>
      <point x="1423" y="613"/>
      <point x="1326" y="537" type="qcurve" smooth="yes"/>
      <point x="1261" y="486"/>
    </contour>
  </outline>
</glyph>
<glyph name="uni25CC" format="1">
  <advance width="1217"/>
  <unicode hex="25CC"/>
  <outline>
    <contour>
      <point x="983" y="918" type="qcurve" smooth="yes"/>
      <point x="983" y="864"/>
      <point x="932" y="864" type="qcurve" smooth="yes"/>
      <point x="877" y="864"/>
      <point x="877" y="918" type="qcurve" smooth="yes"/>
      <point x="877" y="973"/>
      <point x="932" y="973" type="qcurve" smooth="yes"/>
      <point x="983" y="973"/>
    </contour>
    <contour>
      <point x="836" y="1016" type="qcurve" smooth="yes"/>
      <point x="836" y="963"/>
      <point x="784" y="963" type="qcurve" smooth="yes"/>
      <point x="727" y="963"/>
      <point x="727" y="1016" type="qcurve" smooth="yes"/>
      <point x="727" y="1071"/>
      <point x="784" y="1071" type="qcurve" smooth="yes"/>
      <point x="836" y="1071"/>
    </contour>
    <contour>
      <point x="1083" y="770" type="qcurve" smooth="yes"/>
      <point x="1083" y="715"/>
      <point x="1028" y="715" type="qcurve" smooth="yes"/>
      <point x="975" y="715"/>
      <point x="975" y="770" type="qcurve" smooth="yes"/>
      <point x="975" y="823"/>
      <point x="1030" y="823" type="qcurve" smooth="yes"/>
      <point x="1083" y="823"/>
    </contour>
    <contour>
      <point x="1118" y="596" type="qcurve" smooth="yes"/>
      <point x="1118" y="543"/>
      <point x="1067" y="543" type="qcurve" smooth="yes"/>
      <point x="1012" y="543"/>
      <point x="1012" y="596" type="qcurve" smooth="yes"/>
      <point x="1012" y="649"/>
      <point x="1067" y="649" type="qcurve" smooth="yes"/>
      <point x="1118" y="649"/>
    </contour>
    <contour>
      <point x="662" y="1053" type="qcurve" smooth="yes"/>
      <point x="662" y="997"/>
      <point x="608" y="997" type="qcurve" smooth="yes"/>
      <point x="555" y="997"/>
      <point x="555" y="1053" type="qcurve" smooth="yes"/>
      <point x="555" y="1106"/>
      <point x="608" y="1106" type="qcurve" smooth="yes"/>
      <point x="662" y="1106"/>
    </contour>
    <contour>
      <point x="489" y="1016" type="qcurve" smooth="yes"/>
      <point x="489" y="963"/>
      <point x="434" y="963" type="qcurve" smooth="yes"/>
      <point x="381" y="963"/>
      <point x="381" y="1016" type="qcurve" smooth="yes"/>
      <point x="381" y="1071"/>
      <point x="434" y="1071" type="qcurve" smooth="yes"/>
      <point x="489" y="1071"/>
    </contour>
    <contour>
      <point x="1083" y="422" type="qcurve" smooth="yes"/>
      <point x="1083" y="369"/>
      <point x="1028" y="369" type="qcurve" smooth="yes"/>
      <point x="975" y="369"/>
      <point x="975" y="422" type="qcurve" smooth="yes"/>
      <point x="975" y="477"/>
      <point x="1028" y="477" type="qcurve" smooth="yes"/>
      <point x="1083" y="477"/>
    </contour>
    <contour>
      <point x="342" y="918" type="qcurve" smooth="yes"/>
      <point x="342" y="864"/>
      <point x="287" y="864" type="qcurve" smooth="yes"/>
      <point x="233" y="864"/>
      <point x="233" y="915" type="qcurve" smooth="yes"/>
      <point x="233" y="973"/>
      <point x="287" y="973" type="qcurve" smooth="yes"/>
      <point x="342" y="973"/>
    </contour>
    <contour>
      <point x="983" y="272" type="qcurve" smooth="yes"/>
      <point x="983" y="219"/>
      <point x="932" y="219" type="qcurve" smooth="yes"/>
      <point x="877" y="219"/>
      <point x="877" y="272" type="qcurve" smooth="yes"/>
      <point x="877" y="328"/>
      <point x="932" y="328" type="qcurve" smooth="yes"/>
      <point x="983" y="328"/>
    </contour>
    <contour>
      <point x="836" y="174" type="qcurve" smooth="yes"/>
      <point x="836" y="123"/>
      <point x="784" y="123" type="qcurve" smooth="yes"/>
      <point x="727" y="123"/>
      <point x="727" y="174" type="qcurve" smooth="yes"/>
      <point x="727" y="229"/>
      <point x="784" y="229" type="qcurve" smooth="yes"/>
      <point x="836" y="229"/>
    </contour>
    <contour>
      <point x="242" y="770" type="qcurve" smooth="yes"/>
      <point x="242" y="715"/>
      <point x="190" y="715" type="qcurve" smooth="yes"/>
      <point x="133" y="715"/>
      <point x="133" y="770" type="qcurve" smooth="yes"/>
      <point x="133" y="823"/>
      <point x="188" y="823" type="qcurve" smooth="yes"/>
      <point x="242" y="823"/>
    </contour>
    <contour>
      <point x="207" y="596" type="qcurve" smooth="yes"/>
      <point x="207" y="543"/>
      <point x="154" y="543" type="qcurve" smooth="yes"/>
      <point x="98" y="543"/>
      <point x="98" y="596" type="qcurve" smooth="yes"/>
      <point x="98" y="649"/>
      <point x="154" y="649" type="qcurve" smooth="yes"/>
      <point x="207" y="649"/>
    </contour>
    <contour>
      <point x="662" y="141" type="qcurve" smooth="yes"/>
      <point x="662" y="86"/>
      <point x="608" y="86" type="qcurve" smooth="yes"/>
      <point x="555" y="86"/>
      <point x="555" y="141" type="qcurve" smooth="yes"/>
      <point x="555" y="195"/>
      <point x="608" y="195" type="qcurve" smooth="yes"/>
      <point x="662" y="195"/>
    </contour>
    <contour>
      <point x="242" y="422" type="qcurve" smooth="yes"/>
      <point x="242" y="369"/>
      <point x="188" y="369" type="qcurve" smooth="yes"/>
      <point x="133" y="369"/>
      <point x="133" y="422" type="qcurve" smooth="yes"/>
      <point x="133" y="477"/>
      <point x="188" y="477" type="qcurve" smooth="yes"/>
      <point x="242" y="477"/>
    </contour>
    <contour>
      <point x="489" y="178" type="qcurve" smooth="yes"/>
      <point x="489" y="123"/>
      <point x="434" y="123" type="qcurve" smooth="yes"/>
      <point x="381" y="123"/>
      <point x="381" y="174" type="qcurve" smooth="yes"/>
      <point x="381" y="229"/>
      <point x="434" y="229" type="qcurve" smooth="yes"/>
      <point x="489" y="229"/>
    </contour>
    <contour>
      <point x="342" y="272" type="qcurve" smooth="yes"/>
      <point x="342" y="219"/>
      <point x="287" y="219" type="qcurve" smooth="yes"/>
      <point x="233" y="219"/>
      <point x="233" y="272" type="qcurve" smooth="yes"/>
      <point x="233" y="328"/>
      <point x="287" y="328" type="qcurve" smooth="yes"/>
      <point x="342" y="328"/>
    </contour>
  </outline>
</glyph>
<glyph name="glyph140" format="1">
  <advance width="0"/>
  <outline>
    <contour>
      <point x="32" y="-175" type="qcurve" smooth="yes"/>
      <point x="32" y="-157"/>
      <point x="4" y="-132"/>
      <point x="-12" y="-132" type="qcurve" smooth="yes"/>
      <point x="-31" y="-132"/>
      <point x="-46" y="-145" type="qcurve" smooth="yes"/>
      <point x="-60" y="-157"/>
      <point x="-60" y="-174" type="qcurve" smooth="yes"/>
      <point x="-60" y="-176" type="line" smooth="yes"/>
      <point x="-60" y="-189"/>
      <point x="-31" y="-218"/>
      <point x="-12" y="-218" type="qcurve" smooth="yes"/>
      <point x="4" y="-218"/>
      <point x="32" y="-189"/>
    </contour>
    <contour>
      <point x="161" y="-264" type="qcurve"/>
      <point x="160" y="-264" type="line"/>
      <point x="147" y="-299"/>
      <point x="130" y="-328"/>
      <point x="101" y="-362"/>
      <point x="64" y="-399"/>
      <point x="5" y="-438" type="qcurve"/>
      <point x="-111" y="-380" type="line"/>
      <point x="-64" y="-359"/>
      <point x="-1" y="-299"/>
      <point x="9" y="-274" type="qcurve"/>
      <point x="-26" y="-283"/>
      <point x="-45" y="-284" type="qcurve" smooth="yes"/>
      <point x="-48" y="-284" type="line" smooth="yes"/>
      <point x="-67" y="-284"/>
      <point x="-97" y="-272" type="qcurve" smooth="yes"/>
      <point x="-145" y="-250"/>
      <point x="-167" y="-197"/>
      <point x="-167" y="-157" type="qcurve"/>
      <point x="-155" y="-111"/>
      <point x="-127" y="-79"/>
      <point x="-83" y="-53"/>
      <point x="-45" y="-43"/>
      <point x="5" y="-42" type="qcurve" smooth="yes"/>
      <point x="10" y="-42" type="line" smooth="yes"/>
      <point x="23" y="-42"/>
      <point x="87" y="-65"/>
      <point x="140" y="-108"/>
      <point x="156" y="-150" type="qcurve" smooth="yes"/>
      <point x="166" y="-175"/>
      <point x="166" y="-210" type="qcurve" smooth="yes"/>
      <point x="166" y="-234"/>
    </contour>
  </outline>
</glyph>
